<svg xmlns="http://www.w3.org/2000/svg" viewBox="0 0 500 500"><g id="freepik--background-complete--inject-3"><rect y="382.4" width="500" height="0.25" style="fill:#ebebeb"></rect><rect x="416.78" y="398.49" width="33.12" height="0.25" style="fill:#ebebeb"></rect><rect x="322.53" y="401.21" width="8.69" height="0.25" style="fill:#ebebeb"></rect><rect x="396.59" y="389.21" width="19.19" height="0.25" style="fill:#ebebeb"></rect><rect x="52.46" y="390.89" width="43.19" height="0.25" style="fill:#ebebeb"></rect><rect x="104.56" y="390.89" width="6.33" height="0.25" style="fill:#ebebeb"></rect><rect x="131.47" y="395.11" width="93.68" height="0.25" style="fill:#ebebeb"></rect><path d="M237,337.8H43.91a5.71,5.71,0,0,1-5.7-5.71V60.66A5.71,5.71,0,0,1,43.91,55H237a5.71,5.71,0,0,1,5.71,5.71V332.09A5.71,5.71,0,0,1,237,337.8ZM43.91,55.2a5.46,5.46,0,0,0-5.45,5.46V332.09a5.46,5.46,0,0,0,5.45,5.46H237a5.47,5.47,0,0,0,5.46-5.46V60.66A5.47,5.47,0,0,0,237,55.2Z" style="fill:#ebebeb"></path><path d="M453.31,337.8H260.21a5.72,5.72,0,0,1-5.71-5.71V60.66A5.72,5.72,0,0,1,260.21,55h193.1A5.71,5.71,0,0,1,459,60.66V332.09A5.71,5.71,0,0,1,453.31,337.8ZM260.21,55.2a5.47,5.47,0,0,0-5.46,5.46V332.09a5.47,5.47,0,0,0,5.46,5.46h193.1a5.47,5.47,0,0,0,5.46-5.46V60.66a5.47,5.47,0,0,0-5.46-5.46Z" style="fill:#ebebeb"></path><polygon points="304.44 84.78 312.06 76.15 316.04 87.82 327.32 84.55 325.07 96.13 336.98 99.09 329.1 107.49 338.45 115.89 327.06 118.84 331.34 130.43 319.48 127.16 317.55 138.83 308.41 130.2 300.78 138.83 296.8 127.16 285.52 130.43 287.77 118.84 275.86 115.89 283.74 107.49 274.39 99.09 285.79 96.13 281.51 84.55 293.36 87.82 295.3 76.15 304.44 84.78" style="fill:#e0e0e0"></polygon><path d="M298.34,101.3a2.79,2.79,0,0,1,.91,2.43,3.51,3.51,0,0,1-.62,1.8,3.84,3.84,0,0,1-1.59,1.29,6,6,0,0,1-2.51.48,8.26,8.26,0,0,1-2.22-.3,5.33,5.33,0,0,1-1.81-.85l1.12-1.91A4.31,4.31,0,0,0,293,105a5.28,5.28,0,0,0,1.63.25,2.64,2.64,0,0,0,1.5-.37,1.3,1.3,0,0,0,.62-1,1.09,1.09,0,0,0-.49-1,3.8,3.8,0,0,0-1.92-.35h-2.75l1-6.06h6.57l-.15,2h-4.49l-.31,2.05h.88A4.92,4.92,0,0,1,298.34,101.3Z" style="fill:#fafafa"></path><path d="M302.29,106.64a4.08,4.08,0,0,1-1.5-1.91,6.73,6.73,0,0,1-.38-3,7.36,7.36,0,0,1,.8-3A5,5,0,0,1,303,96.83a4.62,4.62,0,0,1,2.43-.66,4.17,4.17,0,0,1,2.34.66,4.08,4.08,0,0,1,1.5,1.91,6.85,6.85,0,0,1,.38,3,7.21,7.21,0,0,1-.81,3,4.89,4.89,0,0,1-1.77,1.91,4.62,4.62,0,0,1-2.43.66A4.17,4.17,0,0,1,302.29,106.64Zm4.09-2.29a5,5,0,0,0,.75-2.62,4.59,4.59,0,0,0-.38-2.61,1.62,1.62,0,0,0-1.48-.85,1.9,1.9,0,0,0-1.59.85,5.06,5.06,0,0,0-.75,2.61,4.62,4.62,0,0,0,.38,2.62,1.61,1.61,0,0,0,1.47.85A1.92,1.92,0,0,0,306.38,104.35Z" style="fill:#fafafa"></path><path d="M311.44,101.36a2.86,2.86,0,0,1-.59-2.16,3.22,3.22,0,0,1,.9-2.16,2.66,2.66,0,0,1,2-.81,2.31,2.31,0,0,1,1.87.81,2.89,2.89,0,0,1,.58,2.16,3.28,3.28,0,0,1-.89,2.16,2.66,2.66,0,0,1-2,.81A2.32,2.32,0,0,1,311.44,101.36Zm2.82-.89a2.33,2.33,0,0,0,.39-1.27,2.15,2.15,0,0,0-.21-1.28.88.88,0,0,0-.79-.43,1,1,0,0,0-.85.44,2.27,2.27,0,0,0-.4,1.27,2.08,2.08,0,0,0,.22,1.27.86.86,0,0,0,.78.43A1,1,0,0,0,314.26,100.47Zm5.88-4.12H322l-8.12,10.77H312Zm-1.23,10.53a2.18,2.18,0,0,1-.87-1,3.28,3.28,0,0,1-.23-1.57,3.64,3.64,0,0,1,.45-1.57,2.73,2.73,0,0,1,1-1,2.79,2.79,0,0,1,1.4-.37,2.32,2.32,0,0,1,1.87.81,2.9,2.9,0,0,1,.6,2.16,3.32,3.32,0,0,1-.9,2.16,2.7,2.7,0,0,1-2,.81A2.52,2.52,0,0,1,318.91,106.88Zm2.29-1.34a2.36,2.36,0,0,0,.39-1.27,2.16,2.16,0,0,0-.21-1.27.87.87,0,0,0-.79-.43,1,1,0,0,0-.85.43,2.33,2.33,0,0,0-.39,1.27,2.15,2.15,0,0,0,.21,1.28.89.89,0,0,0,.79.43A1,1,0,0,0,321.2,105.54Z" style="fill:#fafafa"></path><path d="M292.88,122.47a4.9,4.9,0,0,1-2-2,5.22,5.22,0,0,1-.55-2.85,5.71,5.71,0,0,1,1-2.86,6,6,0,0,1,2.25-2,6.58,6.58,0,0,1,3.07-.72,5.93,5.93,0,0,1,3,.72,4.9,4.9,0,0,1,2,2,5.24,5.24,0,0,1,.57,2.86,5.82,5.82,0,0,1-1,2.85,6.17,6.17,0,0,1-2.25,2,6.58,6.58,0,0,1-3.07.72A6,6,0,0,1,292.88,122.47Zm4.88-1.84a3.51,3.51,0,0,0,1.29-1.22,3.7,3.7,0,0,0,.56-1.78,3.4,3.4,0,0,0-.31-1.79,2.81,2.81,0,0,0-1.12-1.22,3.25,3.25,0,0,0-1.69-.44,3.58,3.58,0,0,0-1.75.44,3.46,3.46,0,0,0-1.3,1.22,3.85,3.85,0,0,0-.56,1.79,3.36,3.36,0,0,0,.31,1.78,2.81,2.81,0,0,0,1.12,1.22,3.18,3.18,0,0,0,1.69.44A3.54,3.54,0,0,0,297.76,120.63Z" style="fill:#fafafa"></path><path d="M306.74,114.24l-.2,2.85h5l-.15,2h-5l-.28,3.92h-2.49l.76-10.77h8.14l-.14,2Z" style="fill:#fafafa"></path><path d="M316.57,114.24l-.2,2.85h5l-.14,2h-5L316,123h-2.49l.76-10.77h8.14l-.14,2Z" style="fill:#fafafa"></path><circle cx="122.61" cy="179.36" r="14.52" transform="translate(-80.12 257.49) rotate(-76.72)" style="fill:#ebebeb"></circle><circle cx="122.61" cy="179.36" r="12.44" transform="translate(-80.12 257.49) rotate(-76.72)" style="fill:#e0e0e0;isolation:isolate"></circle><path d="M123.41,185.36v1.88H122v-1.86a7.31,7.31,0,0,1-4.11-1.4l.75-1.7a6.45,6.45,0,0,0,3.36,1.28V180.2c-1.86-.45-3.86-1.06-3.86-3.39,0-1.72,1.24-3.21,3.86-3.47v-1.9h1.38v1.87a7.16,7.16,0,0,1,3.41,1l-.68,1.69a7,7,0,0,0-2.73-.9v3.39c1.87.45,3.9,1,3.9,3.38C127.31,183.61,126.05,185.09,123.41,185.36ZM122,178.17v-3c-1.19.18-1.69.79-1.69,1.52S121.06,177.88,122,178.17Zm3.13,3.88c0-.82-.74-1.21-1.75-1.5v3C124.64,183.34,125.16,182.77,125.16,182.05Z" style="fill:#fafafa"></path><path d="M137.3,89.33l-1.2-2.57c-13,.6-14.95-4.33-15.22-5.9-.5-2.92,1.9-5.57,5.35-5.92,4.76-.49,8.34,3.81,10.22,6.65,2.21-3,6.78-5.44,10.38-5.44h0a5.58,5.58,0,0,1,5.72,3.93,4.15,4.15,0,0,1-.57,4.23c-2.75,3.43-11.59,2.76-14.26,2.49Zm1.1-5.22c4,.35,9.77.09,11.24-1.74.23-.29.47-.59.16-1.53a2.43,2.43,0,0,0-2.71-1.77h0C143.9,79.07,139.65,81.78,138.4,84.11Zm-11.17-6.29-.45,0c-2,.2-3.21,1.63-3,2.77.22,1.29,2.82,3.47,10.9,3.27C133.5,81.86,130.71,77.82,127.23,77.82Z" style="fill:#e0e0e0"></path><polygon points="165.27 124.29 108.41 124.29 108.41 85.23 165.09 85.23 165.27 124.29" style="fill:#f5f5f5"></polygon><polygon points="150.74 85.23 146.12 85.23 146.31 124.29 150.93 124.29 150.74 85.23" style="fill:#e0e0e0"></polygon><polygon points="131.09 124.29 108.49 124.29 108.49 85.23 130.9 85.23 131.09 124.29" style="fill:#ebebeb;isolation:isolate"></polygon><polygon points="119.79 124.29 116.4 124.29 116.21 85.23 119.61 85.23 119.79 124.29" style="fill:#e0e0e0"></polygon><path d="M106.63,334.25l-3.37,11.41h-1.92s-.66-10.12-1.54-10.06c-.58,0-7.57,3.16-9.85,7.35-1.47,2.71-7,2.71-7,2.71H63.81c.58-3.9,9.82-6.26,10.11-6.34h0s10.38-5.93,13.9-10.51,8.81-13.63,13.22-10.1a5.32,5.32,0,0,1,.69.66C105.58,323.53,106.63,334.25,106.63,334.25Z" style="fill:#ebebeb"></path><path d="M101.74,319.37a4.44,4.44,0,0,1-2.16,1.39c-4.18,1.52-5.14,8-9.33,13.52-3.67,4.85-11.85,5.72-15.9,5.11l-.42-.07s10.38-5.93,13.9-10.51,8.81-13.63,13.22-10.1A5.32,5.32,0,0,1,101.74,319.37Z" style="fill:#e0e0e0;isolation:isolate"></path><path d="M117.92,334.25l-3.38,11.41h-1.92s-.65-10.12-1.53-10.06c-.58,0-7.58,3.16-9.85,7.35-1.47,2.71-7,2.71-7,2.71H75.09c.58-3.9,9.83-6.26,10.12-6.34h0s10.37-5.93,13.89-10.51,8.81-13.63,13.23-10.1a6.05,6.05,0,0,1,.69.66C116.87,323.53,117.92,334.25,117.92,334.25Z" style="fill:#f5f5f5"></path><path d="M113,319.37a4.48,4.48,0,0,1-2.17,1.39c-4.17,1.52-5.13,8-9.32,13.52-3.68,4.85-11.85,5.72-15.91,5.11l-.41-.07s10.37-5.93,13.89-10.51,8.81-13.63,13.23-10.1A6.05,6.05,0,0,1,113,319.37Z" style="fill:#e6e6e6;isolation:isolate"></path><path d="M378.46,182.9c9.28.38,15.9,1.32,18.23,3.15l-11.93-43.88H383Z" style="fill:#e0e0e0"></path><polygon points="384.76 142.17 428.86 142.17 435.16 184.47 396.69 186.05 384.76 142.17" style="fill:#ebebeb"></polygon><path d="M378.46,182.9c10.46.51,16.73,1.54,18.23,3.15l-.22-.78c-3.49-2.64-8.36-3-13.73-2.44l2-40.66H383Z" style="fill:#ebebeb"></path><path d="M390.46,142.17c1.13-15.52,27-16.2,28.58,0H422c-4.27-18.67-31.27-18.45-34.09,0Z" style="fill:#f0f0f0"></path><path d="M384.76,142.17h44.1c2.19,14.67-3.1,21.83-8.38,21.94C409.51,164.71,392.67,153.84,384.76,142.17Z" style="fill:#e0e0e0"></path><polygon points="421.86 160.15 414.85 160.85 414.35 158.71 421.18 158.26 421.86 160.15" style="fill:#fafafa;opacity:0.7000000000000001"></polygon><polygon points="414.72 161.04 421.86 160.34 421.86 160.15 414.85 160.85 414.35 158.71 414.72 161.04" style="fill:#e0e0e0;opacity:0.2"></polygon><polygon points="97.59 268.29 97.59 221.44 94.62 221.44 94.62 268.29 84.81 270.27 84.81 272.24 107.41 272.24 107.41 270.27 97.59 268.29" style="fill:#e0e0e0"></polygon><path d="M84.91,228.27c5.91-7.88,5-11.92.59-17.83a12,12,0,0,1-2-11.53l10.15-1.2V193.8h4.81v3.91l10.15,1.2a12,12,0,0,1-2,11.53c-4.43,5.91-5.32,9.95.59,17.83s-.88,27-.88,27H85.8S79,236.16,84.91,228.27Z" style="fill:#e6e6e6"></path><path d="M110,236c-.6-8.68-6-10.7-6.46-17-.27-3.63,2.29-6.44,3.19-8.47a18.07,18.07,0,0,1-1.48-12.48l-3.82-.49s-1,7.69-5.29,8.1c-4.32-.41-5.3-8.1-5.3-8.1l-3.81.49a18,18,0,0,1-1.49,12.48c.91,2,3.47,4.84,3.19,8.47-.47,6.29-5.86,8.31-6.45,17C81.51,246.72,85.16,258,85.16,258l10.6.52v0h.7v0l10.6-.52S110.71,246.72,110,236Z" style="fill:#f5f5f5"></path><path d="M412.39,319.32a21.05,21.05,0,1,1,21.05-21.05A21.07,21.07,0,0,1,412.39,319.32Zm0-35.3a14.25,14.25,0,1,0,14.25,14.25A14.26,14.26,0,0,0,412.39,284Z" style="fill:#f0f0f0"></path><polygon points="402.11 263.91 397.96 268.06 412.39 282.49 426.81 268.06 422.67 263.91 402.11 263.91" style="fill:#e0e0e0"></polygon><polygon points="407.61 263.91 405.68 268.06 412.39 282.49 419.1 268.06 417.17 263.91 407.61 263.91" style="fill:#ebebeb;isolation:isolate"></polygon></g><g id="freepik--Shadow--inject-3"><ellipse id="freepik--path--inject-3" cx="250" cy="416.24" rx="193.89" ry="11.32" style="fill:#f5f5f5"></ellipse></g><g id="freepik--Device--inject-3"><rect x="228.89" y="321.17" width="48.6" height="96.6" style="fill:#263238"></rect><rect x="228.89" y="352.26" width="48.6" height="14.9" style="opacity:0.2"></rect><rect x="196.08" y="411.27" width="114.2" height="6.65" style="fill:#263238"></rect><rect x="196.08" y="411.27" width="114.2" height="6.65" style="opacity:0.2"></rect><rect x="104.56" y="157.29" width="297.26" height="205.39" rx="10.68" style="fill:#263238"></rect><rect x="104.56" y="157.29" width="297.26" height="205.39" rx="10.68" style="fill:#fff;opacity:0.5"></rect><rect x="109.62" y="164.04" width="286.12" height="176.99" style="fill:#263238"></rect><circle cx="253.19" cy="352.26" r="7.72" transform="translate(-147.82 517.74) rotate(-76.72)" style="fill:#e0e0e0"></circle><rect x="114.74" y="167.21" width="275.88" height="170.65" style="fill:#fff;opacity:0.7000000000000001"></rect><rect x="114.74" y="167.21" width="275.88" height="168.43" style="fill:#A96FFF"></rect><g style="opacity:0.9"><rect x="114.74" y="167.21" width="275.88" height="170.65" style="fill:#fff"></rect></g><rect x="202.97" y="219.53" width="187.64" height="65.47" style="fill:#A96FFF"></rect><g style="opacity:0.4"><rect x="202.97" y="219.53" width="187.64" height="65.47" style="fill:#fff"></rect></g><rect x="142.86" y="219.53" width="60.11" height="65.47" style="fill:#A96FFF"></rect><g style="opacity:0.7000000000000001"><rect x="142.86" y="219.53" width="60.11" height="65.47" style="fill:#fff"></rect></g><rect x="114.74" y="219.53" width="28.12" height="65.47" style="fill:#A96FFF"></rect><g style="opacity:0.6000000000000001"><rect x="114.74" y="219.53" width="28.12" height="65.47" style="fill:#fff"></rect></g><rect x="167.72" y="203.48" width="158.92" height="9.53" style="fill:#A96FFF"></rect><g style="opacity:0.8"><rect x="167.72" y="203.48" width="158.92" height="9.53" style="fill:#fff"></rect></g><rect x="326.64" y="203.48" width="10.32" height="9.53" style="fill:#A96FFF"></rect><g style="opacity:0.5"><rect x="326.64" y="203.48" width="10.32" height="9.53" style="fill:#fff"></rect></g><rect x="114.74" y="167.21" width="275.88" height="10.77" style="fill:#A96FFF"></rect><path d="M364.22,172.59a3.09,3.09,0,1,1-3.09-3.08A3.09,3.09,0,0,1,364.22,172.59Z" style="fill:#fff"></path><path d="M376.08,172.59a3.09,3.09,0,1,1-3.09-3.08A3.09,3.09,0,0,1,376.08,172.59Z" style="fill:#fff"></path><path d="M387.94,172.59a3.09,3.09,0,1,1-3.09-3.08A3.09,3.09,0,0,1,387.94,172.59Z" style="fill:#fff"></path><path d="M123.65,212.21a5.22,5.22,0,0,1-1.55-.6l.87-2a5.46,5.46,0,0,0,1.28.53,4.77,4.77,0,0,0,1.36.2,2.17,2.17,0,0,0,.8-.1.37.37,0,0,0,.24-.33c0-.17-.1-.29-.31-.38a7.67,7.67,0,0,0-1-.27,11.31,11.31,0,0,1-1.54-.42,2.65,2.65,0,0,1-1.08-.74,2,2,0,0,1-.46-1.38,2.32,2.32,0,0,1,.43-1.37,2.74,2.74,0,0,1,1.26-1,5.19,5.19,0,0,1,2-.36,7.31,7.31,0,0,1,1.62.18,5.15,5.15,0,0,1,1.4.52l-.81,2a5,5,0,0,0-2.24-.6c-.69,0-1,.17-1,.51,0,.16.1.28.31.36a8,8,0,0,0,1,.26,10,10,0,0,1,1.55.39,2.66,2.66,0,0,1,1.09.73,1.93,1.93,0,0,1,.46,1.37,2.36,2.36,0,0,1-.42,1.37,2.93,2.93,0,0,1-1.27,1,5.17,5.17,0,0,1-2,.36A8.31,8.31,0,0,1,123.65,212.21Z" style="fill:#263238"></path><path d="M131.75,206.33H129.4v-2.1h7.4v2.1h-2.35v5.92h-2.7Z" style="fill:#263238"></path><path d="M139.27,211.9a4.2,4.2,0,0,1-1.62-5.82,4.09,4.09,0,0,1,1.62-1.49,4.9,4.9,0,0,1,2.32-.54,5,5,0,0,1,2.33.54,4.13,4.13,0,0,1,1.61,1.49,4.07,4.07,0,0,1,.59,2.16,4,4,0,0,1-.59,2.16,4.08,4.08,0,0,1-1.61,1.5,5,5,0,0,1-2.33.54A4.9,4.9,0,0,1,139.27,211.9Zm3.23-1.9a1.7,1.7,0,0,0,.65-.7,2.21,2.21,0,0,0,.24-1.06,2.27,2.27,0,0,0-.24-1.06,1.73,1.73,0,0,0-.65-.69,1.78,1.78,0,0,0-1.82,0,1.73,1.73,0,0,0-.65.69,2.27,2.27,0,0,0-.24,1.06,2.21,2.21,0,0,0,.24,1.06,1.7,1.7,0,0,0,.65.7,1.78,1.78,0,0,0,1.82,0Z" style="fill:#263238"></path><path d="M150.54,210.24h-.74v2h-2.7v-8H151a4.83,4.83,0,0,1,1.94.37,2.94,2.94,0,0,1,1.27,1.05,2.88,2.88,0,0,1,.44,1.61,2.84,2.84,0,0,1-.39,1.5,2.65,2.65,0,0,1-1.12,1l1.69,2.47H151.9Zm1.07-3.67a1.17,1.17,0,0,0-.82-.25h-1v1.88h1a1.17,1.17,0,0,0,.82-.25,1,1,0,0,0,0-1.38Z" style="fill:#263238"></path><path d="M162.3,210.21v2h-6.67v-8h6.52v2h-3.86v.94h3.39v1.95h-3.39v1.05Z" style="fill:#263238"></path><path d="M350.79,213a1.38,1.38,0,1,1-1.38-1.38A1.37,1.37,0,0,1,350.79,213Z" style="fill:#263238"></path><circle cx="358" cy="213" r="1.38" style="fill:#263238"></circle><path d="M348.26,203.26l-.93-3h-3.48v.94h2.78l2.61,8.49h9.15l.8-5.62Zm9.41,5.78-7.79-.08-1.47-5,9.89.73Z" style="fill:#263238"></path><path d="M246.74,277.11a2.76,2.76,0,1,1-2.75-2.75A2.75,2.75,0,0,1,246.74,277.11Z" style="fill:#A96FFF"></path><path d="M246.74,277.11a2.76,2.76,0,1,1-2.75-2.75A2.75,2.75,0,0,1,246.74,277.11Z" style="fill:#fff;opacity:0.9"></path><path d="M254.78,277.11a2.76,2.76,0,1,1-2.76-2.75A2.75,2.75,0,0,1,254.78,277.11Z" style="fill:#A96FFF"></path><path d="M254.78,277.11a2.76,2.76,0,1,1-2.76-2.75A2.75,2.75,0,0,1,254.78,277.11Z" style="fill:#fff;opacity:0.9"></path><path d="M262.88,277.26a2.76,2.76,0,1,1-2.76-2.75A2.76,2.76,0,0,1,262.88,277.26Z" style="fill:#A96FFF"></path><path d="M262.88,277.26a2.76,2.76,0,1,1-2.76-2.75A2.76,2.76,0,0,1,262.88,277.26Z" style="fill:#fff;opacity:0.9"></path><path d="M271,277.26a2.76,2.76,0,1,1-2.76-2.75A2.77,2.77,0,0,1,271,277.26Z" style="fill:#A96FFF"></path><path d="M271,277.26a2.76,2.76,0,1,1-2.76-2.75A2.77,2.77,0,0,1,271,277.26Z" style="fill:#fff;opacity:0.9"></path><path d="M279.08,277.26a2.76,2.76,0,1,1-2.76-2.75A2.77,2.77,0,0,1,279.08,277.26Z" style="fill:#A96FFF"></path><path d="M279.08,277.26a2.76,2.76,0,1,1-2.76-2.75A2.77,2.77,0,0,1,279.08,277.26Z" style="fill:#fff;opacity:0.5"></path><path d="M287.18,277.26a2.76,2.76,0,1,1-2.76-2.75A2.77,2.77,0,0,1,287.18,277.26Z" style="fill:#A96FFF"></path><path d="M287.18,277.26a2.76,2.76,0,1,1-2.76-2.75A2.77,2.77,0,0,1,287.18,277.26Z" style="fill:#fff;opacity:0.9"></path><path d="M295.28,277.26a2.76,2.76,0,1,1-2.76-2.75A2.77,2.77,0,0,1,295.28,277.26Z" style="fill:#A96FFF"></path><path d="M295.28,277.26a2.76,2.76,0,1,1-2.76-2.75A2.77,2.77,0,0,1,295.28,277.26Z" style="fill:#fff;opacity:0.9"></path><path d="M303.37,277.26a2.76,2.76,0,1,1-2.75-2.75A2.76,2.76,0,0,1,303.37,277.26Z" style="fill:#A96FFF"></path><path d="M303.37,277.26a2.76,2.76,0,1,1-2.75-2.75A2.76,2.76,0,0,1,303.37,277.26Z" style="fill:#fff;opacity:0.9"></path><path d="M218.81,255.76a11.1,11.1,0,0,1-3.31-1.28l1.86-4.21a11.68,11.68,0,0,0,2.74,1.14,10.91,10.91,0,0,0,2.91.43,4.36,4.36,0,0,0,1.71-.24.73.73,0,0,0,.51-.69c0-.36-.22-.63-.67-.81a15.57,15.57,0,0,0-2.21-.59,23.75,23.75,0,0,1-3.3-.89,5.68,5.68,0,0,1-2.3-1.56,4.22,4.22,0,0,1-1-2.95,5.07,5.07,0,0,1,.9-2.93,6,6,0,0,1,2.71-2.08,11.09,11.09,0,0,1,4.36-.76,16,16,0,0,1,3.46.38,10.67,10.67,0,0,1,3,1.11L228.46,244a10.72,10.72,0,0,0-4.77-1.27q-2.22,0-2.22,1.08c0,.34.22.6.66.77a14.55,14.55,0,0,0,2.17.55,21.22,21.22,0,0,1,3.3.84,5.82,5.82,0,0,1,2.34,1.55,4.18,4.18,0,0,1,1,2.94,5,5,0,0,1-.91,2.92,6.12,6.12,0,0,1-2.7,2.08,11.12,11.12,0,0,1-4.36.77A17.91,17.91,0,0,1,218.81,255.76Z" style="fill:#263238"></path><path d="M244.3,252.86h-6.5l-1.15,3h-5.87l7.48-17.12h5.68l7.48,17.12h-6Zm-1.59-4.15-1.66-4.31-1.66,4.31Z" style="fill:#263238"></path><path d="M252.35,238.73h5.77v12.64h7.73v4.48h-13.5Z" style="fill:#263238"></path><path d="M281.67,251.5v4.35H267.43V238.73h13.92v4.35h-8.24v2h7.24v4.15h-7.24v2.26Z" style="fill:#263238"></path><rect x="114.74" y="177.98" width="275.88" height="20.48" style="fill:#A96FFF"></rect><g style="opacity:0.7000000000000001"><rect x="114.74" y="177.98" width="275.88" height="20.48" style="fill:#fff"></rect></g><path d="M375.06,193.83H146.27a5.61,5.61,0,0,1-5.61-5.61h0a5.61,5.61,0,0,1,5.61-5.61H375.06a5.61,5.61,0,0,1,5.61,5.61h0A5.61,5.61,0,0,1,375.06,193.83Z" style="fill:#263238"></path><path d="M375.06,193.83H146.27a5.61,5.61,0,0,1-5.61-5.61h0a5.61,5.61,0,0,1,5.61-5.61H375.06a5.61,5.61,0,0,1,5.61,5.61h0A5.61,5.61,0,0,1,375.06,193.83Z" style="fill:#fff;opacity:0.7000000000000001"></path><polygon points="373.28 183.92 374.68 186.75 377.8 187.2 375.54 189.41 376.07 192.52 373.28 191.05 370.48 192.52 371.02 189.41 368.76 187.2 371.88 186.75 373.28 183.92" style="fill:#A96FFF"></polygon><rect x="145.87" y="186.03" width="103.86" height="4.66" rx="1.78" style="fill:#A96FFF"></rect><polygon points="129.34 182.34 123.16 188.52 124.97 188.52 124.97 194.09 133.71 194.09 133.71 188.52 135.51 188.52 129.34 182.34" style="fill:#A96FFF"></polygon><path d="M189.78,227.85H150.5a1.88,1.88,0,0,1-1.89-1.88h0a1.89,1.89,0,0,1,1.89-1.89h39.28a1.89,1.89,0,0,1,1.88,1.89h0A1.88,1.88,0,0,1,189.78,227.85Z" style="fill:#A96FFF"></path><path d="M189.78,235.39H150.5a1.88,1.88,0,0,1-1.89-1.88h0a1.88,1.88,0,0,1,1.89-1.89h39.28a1.88,1.88,0,0,1,1.88,1.89h0A1.88,1.88,0,0,1,189.78,235.39Z" style="fill:#A96FFF"></path><path d="M189.78,242.93H150.5a1.88,1.88,0,0,1-1.89-1.88h0a1.88,1.88,0,0,1,1.89-1.89h39.28a1.88,1.88,0,0,1,1.88,1.89h0A1.88,1.88,0,0,1,189.78,242.93Z" style="fill:#A96FFF"></path><path d="M189.78,250.47H150.5a1.89,1.89,0,0,1-1.89-1.89h0a1.88,1.88,0,0,1,1.89-1.88h39.28a1.88,1.88,0,0,1,1.88,1.88h0A1.89,1.89,0,0,1,189.78,250.47Z" style="fill:#A96FFF"></path><path d="M189.78,258H150.5a1.89,1.89,0,0,1-1.89-1.89h0a1.88,1.88,0,0,1,1.89-1.88h39.28a1.88,1.88,0,0,1,1.88,1.88h0A1.89,1.89,0,0,1,189.78,258Z" style="fill:#A96FFF"></path><path d="M189.78,265.55H150.5a1.89,1.89,0,0,1-1.89-1.89h0a1.88,1.88,0,0,1,1.89-1.88h39.28a1.88,1.88,0,0,1,1.88,1.88h0A1.89,1.89,0,0,1,189.78,265.55Z" style="fill:#A96FFF"></path><path d="M189.78,273.09H150.5a1.89,1.89,0,0,1-1.89-1.89h0a1.88,1.88,0,0,1,1.89-1.88h39.28a1.88,1.88,0,0,1,1.88,1.88h0A1.89,1.89,0,0,1,189.78,273.09Z" style="fill:#A96FFF"></path><path d="M189.78,280.63H150.5a1.89,1.89,0,0,1-1.89-1.89h0a1.88,1.88,0,0,1,1.89-1.88h39.28a1.88,1.88,0,0,1,1.88,1.88h0A1.89,1.89,0,0,1,189.78,280.63Z" style="fill:#A96FFF"></path><g style="opacity:0.5"><path d="M189.78,227.85H150.5a1.88,1.88,0,0,1-1.89-1.88h0a1.89,1.89,0,0,1,1.89-1.89h39.28a1.89,1.89,0,0,1,1.88,1.89h0A1.88,1.88,0,0,1,189.78,227.85Z" style="fill:#fff"></path><path d="M189.78,235.39H150.5a1.88,1.88,0,0,1-1.89-1.88h0a1.88,1.88,0,0,1,1.89-1.89h39.28a1.88,1.88,0,0,1,1.88,1.89h0A1.88,1.88,0,0,1,189.78,235.39Z" style="fill:#fff"></path><path d="M189.78,242.93H150.5a1.88,1.88,0,0,1-1.89-1.88h0a1.88,1.88,0,0,1,1.89-1.89h39.28a1.88,1.88,0,0,1,1.88,1.89h0A1.88,1.88,0,0,1,189.78,242.93Z" style="fill:#fff"></path><path d="M189.78,250.47H150.5a1.89,1.89,0,0,1-1.89-1.89h0a1.88,1.88,0,0,1,1.89-1.88h39.28a1.88,1.88,0,0,1,1.88,1.88h0A1.89,1.89,0,0,1,189.78,250.47Z" style="fill:#fff"></path><path d="M189.78,258H150.5a1.89,1.89,0,0,1-1.89-1.89h0a1.88,1.88,0,0,1,1.89-1.88h39.28a1.88,1.88,0,0,1,1.88,1.88h0A1.89,1.89,0,0,1,189.78,258Z" style="fill:#fff"></path><path d="M189.78,265.55H150.5a1.89,1.89,0,0,1-1.89-1.89h0a1.88,1.88,0,0,1,1.89-1.88h39.28a1.88,1.88,0,0,1,1.88,1.88h0A1.89,1.89,0,0,1,189.78,265.55Z" style="fill:#fff"></path><path d="M189.78,273.09H150.5a1.89,1.89,0,0,1-1.89-1.89h0a1.88,1.88,0,0,1,1.89-1.88h39.28a1.88,1.88,0,0,1,1.88,1.88h0A1.89,1.89,0,0,1,189.78,273.09Z" style="fill:#fff"></path><path d="M189.78,280.63H150.5a1.89,1.89,0,0,1-1.89-1.89h0a1.88,1.88,0,0,1,1.89-1.88h39.28a1.88,1.88,0,0,1,1.88,1.88h0A1.89,1.89,0,0,1,189.78,280.63Z" style="fill:#fff"></path></g><rect x="120.72" y="291.16" width="127.95" height="40.62" style="fill:#A96FFF"></rect><g style="opacity:0.7000000000000001"><rect x="120.72" y="291.16" width="127.95" height="40.62" style="fill:#fff"></rect></g><rect x="127.56" y="294.96" width="22.24" height="22.24" style="fill:#A96FFF"></rect><rect x="128.55" y="318.95" width="20.04" height="1.56" style="fill:#A96FFF"></rect><rect x="128.55" y="318.95" width="20.04" height="1.56" style="fill:#fff;opacity:0.2"></rect><rect x="128.55" y="321.13" width="20.04" height="1.56" style="fill:#A96FFF"></rect><rect x="128.55" y="321.13" width="20.04" height="1.56" style="fill:#fff;opacity:0.2"></rect><rect x="128.55" y="326.63" width="9.76" height="1.56" style="fill:#A96FFF"></rect><rect x="128.55" y="326.63" width="9.76" height="1.56" style="fill:#fff;opacity:0.2"></rect><rect x="128.55" y="323.74" width="6.68" height="2.13" style="fill:#A96FFF"></rect><rect x="128.55" y="323.74" width="6.68" height="2.13" style="fill:#fff;opacity:0.2"></rect><rect x="218.89" y="294.96" width="22.24" height="22.24" style="fill:#A96FFF"></rect><rect x="219.89" y="318.95" width="20.04" height="1.56" style="fill:#A96FFF"></rect><rect x="219.89" y="318.95" width="20.04" height="1.56" style="fill:#fff;opacity:0.2"></rect><rect x="219.89" y="321.13" width="20.04" height="1.56" style="fill:#A96FFF"></rect><rect x="219.89" y="321.13" width="20.04" height="1.56" style="fill:#fff;opacity:0.2"></rect><rect x="219.89" y="326.63" width="9.76" height="1.56" style="fill:#A96FFF"></rect><rect x="219.89" y="326.63" width="9.76" height="1.56" style="fill:#fff;opacity:0.2"></rect><rect x="219.89" y="323.74" width="6.68" height="2.13" style="fill:#A96FFF"></rect><rect x="219.89" y="323.74" width="6.68" height="2.13" style="fill:#fff;opacity:0.2"></rect><rect x="159.01" y="294.96" width="22.24" height="22.24" style="fill:#A96FFF"></rect><rect x="160.01" y="318.95" width="20.04" height="1.56" style="fill:#A96FFF"></rect><rect x="160.01" y="318.95" width="20.04" height="1.56" style="fill:#fff;opacity:0.2"></rect><rect x="160.01" y="321.13" width="20.04" height="1.56" style="fill:#A96FFF"></rect><rect x="160.01" y="321.13" width="20.04" height="1.56" style="fill:#fff;opacity:0.2"></rect><rect x="160.01" y="326.63" width="9.76" height="1.56" style="fill:#A96FFF"></rect><rect x="160.01" y="326.63" width="9.76" height="1.56" style="fill:#fff;opacity:0.2"></rect><rect x="160.01" y="323.74" width="6.68" height="2.13" style="fill:#A96FFF"></rect><rect x="160.01" y="323.74" width="6.68" height="2.13" style="fill:#fff;opacity:0.2"></rect><rect x="188.95" y="294.96" width="22.24" height="22.24" style="fill:#A96FFF"></rect><rect x="189.95" y="318.95" width="20.04" height="1.56" style="fill:#A96FFF"></rect><rect x="189.95" y="318.95" width="20.04" height="1.56" style="fill:#fff;opacity:0.2"></rect><rect x="189.95" y="321.13" width="20.04" height="1.56" style="fill:#A96FFF"></rect><rect x="189.95" y="321.13" width="20.04" height="1.56" style="fill:#fff;opacity:0.2"></rect><rect x="189.95" y="326.63" width="9.76" height="1.56" style="fill:#A96FFF"></rect><rect x="189.95" y="326.63" width="9.76" height="1.56" style="fill:#fff;opacity:0.2"></rect><rect x="189.95" y="323.74" width="6.68" height="2.13" style="fill:#A96FFF"></rect><rect x="189.95" y="323.74" width="6.68" height="2.13" style="fill:#fff;opacity:0.2"></rect><rect x="254.17" y="291.16" width="127.95" height="40.62" style="fill:#A96FFF"></rect><g style="opacity:0.7000000000000001"><rect x="254.17" y="291.16" width="127.95" height="40.62" style="fill:#fff"></rect></g><rect x="261.35" y="294.96" width="22.24" height="22.24" style="fill:#A96FFF"></rect><rect x="262.35" y="318.95" width="20.04" height="1.56" style="fill:#A96FFF"></rect><rect x="262.35" y="318.95" width="20.04" height="1.56" style="fill:#fff;opacity:0.2"></rect><rect x="262.35" y="321.13" width="20.04" height="1.56" style="fill:#A96FFF"></rect><rect x="262.35" y="321.13" width="20.04" height="1.56" style="fill:#fff;opacity:0.2"></rect><rect x="262.35" y="326.63" width="9.76" height="1.56" style="fill:#A96FFF"></rect><rect x="262.35" y="326.63" width="9.76" height="1.56" style="fill:#fff;opacity:0.2"></rect><rect x="262.35" y="323.74" width="6.68" height="2.13" style="fill:#A96FFF"></rect><rect x="262.35" y="323.74" width="6.68" height="2.13" style="fill:#fff;opacity:0.2"></rect><rect x="352.69" y="294.96" width="22.24" height="22.24" style="fill:#A96FFF"></rect><rect x="353.68" y="318.95" width="20.04" height="1.56" style="fill:#A96FFF"></rect><rect x="353.68" y="318.95" width="20.04" height="1.56" style="fill:#fff;opacity:0.2"></rect><rect x="353.68" y="321.13" width="20.04" height="1.56" style="fill:#A96FFF"></rect><rect x="353.68" y="321.13" width="20.04" height="1.56" style="fill:#fff;opacity:0.2"></rect><rect x="353.68" y="326.63" width="9.76" height="1.56" style="fill:#A96FFF"></rect><rect x="353.68" y="326.63" width="9.76" height="1.56" style="fill:#fff;opacity:0.2"></rect><rect x="353.68" y="323.74" width="6.68" height="2.13" style="fill:#A96FFF"></rect><rect x="353.68" y="323.74" width="6.68" height="2.13" style="fill:#fff;opacity:0.2"></rect><rect x="292.81" y="294.96" width="22.24" height="22.24" style="fill:#A96FFF"></rect><rect x="293.81" y="318.95" width="20.04" height="1.56" style="fill:#A96FFF"></rect><rect x="293.81" y="318.95" width="20.04" height="1.56" style="fill:#fff;opacity:0.2"></rect><rect x="293.81" y="321.13" width="20.04" height="1.56" style="fill:#A96FFF"></rect><rect x="293.81" y="321.13" width="20.04" height="1.56" style="fill:#fff;opacity:0.2"></rect><rect x="293.81" y="326.63" width="9.76" height="1.56" style="fill:#A96FFF"></rect><rect x="293.81" y="326.63" width="9.76" height="1.56" style="fill:#fff;opacity:0.2"></rect><rect x="293.81" y="323.74" width="6.68" height="2.13" style="fill:#A96FFF"></rect><rect x="293.81" y="323.74" width="6.68" height="2.13" style="fill:#fff;opacity:0.2"></rect><rect x="322.75" y="294.96" width="22.24" height="22.24" style="fill:#A96FFF"></rect><rect x="323.74" y="318.95" width="20.04" height="1.56" style="fill:#A96FFF"></rect><rect x="323.74" y="318.95" width="20.04" height="1.56" style="fill:#fff;opacity:0.2"></rect><rect x="323.74" y="321.13" width="20.04" height="1.56" style="fill:#A96FFF"></rect><rect x="323.74" y="321.13" width="20.04" height="1.56" style="fill:#fff;opacity:0.2"></rect><rect x="323.74" y="326.63" width="9.76" height="1.56" style="fill:#A96FFF"></rect><rect x="323.74" y="326.63" width="9.76" height="1.56" style="fill:#fff;opacity:0.2"></rect><rect x="323.74" y="323.74" width="6.68" height="2.13" style="fill:#A96FFF"></rect><rect x="323.74" y="323.74" width="6.68" height="2.13" style="fill:#fff;opacity:0.2"></rect><ellipse cx="340.95" cy="268.57" rx="40.46" ry="5.35" style="fill:#A96FFF"></ellipse><ellipse cx="340.95" cy="268.57" rx="40.46" ry="5.35" style="opacity:0.1"></ellipse><path d="M345,266.4l-4.33-9.58H330.57l1.55,9a.8.8,0,0,1-.8.95H326.9a.43.43,0,0,0-.43.43v.48a.43.43,0,0,0,.43.43h17.8a.46.46,0,0,0,.46-.47v-.49A1.79,1.79,0,0,0,345,266.4Z" style="fill:#A96FFF"></path><path d="M331.49,266.73H326.9a.43.43,0,0,0-.43.43v.48a.43.43,0,0,0,.43.43h17.8a.47.47,0,0,0,.47-.47v-.49a1.6,1.6,0,0,0-.05-.39Z" style="fill:#fff;opacity:0.2"></path><path d="M345.58,266.4l-4.33-9.58h-.57L345,266.4a1.79,1.79,0,0,1,.15.72v.49a.46.46,0,0,1-.46.47h.57a.47.47,0,0,0,.47-.47v-.49A1.8,1.8,0,0,0,345.58,266.4Z" style="fill:#A96FFF"></path><g style="opacity:0.2"><path d="M345.58,266.4l-4.33-9.58h-.57L345,266.4a1.79,1.79,0,0,1,.15.72v.49a.46.46,0,0,1-.46.47h.57a.47.47,0,0,0,.47-.47v-.49A1.8,1.8,0,0,0,345.58,266.4Z"></path></g><polygon points="340.68 256.82 330.57 256.82 330.97 259.11 341.72 259.11 340.68 256.82" style="opacity:0.2"></polygon><path d="M356.17,257.83H313a1.43,1.43,0,0,1-1.44-1.58l2.73-31.17A1.75,1.75,0,0,1,316,223.5h43.15a1.42,1.42,0,0,1,1.43,1.58l-2.72,31.17A1.77,1.77,0,0,1,356.17,257.83Z" style="fill:#263238"></path><path d="M311.89,252.88l-.3,3.37a1.43,1.43,0,0,0,1.44,1.58h43.14a1.77,1.77,0,0,0,1.72-1.58l.29-3.37Z" style="fill:#A96FFF"></path><path d="M356.66,251.93H313.58a.77.77,0,0,1-.78-.86l2.25-25.76a1,1,0,0,1,.93-.86h43.08a.76.76,0,0,1,.78.86l-2.25,25.76A1,1,0,0,1,356.66,251.93Z" style="fill:#A96FFF"></path><path d="M356.66,251.93H313.58a.77.77,0,0,1-.78-.86l2.25-25.76a1,1,0,0,1,.93-.86h43.08a.76.76,0,0,1,.78.86l-2.25,25.76A1,1,0,0,1,356.66,251.93Z" style="fill:#A96FFF"></path><path d="M360.13,223.5h-.95a1.42,1.42,0,0,1,1.43,1.58l-2.72,31.17a1.77,1.77,0,0,1-1.72,1.58h1a1.76,1.76,0,0,0,1.71-1.58l2.73-31.17A1.43,1.43,0,0,0,360.13,223.5Z" style="fill:#A96FFF"></path><path d="M360.13,223.5h-.95a1.42,1.42,0,0,1,1.43,1.58l-2.72,31.17a1.77,1.77,0,0,1-1.72,1.58h1a1.76,1.76,0,0,0,1.71-1.58l2.73-31.17A1.43,1.43,0,0,0,360.13,223.5Z" style="fill:#A96FFF;opacity:0.2"></path><g style="opacity:0.30000000000000004"><polygon points="358.49 224.45 356.83 224.45 350.99 251.93 352.64 251.93 358.49 224.45" style="fill:#fff"></polygon><polygon points="349.31 251.93 355.15 224.45 348.93 224.45 343.09 251.93 349.31 251.93" style="fill:#fff"></polygon></g><path d="M311.89,252.88l-.3,3.37a1.43,1.43,0,0,0,1.44,1.58h43.14a1.77,1.77,0,0,0,1.72-1.58l.29-3.37Z" style="fill:#fff;opacity:0.6000000000000001"></path><path d="M360.13,223.53h-.95a1.42,1.42,0,0,1,1.43,1.58l-2.72,31.17a1.77,1.77,0,0,1-1.72,1.58h1a1.76,1.76,0,0,0,1.71-1.58l2.73-31.17A1.43,1.43,0,0,0,360.13,223.53Z" style="fill:#fff;opacity:0.2"></path><path d="M338.32,266.57h26.43a1.22,1.22,0,0,0,1.23-1.35l-1.65-18.86a1.5,1.5,0,0,0-1.47-1.34H336.43a1.22,1.22,0,0,0-1.23,1.34l1.65,18.86A1.5,1.5,0,0,0,338.32,266.57Z" style="fill:#263238"></path><path d="M338.32,266.57h26.43a1.22,1.22,0,0,0,1.23-1.35l-1.65-18.86a1.5,1.5,0,0,0-1.47-1.34H336.43a1.22,1.22,0,0,0-1.23,1.34l1.65,18.86A1.5,1.5,0,0,0,338.32,266.57Z" style="fill:#fff;opacity:0.4"></path><path d="M338.8,266.57h26.43a1.22,1.22,0,0,0,1.23-1.35l-1.65-18.86a1.5,1.5,0,0,0-1.47-1.34H336.91a1.22,1.22,0,0,0-1.23,1.34l1.65,18.86A1.5,1.5,0,0,0,338.8,266.57Z" style="fill:#263238"></path><path d="M338.8,266.57h26.43a1.22,1.22,0,0,0,1.23-1.35l-1.65-18.86a1.5,1.5,0,0,0-1.47-1.34H336.91a1.22,1.22,0,0,0-1.23,1.34l1.65,18.86A1.5,1.5,0,0,0,338.8,266.57Z" style="fill:#fff;opacity:0.7000000000000001"></path><polygon points="338.4 265.23 365.39 265.23 363.74 246.36 336.75 246.36 338.4 265.23" style="fill:#A96FFF"></polygon><polygon points="338.4 265.23 365.39 265.23 363.74 246.36 336.75 246.36 338.4 265.23" style="fill:#fff;opacity:0.5"></polygon><path d="M339,268.37h27a2.15,2.15,0,0,0,2.16-2.16h-31.3A2.15,2.15,0,0,0,339,268.37Z" style="fill:#263238"></path><path d="M339,268.37h27a2.15,2.15,0,0,0,2.16-2.16h-31.3A2.15,2.15,0,0,0,339,268.37Z" style="fill:#fff;opacity:0.2"></path><path d="M341.16,268.37h27a2.16,2.16,0,0,0,2.16-2.16H339A2.16,2.16,0,0,0,341.16,268.37Z" style="fill:#263238"></path><path d="M341.16,268.37h27a2.16,2.16,0,0,0,2.16-2.16H339A2.16,2.16,0,0,0,341.16,268.37Z" style="fill:#fff;opacity:0.5"></path><path d="M357.46,266.21a1.25,1.25,0,0,1-1.09.63h-3.43a1.24,1.24,0,0,1-1.09-.63Z" style="opacity:0.30000000000000004"></path><path d="M328.93,244.41h-2.14l-2.16,24.66h2.14a2,2,0,0,0,2-1.8l1.84-21.06A1.62,1.62,0,0,0,328.93,244.41Z" style="fill:#263238"></path><path d="M326.33,269.07h-8.81a1.62,1.62,0,0,1-1.64-1.8l1.84-21.06a2,2,0,0,1,1.95-1.8h8.82a1.63,1.63,0,0,1,1.64,1.8l-1.85,21.06A2,2,0,0,1,326.33,269.07Z" style="fill:#A96FFF"></path><path d="M328.45,244.82h-2.29a.33.33,0,0,0-.32.26v.08a.82.82,0,0,1-.78.63h-2.18a.66.66,0,0,1-.67-.63v-.08a.27.27,0,0,0-.27-.26h-2.29a1.54,1.54,0,0,0-1.51,1.39l-1.84,21.06a1.25,1.25,0,0,0,1.26,1.39h8.82a1.54,1.54,0,0,0,1.5-1.39l1.84-21.06A1.24,1.24,0,0,0,328.45,244.82Z" style="fill:#A96FFF"></path><path d="M328.45,244.82h-2.29a.33.33,0,0,0-.32.26v.08a.82.82,0,0,1-.78.63h-2.18a.66.66,0,0,1-.67-.63v-.08a.27.27,0,0,0-.27-.26h-2.29a1.54,1.54,0,0,0-1.51,1.39l-1.84,21.06a1.25,1.25,0,0,0,1.26,1.39h8.82a1.54,1.54,0,0,0,1.5-1.39l1.84-21.06A1.24,1.24,0,0,0,328.45,244.82Z" style="fill:#fff;opacity:0.7000000000000001"></path><g style="opacity:0.2"><path d="M323.49,245.06a.19.19,0,0,1-.19.17.15.15,0,0,1-.16-.17.19.19,0,0,1,.19-.18A.16.16,0,0,1,323.49,245.06Z"></path><path d="M324.75,244.88h-.6a.19.19,0,0,0-.19.18.15.15,0,0,0,.16.17h.6a.2.2,0,0,0,.19-.17A.16.16,0,0,0,324.75,244.88Z"></path></g><polygon points="319.13 245.79 319.31 245.79 319.33 245.6 319.14 245.6 319.13 245.79" style="fill:#A96FFF"></polygon><polygon points="319.51 245.6 319.5 245.79 319.69 245.79 319.7 245.6 319.72 245.42 319.53 245.42 319.51 245.6" style="fill:#A96FFF"></polygon><polygon points="319.92 245.23 319.9 245.42 319.89 245.6 319.87 245.79 320.06 245.79 320.07 245.6 320.09 245.42 320.1 245.23 319.92 245.23" style="fill:#A96FFF"></polygon><path d="M327.89,245.24v.14h-.09l0,.27h.09v.14h.82l0-.55Zm.33.41h-.28l0-.27h.27Z" style="fill:#A96FFF"></path><g style="opacity:0.4"><path d="M322.88,245.79l-6.09,22.63a1.3,1.3,0,0,0,.76.24H318l6.15-22.87Z" style="fill:#fff"></path><path d="M328.45,244.82h-2.29a.33.33,0,0,0-.32.26v.08a.82.82,0,0,1-.75.63l-6.15,22.87h4.69L329.71,246A1.24,1.24,0,0,0,328.45,244.82Z" style="fill:#fff"></path></g></g><g id="freepik--Tab--inject-3"><g style="opacity:0.2"><rect x="197.63" y="122.82" width="145.29" height="87.07"></rect></g><rect x="193.54" y="118.2" width="145.29" height="87.07" style="fill:#A96FFF"></rect><g style="opacity:0.5"><rect x="193.54" y="118.2" width="145.29" height="87.07" style="fill:#fff"></rect></g><rect x="193.53" y="118.2" width="145.3" height="5.83" style="fill:#A96FFF"></rect><path d="M336.94,121.09a1.73,1.73,0,1,1-1.73-1.74A1.74,1.74,0,0,1,336.94,121.09Z" style="fill:#fff"></path><polygon points="241.46 136.93 250.96 126.19 255.91 140.72 269.97 136.65 267.16 151.08 282 154.76 272.18 165.22 283.83 175.69 269.63 179.37 274.97 193.8 260.2 189.72 257.79 204.26 246.41 193.51 236.9 204.26 231.95 189.72 217.89 193.8 220.7 179.37 205.86 175.69 215.68 165.22 204.03 154.76 218.23 151.08 212.89 136.65 227.66 140.72 230.07 126.19 241.46 136.93" style="fill:#f5f5f5"></polygon><path d="M214.94,166.7,235.3,189c10.38-16.39,31.93-6.54,37.29-25.93L251.88,141.5C250.52,157.93,222,153.7,214.94,166.7Z" style="fill:#A96FFF"></path><path d="M214.94,166.7,235.3,189c10.38-16.39,31.93-6.54,37.29-25.93L251.88,141.5C250.52,157.93,222,153.7,214.94,166.7Z" style="fill:#fff;opacity:0.4"></path><path d="M239.28,162.9a1.6,1.6,0,0,1,1.19.88,2.16,2.16,0,0,1,.27,1.05,2.24,2.24,0,0,1-.36,1.12,3.35,3.35,0,0,1-1.06,1,4.87,4.87,0,0,1-1.15.55,2.89,2.89,0,0,1-1.13.15l-.06-1.26a2.45,2.45,0,0,0,.88-.08,3.11,3.11,0,0,0,.85-.39,1.62,1.62,0,0,0,.61-.65.74.74,0,0,0,0-.68.62.62,0,0,0-.56-.35,2.1,2.1,0,0,0-1,.43l-1.32.86-1.42-3.2,3.14-2.06.56,1-2.15,1.41.49,1.07.42-.27A2.85,2.85,0,0,1,239.28,162.9Z" style="fill:#A96FFF"></path><path d="M242.83,164.22a2.29,2.29,0,0,1-1.31-.44,3.91,3.91,0,0,1-1.12-1.32,4.14,4.14,0,0,1-.55-1.68,2.86,2.86,0,0,1,.25-1.47,2.54,2.54,0,0,1,1-1.07,2.34,2.34,0,0,1,1.32-.42,2.24,2.24,0,0,1,1.32.45,3.76,3.76,0,0,1,1.11,1.31,4,4,0,0,1,.55,1.68,2.68,2.68,0,0,1-1.2,2.55A2.31,2.31,0,0,1,242.83,164.22Zm1.24-2.37a2.82,2.82,0,0,0-.46-1.49,2.64,2.64,0,0,0-1-1.13,1,1,0,0,0-1,.06,1.06,1.06,0,0,0-.49.9,2.82,2.82,0,0,0,.46,1.49,2.64,2.64,0,0,0,1,1.13.92.92,0,0,0,1-.06A1.05,1.05,0,0,0,244.07,161.85Z" style="fill:#A96FFF"></path><path d="M245.56,158.84a1.67,1.67,0,0,1-1-.85,1.93,1.93,0,0,1-.25-1.32,1.56,1.56,0,0,1,.7-1,1.31,1.31,0,0,1,1.15-.2,1.65,1.65,0,0,1,1,.85,1.86,1.86,0,0,1,.25,1.31,1.53,1.53,0,0,1-.69,1A1.37,1.37,0,0,1,245.56,158.84Zm1.07-1.31a1.47,1.47,0,0,0-.21-.73,1.26,1.26,0,0,0-.5-.54.49.49,0,0,0-.52,0,.56.56,0,0,0-.26.47,1.3,1.3,0,0,0,.2.73,1.21,1.21,0,0,0,.5.54.54.54,0,0,0,.52,0A.62.62,0,0,0,246.63,157.53Zm1.52-3.81.88-.57-.52,7.69-.87.57Zm2.71,5.42a1.24,1.24,0,0,1-.75-.22,1.89,1.89,0,0,1-.59-.68,2.05,2.05,0,0,1-.28-.89,1.61,1.61,0,0,1,.16-.82,1.72,1.72,0,0,1,.56-.61,1.37,1.37,0,0,1,1.15-.2,1.67,1.67,0,0,1,1,.85,1.87,1.87,0,0,1,.24,1.32,1.51,1.51,0,0,1-.69,1A1.4,1.4,0,0,1,250.86,159.14Zm.68-1.35a1.41,1.41,0,0,0-.21-.73,1.21,1.21,0,0,0-.5-.54.51.51,0,0,0-.52,0,.62.62,0,0,0-.27.47,1.29,1.29,0,0,0,.21.74,1.26,1.26,0,0,0,.5.54.49.49,0,0,0,.51,0A.59.59,0,0,0,251.54,157.79Z" style="fill:#A96FFF"></path><path d="M243.28,174.74a2.78,2.78,0,0,1-1.56-.34,3,3,0,0,1-1.16-1.19,3.35,3.35,0,0,1,0-3.32,3.78,3.78,0,0,1,1.24-1.31,3.46,3.46,0,0,1,1.65-.58,2.8,2.8,0,0,1,1.56.34,2.9,2.9,0,0,1,1.16,1.19,3.17,3.17,0,0,1,.43,1.66,3.47,3.47,0,0,1-.45,1.66,3.84,3.84,0,0,1-1.24,1.3A3.48,3.48,0,0,1,243.28,174.74Zm1.76-2.41a2,2,0,0,0,.23-1,2.19,2.19,0,0,0-.28-1,2,2,0,0,0-.71-.75,1.67,1.67,0,0,0-.92-.24,1.86,1.86,0,0,0-.94.32,2.07,2.07,0,0,0-.71.76,2,2,0,0,0-.23,1,2.16,2.16,0,0,0,.28,1,2.09,2.09,0,0,0,.71.76,1.66,1.66,0,0,0,.92.23,1.77,1.77,0,0,0,.94-.32A2.07,2.07,0,0,0,245,172.33Z" style="fill:#A96FFF"></path><path d="M247.34,166.47l.79,1.42,2.39-1.56.55,1-2.38,1.55,1.09,2-1.19.77-3-5.38,3.89-2.55.56,1Z" style="fill:#A96FFF"></path><path d="M252,163.4l.79,1.42,2.39-1.56.55,1-2.38,1.56,1.09,2-1.19.78-3-5.39,3.89-2.54.56,1Z" style="fill:#A96FFF"></path><path d="M291.27,158h-3.2l-.56,1.47h-2.88l3.67-8.4h2.79l3.67,8.4h-2.93Zm-.78-2-.82-2.11-.82,2.11Z" style="fill:#A96FFF"></path><path d="M302.33,150.51v8.91h-2.58v-.54a2.28,2.28,0,0,1-1.8.66,3.1,3.1,0,0,1-1.59-.42,2.93,2.93,0,0,1-1.15-1.19,4,4,0,0,1,0-3.6,3,3,0,0,1,1.15-1.18,3.1,3.1,0,0,1,1.59-.42,2.28,2.28,0,0,1,1.67.57v-2.79Zm-3,6.57a1.39,1.39,0,0,0,.3-1,1.37,1.37,0,0,0-.3-.95,1,1,0,0,0-1.54,0,1.37,1.37,0,0,0-.3.95,1.39,1.39,0,0,0,.3,1,1,1,0,0,0,1.54,0Z" style="fill:#A96FFF"></path><path d="M310.79,150.51v8.91h-2.58v-.54a2.28,2.28,0,0,1-1.8.66,3.1,3.1,0,0,1-1.59-.42,2.93,2.93,0,0,1-1.15-1.19,4,4,0,0,1,0-3.6,3,3,0,0,1,1.15-1.18,3.1,3.1,0,0,1,1.59-.42,2.28,2.28,0,0,1,1.67.57v-2.79Zm-3,6.57a1.39,1.39,0,0,0,.3-1,1.37,1.37,0,0,0-.3-.95,1,1,0,0,0-1.54,0,1.37,1.37,0,0,0-.3.95,1.39,1.39,0,0,0,.3,1,1,1,0,0,0,1.54,0Z" style="fill:#A96FFF"></path><path d="M275.64,173.45a4.12,4.12,0,0,1-1.67-1.56,4.55,4.55,0,0,1,0-4.55,4.12,4.12,0,0,1,1.67-1.56,5.12,5.12,0,0,1,2.4-.56,5.25,5.25,0,0,1,2.19.44,4,4,0,0,1,1.58,1.24L280,168.5a2.27,2.27,0,0,0-1.83-1,1.87,1.87,0,0,0-1.43.57,2.44,2.44,0,0,0,0,3.06,1.87,1.87,0,0,0,1.43.57,2.29,2.29,0,0,0,1.83-1l1.79,1.6a4.13,4.13,0,0,1-1.58,1.25A5.41,5.41,0,0,1,278,174,5.12,5.12,0,0,1,275.64,173.45Z" style="fill:#A96FFF"></path><path d="M283.87,173.5a3.34,3.34,0,0,1-1.36-1.21,3.35,3.35,0,0,1,0-3.52,3.27,3.27,0,0,1,1.36-1.21,4.7,4.7,0,0,1,3.93,0,3.23,3.23,0,0,1,1.85,3,3.23,3.23,0,0,1-1.85,3,4.61,4.61,0,0,1-3.93,0Zm2.73-2a1.65,1.65,0,0,0,0-1.9,1,1,0,0,0-1.54,0,1.65,1.65,0,0,0,0,1.9,1,1,0,0,0,1.54,0Z" style="fill:#A96FFF"></path><path d="M297.67,167.25v6.57h-2.58v-.63a2.26,2.26,0,0,1-.84.56,2.89,2.89,0,0,1-1,.19,2.68,2.68,0,0,1-2-.77,3.13,3.13,0,0,1-.76-2.29v-3.63h2.72v3.16a1.66,1.66,0,0,0,.21,1,.77.77,0,0,0,.64.29.84.84,0,0,0,.66-.32,1.6,1.6,0,0,0,.26-1v-3.09Z" style="fill:#A96FFF"></path><path d="M304.84,167.55a3,3,0,0,1,1.16,1.19,3.74,3.74,0,0,1,.42,1.8,3.67,3.67,0,0,1-.42,1.79,3,3,0,0,1-1.16,1.19,3.1,3.1,0,0,1-1.59.42,2.26,2.26,0,0,1-1.66-.57v2.77h-2.72v-8.89h2.58v.54a2.31,2.31,0,0,1,1.8-.66A3.1,3.1,0,0,1,304.84,167.55Zm-1.47,3.94a1.39,1.39,0,0,0,.3-1,1.37,1.37,0,0,0-.3-.95,1,1,0,0,0-1.53,0,1.37,1.37,0,0,0-.3.95,1.39,1.39,0,0,0,.3,1,1.05,1.05,0,0,0,1.53,0Z" style="fill:#A96FFF"></path><path d="M308.78,173.5a3.4,3.4,0,0,1-1.36-1.21,3.41,3.41,0,0,1,0-3.52,3.33,3.33,0,0,1,1.36-1.21,4.44,4.44,0,0,1,2-.43,4.5,4.5,0,0,1,2,.43,3.24,3.24,0,0,1,1.35,1.21,3.41,3.41,0,0,1,0,3.52,3.31,3.31,0,0,1-1.35,1.21,4.37,4.37,0,0,1-2,.44A4.31,4.31,0,0,1,308.78,173.5Zm2.73-2a1.65,1.65,0,0,0,0-1.9,1,1,0,0,0-1.54,0,1.65,1.65,0,0,0,0,1.9,1,1,0,0,0,1.54,0Z" style="fill:#A96FFF"></path><path d="M321.92,167.86a3,3,0,0,1,.74,2.21v3.75H320v-3.28c0-.75-.27-1.13-.81-1.13a1,1,0,0,0-.74.32,1.53,1.53,0,0,0-.28,1v3.09h-2.71v-6.57H318v.65a2.49,2.49,0,0,1,.89-.58,3.2,3.2,0,0,1,1.09-.19A2.67,2.67,0,0,1,321.92,167.86Z" style="fill:#A96FFF"></path></g><g id="freepik--Character--inject-3"><path d="M178,223.26c.57,1.71,13.82,3.81,7,14.74s-10.82,3.55-8.66,15.88-13.47,4.15-21.47,6.72c-14.36,4.62-20.11-16.24-8.85-17.45s13.74-1.8,12.42-10.64S174.14,211.39,178,223.26Z" style="fill:#263238"></path><path d="M181.69,258.44c0,1,0,1.8.08,2.68s.12,1.74.19,2.61c.16,1.73.42,3.45.7,5.16a56.21,56.21,0,0,0,2.69,10.16l.23.62c.08.22.12.35.31.78a5.06,5.06,0,0,0,1.59,2,5.43,5.43,0,0,0,2.13.94,7.71,7.71,0,0,0,1.86.14,12.37,12.37,0,0,0,3-.56,22.17,22.17,0,0,0,2.6-1,45.32,45.32,0,0,0,9-5.4l-1.56-2.45c-1.45.69-3,1.39-4.46,2a40.66,40.66,0,0,1-4.49,1.65,13.49,13.49,0,0,1-4.12.72c-.56,0-.87-.21-.77-.21s.07.06.07,0l-.29-1a66.16,66.16,0,0,1-2-9.35c-.23-1.59-.39-3.19-.55-4.8s-.24-3.25-.29-4.74Z" style="fill:#ffc3bd"></path><path d="M186.19,251.72c2.31.78,3.26,10.61,3.26,10.61l-6.83,3.95S177.1,256,179.1,253.56,182.81,250.6,186.19,251.72Z" style="fill:#A96FFF"></path><path d="M186.19,251.72c2.31.78,3.26,10.61,3.26,10.61l-6.83,3.95S177.1,256,179.1,253.56,182.81,250.6,186.19,251.72Z" style="fill:#fff;opacity:0.2"></path><path d="M185.81,253.88l1.11,9.92-.53.17a87.63,87.63,0,0,1-2,12.2,81.21,81.21,0,0,1-2.33-9.54Z" style="opacity:0.2"></path><path d="M203.2,274.83l4.19-5.62,1.58,5.62s-2.63,2.59-4.91,1.88Z" style="fill:#ffc3bd"></path><path d="M205,268.52h0a1.4,1.4,0,0,1,1,1.18l.34,2.74-1.81.85Z" style="fill:#ffc3bd"></path><polygon points="211.28 267.43 212.34 271.67 208.97 274.83 207.4 269.21 211.28 267.43" style="fill:#ffc3bd"></polygon><path d="M186.19,251.72s2.75,2.31-5.16,35.51c-9.48,0-19.6.06-24.46,0,1.07-9.43,2.62-18.11-.49-37.86a67.87,67.87,0,0,1,10-.58,73.83,73.83,0,0,1,10.56.76C181.12,250.3,186.19,251.72,186.19,251.72Z" style="fill:#A96FFF"></path><path d="M186.19,251.72s2.75,2.31-5.16,35.51c-10.93.07-18.32,0-24.46,0,1.07-9.43,2.62-18.11-.49-37.86a67.87,67.87,0,0,1,10-.58,73.83,73.83,0,0,1,10.56.76C181.12,250.3,186.19,251.72,186.19,251.72Z" style="fill:#fff;opacity:0.2"></path><path d="M161.89,257.5c-.53,3.61-2.18,7.52-4,12.08,0-2.94-.15-5.73-.38-8.31Z" style="opacity:0.2"></path><path d="M152.86,256.13c-.13.64-.31,1.43-.48,2.15s-.36,1.47-.57,2.2c-.42,1.46-.85,2.92-1.38,4.32a30.61,30.61,0,0,1-4,7.72c-.2.26-.46.59-.55.69a6.71,6.71,0,0,1-.65.58,18,18,0,0,1-1.73,1.23c-1.26.8-2.6,1.59-4,2.33s-2.76,1.51-4.18,2.23l-4.23,2.17,1,2.72a84.92,84.92,0,0,0,9.29-3.08c1.53-.62,3-1.27,4.57-2.06a24.74,24.74,0,0,0,2.31-1.36,13,13,0,0,0,1.22-.94c.49-.46.72-.75,1.05-1.1a27.13,27.13,0,0,0,3-4.38,35.42,35.42,0,0,0,2.22-4.66,48.54,48.54,0,0,0,1.65-4.8c.23-.81.44-1.62.64-2.45s.36-1.61.51-2.54Z" style="fill:#ffc3bd"></path><path d="M156.08,249.37c-2.38.54-5.76,8.36-5.76,8.36l8.57,7.12s3.78-6.46,3-9.54S158.8,248.75,156.08,249.37Z" style="fill:#A96FFF"></path><path d="M156.08,249.37c-2.38.54-5.76,8.36-5.76,8.36l8.57,7.12s3.78-6.46,3-9.54S158.8,248.75,156.08,249.37Z" style="fill:#fff;opacity:0.2"></path><path d="M132.56,281.6l-5.43-3,1.13,5.73s3.52,1.11,5.23-.56Z" style="fill:#ffc3bd"></path><polygon points="122.36 279.38 123.57 284.12 128.26 284.33 127.13 278.61 122.36 279.38" style="fill:#ffc3bd"></polygon><path d="M168,237c.42,3.45.63,9.72-1.91,11.82,0,0,.68,3.51,7,4,7,.5,3.57-3.21,3.57-3.21-3.72-1.18-3.42-4-2.57-6.57Z" style="fill:#ffc3bd"></path><path d="M170.44,239.42,174,243a11.48,11.48,0,0,0-.46,1.86c-1.43-.32-3.31-2.05-3.35-3.58A5.12,5.12,0,0,1,170.44,239.42Z" style="opacity:0.2"></path><path d="M164.08,231.24c1.3,5.54,1.73,7.92,5.06,10.31,5,3.6,11.52.79,11.9-5,.35-5.24-1.84-13.44-7.71-14.73A7.77,7.77,0,0,0,164.08,231.24Z" style="fill:#ffc3bd"></path><path d="M177.43,222.79c1.87,2.6-16.3,12.26-14.55,6.15S172.56,216,177.43,222.79Z" style="fill:#263238"></path><path d="M168.18,229c.45,2.7-3.12,5.9-3.12,5.9s-4.57-3.38-1.7-5.18S168.18,229,168.18,229Z" style="fill:#263238"></path><path d="M173.64,231.2c.08.45.38.78.68.73s.48-.46.4-.92-.38-.78-.68-.73S173.56,230.74,173.64,231.2Z" style="fill:#263238"></path><path d="M178.8,230.32c.08.45.38.78.68.73s.48-.46.4-.92-.38-.78-.68-.73S178.72,229.86,178.8,230.32Z" style="fill:#263238"></path><path d="M179.07,229.45l1.05-.51S179.7,229.9,179.07,229.45Z" style="fill:#263238"></path><path d="M177,231.41a12.45,12.45,0,0,0,2.13,2.64,2,2,0,0,1-1.58.58Z" style="fill:#ed847e"></path><path d="M175.35,236.84a4.18,4.18,0,0,0,.68-.06.14.14,0,0,0,.11-.16.14.14,0,0,0-.16-.11,3.68,3.68,0,0,1-3.19-.91.13.13,0,0,0-.19,0,.14.14,0,0,0,0,.19A3.82,3.82,0,0,0,175.35,236.84Z" style="fill:#263238"></path><path d="M163.44,236.64a4.16,4.16,0,0,0,2.53,1.92c1.41.36,2.09-.91,1.67-2.23s-1.57-2.8-3-2.58A1.87,1.87,0,0,0,163.44,236.64Z" style="fill:#ffc3bd"></path><path d="M171.39,230.5a.28.28,0,0,0,.26-.19,3.18,3.18,0,0,1,1.92-1.72.28.28,0,0,0,.17-.35.26.26,0,0,0-.34-.17,3.71,3.71,0,0,0-2.27,2.08.27.27,0,0,0,.18.34Z" style="fill:#263238"></path><path d="M179.94,227.67a.27.27,0,0,0,.24-.14.28.28,0,0,0-.1-.37,2.67,2.67,0,0,0-2.48-.16.27.27,0,0,0-.12.36.27.27,0,0,0,.37.12h0a2.17,2.17,0,0,1,2,.15A.22.22,0,0,0,179.94,227.67Z" style="fill:#263238"></path><path d="M173.91,230.33l1.05-.51S174.54,230.78,173.91,230.33Z" style="fill:#263238"></path><path d="M164.26,404.6a46.85,46.85,0,0,1-6.82-8.29c-1.26-1.8-1.5-1.35-2.84-3.11a2.12,2.12,0,0,1,1.21-3.2,20,20,0,0,0,3.45-1l4.62,3.4c-.85,2.17.27,8.3,2.64,10.82C168.22,405,165.6,405.83,164.26,404.6Z" style="fill:#263238"></path><path d="M179.75,287.23s14.8,43.23,15,57.24c.07,4.28-31.24,48.93-31.24,48.93-.79.61-4.09-3.49-4.28-4.57,8.18-15.81,14.08-34.26,21.49-44.95C162.35,313.06,158,287.23,158,287.23Z" style="fill:#263238"></path><g style="opacity:0.2"><path d="M179.75,287.23s14.8,43.23,15,57.24c.07,4.28-31.24,48.93-31.24,48.93-.79.61-4.09-3.49-4.28-4.57,8.18-15.81,14.08-34.26,21.49-44.95C162.35,313.06,158,287.23,158,287.23Z" style="fill:#fff"></path></g><path d="M167.76,308.42s8.34,17.68,8.62,27.17c-2.6-4.63-8.14-16.67-9.85-20.44Z" style="opacity:0.30000000000000004"></path><path d="M164.26,378.29c-.4,4.29-1.14,10.48-1,15.17a3.34,3.34,0,0,1-1.46-.85l-.58-7.76Z" style="opacity:0.2"></path><path d="M168.41,420.14c-4.63,0-5.24-.07-7.83-.16-2.23-.07-2.76.2-4.55.16-1.49,0-1.43-1.46-1-3.1.23-.83.58-2.57.9-3.91l6.77-.49c1,1.82,3.1,4.41,5.71,4.76S170.25,420.14,168.41,420.14Z" style="fill:#263238"></path><path d="M173.24,287.23s-4.87,44.63-7.7,63c-3,19.33-3.35,50.34-2.61,63-1.08.63-5,.19-7.14-.48,0,0-6.81-38.71-3.41-60.59-3.31-54,5.63-64.94,5.63-64.94Z" style="fill:#263238"></path><g style="opacity:0.2"><path d="M173.24,287.23s-4.87,44.63-7.7,63c-3,19.33-3.35,50.34-2.61,63-1.08.63-5,.19-7.14-.48,0,0-6.81-38.71-3.41-60.59-3.31-54,5.63-64.94,5.63-64.94Z" style="fill:#fff"></path></g><path d="M106.86,339.89h37.35a1.76,1.76,0,0,0,1.71-1.36l6-26.28H99.65l5.5,26.25A1.75,1.75,0,0,0,106.86,339.89Z" style="fill:#A96FFF"></path><path d="M106.86,339.89h37.35a1.76,1.76,0,0,0,1.71-1.36l6-26.28H99.65l5.5,26.25A1.75,1.75,0,0,0,106.86,339.89Z" style="fill:#fff;opacity:0.1"></path><path d="M143.51,323.27h0a.75.75,0,0,0,.74-.75v-7a.75.75,0,0,0-.74-.75h0a.75.75,0,0,0-.75.75v7A.75.75,0,0,0,143.51,323.27Z" style="fill:#263238"></path><path d="M140.52,323.27h0a.76.76,0,0,0,.75-.75v-7a.76.76,0,0,0-.75-.75h0a.76.76,0,0,0-.75.75v7A.76.76,0,0,0,140.52,323.27Z" style="fill:#263238"></path><path d="M137.59,323.27h0a.76.76,0,0,0,.75-.75v-7a.76.76,0,0,0-.75-.75h0a.76.76,0,0,0-.75.75v7A.76.76,0,0,0,137.59,323.27Z" style="fill:#263238"></path><path d="M114.19,323.27h0a.75.75,0,0,0,.75-.75v-7a.75.75,0,0,0-.75-.75h0a.75.75,0,0,0-.74.75v7A.75.75,0,0,0,114.19,323.27Z" style="fill:#263238"></path><path d="M111.16,323.27h0a.75.75,0,0,0,.75-.75v-7a.75.75,0,0,0-.75-.75h0a.75.75,0,0,0-.74.75v7A.75.75,0,0,0,111.16,323.27Z" style="fill:#263238"></path><path d="M108.15,323.27h0a.75.75,0,0,0,.74-.75v-7a.75.75,0,0,0-.74-.75h0a.75.75,0,0,0-.75.75v7A.75.75,0,0,0,108.15,323.27Z" style="fill:#263238"></path><path d="M130.58,323.27h0a.76.76,0,0,0,.75-.75v-7a.76.76,0,0,0-.75-.75h0a.76.76,0,0,0-.75.75v7A.76.76,0,0,0,130.58,323.27Z" style="fill:#263238"></path><path d="M127.67,323.27h0a.76.76,0,0,0,.75-.75v-7a.76.76,0,0,0-.75-.75h0a.76.76,0,0,0-.75.75v7A.76.76,0,0,0,127.67,323.27Z" style="fill:#263238"></path><path d="M124.68,323.27h0a.75.75,0,0,0,.75-.75v-7a.75.75,0,0,0-.75-.75h0a.75.75,0,0,0-.74.75v7A.75.75,0,0,0,124.68,323.27Z" style="fill:#263238"></path><path d="M121.7,323.27h0a.75.75,0,0,0,.74-.75v-7a.75.75,0,0,0-.74-.75h0a.75.75,0,0,0-.75.75v7A.75.75,0,0,0,121.7,323.27Z" style="fill:#263238"></path><path d="M143.51,335.59h0a.74.74,0,0,0,.74-.74v-7a.74.74,0,0,0-.74-.74h0a.74.74,0,0,0-.75.74v7A.74.74,0,0,0,143.51,335.59Z" style="fill:#263238"></path><path d="M140.52,335.59h0a.75.75,0,0,0,.75-.74v-7a.75.75,0,0,0-.75-.74h0a.75.75,0,0,0-.75.74v7A.75.75,0,0,0,140.52,335.59Z" style="fill:#263238"></path><path d="M137.59,335.59h0a.75.75,0,0,0,.75-.74v-7a.75.75,0,0,0-.75-.74h0a.75.75,0,0,0-.75.74v7A.75.75,0,0,0,137.59,335.59Z" style="fill:#263238"></path><path d="M114.19,335.59h0a.74.74,0,0,0,.75-.74v-7a.74.74,0,0,0-.75-.74h0a.74.74,0,0,0-.74.74v7A.74.74,0,0,0,114.19,335.59Z" style="fill:#263238"></path><path d="M111.16,335.59h0a.74.74,0,0,0,.75-.74v-7a.74.74,0,0,0-.75-.74h0a.74.74,0,0,0-.74.74v7A.74.74,0,0,0,111.16,335.59Z" style="fill:#263238"></path><path d="M108.15,335.59h0a.74.74,0,0,0,.74-.74v-7a.74.74,0,0,0-.74-.74h0a.74.74,0,0,0-.75.74v7A.74.74,0,0,0,108.15,335.59Z" style="fill:#263238"></path><path d="M130.58,335.59h0a.75.75,0,0,0,.75-.74v-7a.75.75,0,0,0-.75-.74h0a.75.75,0,0,0-.75.74v7A.75.75,0,0,0,130.58,335.59Z" style="fill:#263238"></path><path d="M127.67,335.59h0a.75.75,0,0,0,.75-.74v-7a.75.75,0,0,0-.75-.74h0a.75.75,0,0,0-.75.74v7A.75.75,0,0,0,127.67,335.59Z" style="fill:#263238"></path><path d="M124.68,335.59h0a.74.74,0,0,0,.75-.74v-7a.74.74,0,0,0-.75-.74h0a.74.74,0,0,0-.74.74v7A.74.74,0,0,0,124.68,335.59Z" style="fill:#263238"></path><path d="M121.7,335.59h0a.74.74,0,0,0,.74-.74v-7a.74.74,0,0,0-.74-.74h0a.74.74,0,0,0-.75.74v7A.74.74,0,0,0,121.7,335.59Z" style="fill:#263238"></path><polygon points="151.75 313.06 99.88 313.06 99.41 311.38 152.25 311.38 151.75 313.06" style="opacity:0.2"></polygon><path d="M98.35,312.25h55.27a2.24,2.24,0,0,0,2.24-2.24h0a2.24,2.24,0,0,0-2.24-2.24H98.35A2.24,2.24,0,0,0,96.11,310h0A2.24,2.24,0,0,0,98.35,312.25Z" style="fill:#A96FFF"></path><path d="M98.35,312.25h55.27a2.24,2.24,0,0,0,2.24-2.24h0a2.24,2.24,0,0,0-2.24-2.24H98.35A2.24,2.24,0,0,0,96.11,310h0A2.24,2.24,0,0,0,98.35,312.25Z" style="fill:#fff;opacity:0.30000000000000004"></path><path d="M126,311.38h0a1.37,1.37,0,0,0,1.38-1.37V282a1.37,1.37,0,0,0-1.38-1.37h0a1.37,1.37,0,0,0-1.37,1.37v28A1.37,1.37,0,0,0,126,311.38Z" style="fill:#263238"></path></g></svg>