<svg xmlns="http://www.w3.org/2000/svg" viewBox="0 0 500 500"><g id="freepik--background-complete--inject-3"><rect y="382.4" width="500" height="0.25" style="fill:#ebebeb"></rect><rect x="416.78" y="398.49" width="33.12" height="0.25" style="fill:#ebebeb"></rect><rect x="322.53" y="401.21" width="8.69" height="0.25" style="fill:#ebebeb"></rect><rect x="396.59" y="389.21" width="19.19" height="0.25" style="fill:#ebebeb"></rect><rect x="52.46" y="390.89" width="43.19" height="0.25" style="fill:#ebebeb"></rect><rect x="104.56" y="390.89" width="6.33" height="0.25" style="fill:#ebebeb"></rect><rect x="131.47" y="395.11" width="93.68" height="0.25" style="fill:#ebebeb"></rect><path d="M237,337.8H43.91a5.71,5.71,0,0,1-5.7-5.71V60.66A5.71,5.71,0,0,1,43.91,55H237a5.71,5.71,0,0,1,5.71,5.71V332.09A5.71,5.71,0,0,1,237,337.8ZM43.91,55.2a5.46,5.46,0,0,0-5.45,5.46V332.09a5.46,5.46,0,0,0,5.45,5.46H237a5.47,5.47,0,0,0,5.46-5.46V60.66A5.47,5.47,0,0,0,237,55.2Z" style="fill:#ebebeb"></path><path d="M453.31,337.8H260.21a5.72,5.72,0,0,1-5.71-5.71V60.66A5.72,5.72,0,0,1,260.21,55h193.1A5.71,5.71,0,0,1,459,60.66V332.09A5.71,5.71,0,0,1,453.31,337.8ZM260.21,55.2a5.47,5.47,0,0,0-5.46,5.46V332.09a5.47,5.47,0,0,0,5.46,5.46h193.1a5.47,5.47,0,0,0,5.46-5.46V60.66a5.47,5.47,0,0,0-5.46-5.46Z" style="fill:#ebebeb"></path><rect x="65.96" y="123" width="222.3" height="259.05" style="fill:#f0f0f0"></rect><rect x="74.79" y="127.42" width="208.26" height="254.62" style="fill:#ebebeb"></rect><rect x="103.67" y="128.86" width="2.31" height="253.19" style="fill:#fafafa"></rect><rect x="281.89" y="127.2" width="2.31" height="254.85" style="fill:#fafafa"></rect><rect x="71.06" y="127.2" width="2.31" height="254.85" style="fill:#fafafa"></rect><rect x="158.94" y="128.86" width="2.31" height="253.19" style="fill:#fafafa"></rect><rect x="213.46" y="128.86" width="2.31" height="253.19" style="fill:#fafafa"></rect><rect x="104.82" y="162.27" width="109.79" height="3.32" style="fill:#fafafa"></rect><rect x="74.36" y="127.2" width="209.84" height="3.32" style="fill:#fafafa"></rect><rect x="103.67" y="259.43" width="112.74" height="3.32" style="fill:#fafafa"></rect><rect x="103.67" y="234.89" width="57.01" height="3.32" style="fill:#fafafa"></rect><rect x="106.95" y="238.79" width="51" height="19.96" style="fill:#fafafa"></rect><rect x="74.36" y="232.54" width="30.46" height="2.35" style="fill:#fafafa"></rect><rect x="74.36" y="265.01" width="30.46" height="2.35" style="fill:#fafafa"></rect><rect x="74.36" y="297.73" width="30.46" height="2.35" style="fill:#fafafa"></rect><rect x="74.36" y="330.17" width="30.46" height="2.35" style="fill:#fafafa"></rect><rect x="107.01" y="331.32" width="50.87" height="18.05" style="fill:#fafafa"></rect><rect x="107.01" y="350.51" width="50.87" height="20.3" style="fill:#fafafa"></rect><rect x="162.6" y="331.32" width="49.51" height="18.05" style="fill:#fafafa"></rect><rect x="162.6" y="350.51" width="49.51" height="20.3" style="fill:#fafafa"></rect><rect x="74.36" y="350.25" width="28.31" height="23.78" style="fill:#fafafa"></rect><rect x="74.36" y="200.59" width="30.46" height="2.35" style="fill:#fafafa"></rect><rect x="74.36" y="168.65" width="30.46" height="2.35" style="fill:#fafafa"></rect><rect x="214.54" y="168.65" width="69.67" height="2.35" style="fill:#fafafa"></rect><rect x="214.54" y="184.61" width="69.67" height="1.17" style="fill:#fafafa"></rect><rect x="214.96" y="326.94" width="69.25" height="2.35" style="fill:#fafafa"></rect><rect x="103.67" y="292.15" width="112.74" height="3.32" style="fill:#fafafa"></rect><rect x="103.67" y="326.85" width="110.95" height="3.32" style="fill:#fafafa"></rect><rect x="104.82" y="372.36" width="110.13" height="3.32" style="fill:#fafafa"></rect><path d="M255.88,149.47h21.77a1.43,1.43,0,0,1,1.43,1.43v17a0,0,0,0,1,0,0H254.45a0,0,0,0,1,0,0v-17A1.43,1.43,0,0,1,255.88,149.47Z" style="fill:#fafafa"></path><path d="M220.62,332.52h57a1.43,1.43,0,0,1,1.43,1.43v46a0,0,0,0,1,0,0H219.2a0,0,0,0,1,0,0v-46A1.43,1.43,0,0,1,220.62,332.52Z" style="fill:#fafafa"></path><path d="M258.71,208.05c-1.66,16.48-.42,29.11.2,44.2.66,16-2,31.74-1.56,48.66,1-.63,1.9-.94,2.8,0,1.32.92,2.46,1.22,3.48,0,1.34,0,2.25-.64,3,0,1-13.14,2.34-26.92,1-35.9-.19-1.83,5.32-1.34,5.44-3.92.58-11.86-1.89-33.62-3.94-52.92a1.4,1.4,0,0,0-.05-.41l-2.3-9.8a3.52,3.52,0,0,0-.68-1.4l-.62-.78-1-5v-6.17h-.58v6.13l-1.79,2.85-5.57,4.95Z" style="fill:#fafafa"></path><rect x="113.46" y="229.69" width="39.66" height="4.71" rx="1.67" style="fill:#fafafa"></rect><path d="M132.17,313.48v5.66c0,3.83.45,6.94,1,6.94H155.1c.56,0,1-3.11,1-6.94v-5.66c0-3.84-.45-7-1-7H133.18C132.62,306.53,132.17,309.64,132.17,313.48Z" style="fill:#fafafa"></path><path d="M112,225.83v1.36a1.71,1.71,0,0,0,1.74,1.67h37.67a1.71,1.71,0,0,0,1.74-1.67v-1.36a1.71,1.71,0,0,0-1.74-1.68H113.71A1.71,1.71,0,0,0,112,225.83Z" style="fill:#fafafa"></path><path d="M113.46,220.46v1.36a1.72,1.72,0,0,0,1.77,1.67h38.35a1.72,1.72,0,0,0,1.77-1.67v-1.36a1.72,1.72,0,0,0-1.77-1.68H115.23A1.72,1.72,0,0,0,113.46,220.46Z" style="fill:#fafafa"></path><path d="M114,215.09v1.36a1.68,1.68,0,0,0,1.68,1.68h36.43a1.68,1.68,0,0,0,1.68-1.68v-1.36a1.68,1.68,0,0,0-1.68-1.67H115.63A1.68,1.68,0,0,0,114,215.09Z" style="fill:#fafafa"></path><path d="M116.45,209.64V211a1.6,1.6,0,0,0,1.5,1.67H150.5A1.59,1.59,0,0,0,152,211v-1.36a1.6,1.6,0,0,0-1.5-1.68H118A1.6,1.6,0,0,0,116.45,209.64Z" style="fill:#fafafa"></path><path d="M118.54,159.31v.92a1.27,1.27,0,0,0,1.39,1.13h30.29a1.28,1.28,0,0,0,1.4-1.13v-.92a1.29,1.29,0,0,0-1.4-1.13H119.93A1.28,1.28,0,0,0,118.54,159.31Z" style="fill:#fafafa"></path><path d="M169.76,159.31v.92a1.28,1.28,0,0,0,1.4,1.13h30.29a1.27,1.27,0,0,0,1.39-1.13v-.92a1.28,1.28,0,0,0-1.39-1.13H171.16A1.29,1.29,0,0,0,169.76,159.31Z" style="fill:#fafafa"></path><path d="M173.07,155.22v.93a1.17,1.17,0,0,0,1.2,1.13h26a1.17,1.17,0,0,0,1.2-1.13v-.93a1.17,1.17,0,0,0-1.2-1.13h-26A1.17,1.17,0,0,0,173.07,155.22Z" style="fill:#fafafa"></path><path d="M173.13,151.13v.93a1.2,1.2,0,0,0,1.25,1.13h27.21a1.2,1.2,0,0,0,1.25-1.13v-.93a1.2,1.2,0,0,0-1.25-1.13H174.38A1.2,1.2,0,0,0,173.13,151.13Z" style="fill:#fafafa"></path><path d="M115.26,289.28v.92c0,.62.77,1.13,1.72,1.13h37.41c1,0,1.72-.51,1.72-1.13v-.92c0-.63-.77-1.13-1.72-1.13H117C116,288.15,115.26,288.65,115.26,289.28Z" style="fill:#fafafa"></path><path d="M172.5,288.35v1.34a1.49,1.49,0,0,0,1.25,1.64H201a1.49,1.49,0,0,0,1.25-1.64v-1.34A1.49,1.49,0,0,0,201,286.7H173.75A1.49,1.49,0,0,0,172.5,288.35Z" style="fill:#fafafa"></path><path d="M170.76,278.28v1.34a1.49,1.49,0,0,0,1.25,1.64h27.21a1.49,1.49,0,0,0,1.25-1.64v-1.34a1.49,1.49,0,0,0-1.25-1.65H172A1.49,1.49,0,0,0,170.76,278.28Z" style="fill:#fafafa"></path><path d="M169,274.06v1.34a1.5,1.5,0,0,0,1.26,1.64h27.2a1.49,1.49,0,0,0,1.26-1.64v-1.34a1.49,1.49,0,0,0-1.26-1.65h-27.2A1.5,1.5,0,0,0,169,274.06Z" style="fill:#fafafa"></path><path d="M171.3,269.43v1.34a1.48,1.48,0,0,0,1.25,1.64h27.21a1.48,1.48,0,0,0,1.25-1.64v-1.34a1.48,1.48,0,0,0-1.25-1.64H172.55A1.48,1.48,0,0,0,171.3,269.43Z" style="fill:#fafafa"></path><path d="M169,282.9v1.34a1.5,1.5,0,0,0,1.26,1.65h27.2a1.49,1.49,0,0,0,1.26-1.65V282.9a1.48,1.48,0,0,0-1.26-1.64h-27.2A1.49,1.49,0,0,0,169,282.9Z" style="fill:#fafafa"></path><path d="M113.59,284.84v1.34a1.68,1.68,0,0,0,1.72,1.64h37.41a1.68,1.68,0,0,0,1.72-1.64v-1.34a1.68,1.68,0,0,0-1.72-1.64H115.31A1.68,1.68,0,0,0,113.59,284.84Z" style="fill:#fafafa"></path><path d="M113.59,279.91v1.34a1.69,1.69,0,0,0,1.72,1.65h37.41a1.69,1.69,0,0,0,1.72-1.65v-1.34a1.69,1.69,0,0,0-1.72-1.64H115.31A1.69,1.69,0,0,0,113.59,279.91Z" style="fill:#fafafa"></path><path d="M114.8,275.3v1.34a1.69,1.69,0,0,0,1.72,1.65h37.41a1.69,1.69,0,0,0,1.72-1.65V275.3a1.69,1.69,0,0,0-1.72-1.64H116.52A1.69,1.69,0,0,0,114.8,275.3Z" style="fill:#fafafa"></path><path d="M110.8,271v1.34a1.69,1.69,0,0,0,1.73,1.64h37.4a1.68,1.68,0,0,0,1.72-1.64V271a1.69,1.69,0,0,0-1.72-1.65h-37.4A1.7,1.7,0,0,0,110.8,271Z" style="fill:#fafafa"></path><path d="M112.34,266.35v1.34a1.69,1.69,0,0,0,1.72,1.65h37.41a1.69,1.69,0,0,0,1.72-1.65v-1.34a1.69,1.69,0,0,0-1.72-1.64H114.06A1.69,1.69,0,0,0,112.34,266.35Z" style="fill:#fafafa"></path><path d="M172.5,323.06v1.34a1.49,1.49,0,0,0,1.25,1.64H201a1.49,1.49,0,0,0,1.25-1.64v-1.34a1.49,1.49,0,0,0-1.25-1.65H173.75A1.49,1.49,0,0,0,172.5,323.06Z" style="fill:#fafafa"></path><path d="M170.76,317.53v1.34a1.5,1.5,0,0,0,1.3,1.64h28.19a1.5,1.5,0,0,0,1.3-1.64v-1.34a1.5,1.5,0,0,0-1.3-1.64H172.06A1.5,1.5,0,0,0,170.76,317.53Z" style="fill:#fafafa"></path><path d="M170.76,305.86v1.34a1.5,1.5,0,0,0,1.3,1.64h28.19a1.5,1.5,0,0,0,1.3-1.64v-1.34a1.5,1.5,0,0,0-1.3-1.64H172.06A1.5,1.5,0,0,0,170.76,305.86Z" style="fill:#fafafa"></path><path d="M172,301.41v1.33a1.51,1.51,0,0,0,1.3,1.65h28.2a1.51,1.51,0,0,0,1.3-1.65v-1.33a1.51,1.51,0,0,0-1.3-1.65h-28.2A1.51,1.51,0,0,0,172,301.41Z" style="fill:#fafafa"></path><path d="M171.58,311v1.84c0,1.25.62,2.27,1.39,2.27h30c.76,0,1.38-1,1.38-2.27V311c0-1.26-.62-2.27-1.38-2.27H173C172.2,308.68,171.58,309.69,171.58,311Z" style="fill:#fafafa"></path><path d="M118.54,155.3v.93a1.28,1.28,0,0,0,1.39,1.13h30.29a1.29,1.29,0,0,0,1.4-1.13v-.93a1.29,1.29,0,0,0-1.4-1.13H119.93A1.28,1.28,0,0,0,118.54,155.3Z" style="fill:#fafafa"></path><path d="M121.77,194.45v.93a1,1,0,0,0,.88,1.13h19a1,1,0,0,0,.88-1.13v-.93a1,1,0,0,0-.88-1.13h-19A1,1,0,0,0,121.77,194.45Z" style="fill:#fafafa"></path><path d="M120.8,190.94v.92a1,1,0,0,0,.87,1.13h19a1,1,0,0,0,.88-1.13v-.92a1,1,0,0,0-.88-1.13h-19A1,1,0,0,0,120.8,190.94Z" style="fill:#fafafa"></path><path d="M121.77,187.76v.92a1,1,0,0,0,.88,1.13h19a1,1,0,0,0,.88-1.13v-.92a1,1,0,0,0-.88-1.13h-19A1,1,0,0,0,121.77,187.76Z" style="fill:#fafafa"></path><path d="M122.06,184.49v.92a1,1,0,0,0,.88,1.14h19a1,1,0,0,0,.88-1.14v-.92a1,1,0,0,0-.88-1.13h-19A1,1,0,0,0,122.06,184.49Z" style="fill:#fafafa"></path><path d="M120.8,181.27v.92a1,1,0,0,0,.87,1.13h19a1,1,0,0,0,.88-1.13v-.92a1,1,0,0,0-.88-1.13h-19A1,1,0,0,0,120.8,181.27Z" style="fill:#fafafa"></path><path d="M121.53,178.09V179a1,1,0,0,0,.87,1.13h19a1,1,0,0,0,.88-1.13v-.92a1,1,0,0,0-.88-1.13h-19A1,1,0,0,0,121.53,178.09Z" style="fill:#fafafa"></path><path d="M74.38,212.45v.92a1,1,0,0,0,.88,1.13h19a1,1,0,0,0,.87-1.13v-.92a1,1,0,0,0-.87-1.13h-19A1,1,0,0,0,74.38,212.45Z" style="fill:#fafafa"></path><path d="M74.38,209.09V210a1,1,0,0,0,.88,1.13h19a1,1,0,0,0,.87-1.13v-.92A1,1,0,0,0,94.3,208h-19A1,1,0,0,0,74.38,209.09Z" style="fill:#fafafa"></path><path d="M74.38,178.44v.92a1,1,0,0,0,.88,1.13h19a1,1,0,0,0,.87-1.13v-.92a1,1,0,0,0-.87-1.13h-19A1,1,0,0,0,74.38,178.44Z" style="fill:#fafafa"></path><path d="M74.38,175.28v.92a1,1,0,0,0,.88,1.13h19a1,1,0,0,0,.87-1.13v-.92a1,1,0,0,0-.87-1.13h-19A1,1,0,0,0,74.38,175.28Z" style="fill:#fafafa"></path><path d="M120,151.3v.92a1.2,1.2,0,0,0,1.26,1.13h27.33a1.2,1.2,0,0,0,1.26-1.13v-.92a1.19,1.19,0,0,0-1.26-1.13H121.3A1.19,1.19,0,0,0,120,151.3Z" style="fill:#fafafa"></path><path d="M120.8,147.49v.92a1.13,1.13,0,0,0,1.12,1.13h24.37a1.14,1.14,0,0,0,1.13-1.13v-.92a1.14,1.14,0,0,0-1.13-1.13H121.92A1.13,1.13,0,0,0,120.8,147.49Z" style="fill:#fafafa"></path><path d="M123.76,143.86v.93a1.14,1.14,0,0,0,1.13,1.13h24.37a1.13,1.13,0,0,0,1.12-1.13v-.93a1.13,1.13,0,0,0-1.12-1.13H124.89A1.14,1.14,0,0,0,123.76,143.86Z" style="fill:#fafafa"></path><path d="M121.66,140.26v.93a1.13,1.13,0,0,0,1.12,1.13h24.37a1.14,1.14,0,0,0,1.13-1.13v-.93a1.14,1.14,0,0,0-1.13-1.13H122.78A1.13,1.13,0,0,0,121.66,140.26Z" style="fill:#fafafa"></path><path d="M121.77,136.78v.92a1.13,1.13,0,0,0,1.12,1.13h24.38a1.13,1.13,0,0,0,1.12-1.13v-.92a1.12,1.12,0,0,0-1.12-1.13H122.89A1.12,1.12,0,0,0,121.77,136.78Z" style="fill:#fafafa"></path><path d="M74.36,197.35h25.9a.67.67,0,0,1,.67.67v1.13a.68.68,0,0,1-.68.68H74.36a0,0,0,0,1,0,0v-2.48a0,0,0,0,1,0,0Z" style="fill:#fafafa"></path><path d="M74.36,293.19h25.9a.68.68,0,0,1,.68.68v2.71a.68.68,0,0,1-.68.68H74.36a0,0,0,0,1,0,0v-4.06A0,0,0,0,1,74.36,293.19Z" style="fill:#fafafa"></path><path d="M74.36,271.32h25.9a.68.68,0,0,1,.68.68v2.71a.68.68,0,0,1-.68.68H74.36a0,0,0,0,1,0,0v-4.06A0,0,0,0,1,74.36,271.32Z" style="fill:#fafafa"></path><path d="M74.36,290.13h25a.68.68,0,0,1,.68.68v1.1a.67.67,0,0,1-.67.67h-25a0,0,0,0,1,0,0v-2.45A0,0,0,0,1,74.36,290.13Z" style="fill:#fafafa"></path><path d="M74.36,286.45H99.77a.67.67,0,0,1,.67.67v1.72a.67.67,0,0,1-.67.67H74.36a0,0,0,0,1,0,0v-3.07A0,0,0,0,1,74.36,286.45Z" style="fill:#fafafa"></path><path d="M74.36,284H99.8a.65.65,0,0,1,.65.65v.58a.65.65,0,0,1-.65.65H74.36a0,0,0,0,1,0,0V284A0,0,0,0,1,74.36,284Z" style="fill:#fafafa"></path><path d="M74.36,281.53h25a.67.67,0,0,1,.67.67v1.1a.68.68,0,0,1-.68.68h-25a0,0,0,0,1,0,0v-2.45A0,0,0,0,1,74.36,281.53Z" style="fill:#fafafa"></path><path d="M74.36,277.85H99.77a.67.67,0,0,1,.67.67v1.72a.67.67,0,0,1-.67.67H74.36a0,0,0,0,1,0,0v-3.07A0,0,0,0,1,74.36,277.85Z" style="fill:#fafafa"></path><path d="M74.36,275.37H99.8a.65.65,0,0,1,.65.65v.58a.65.65,0,0,1-.65.65H74.36a0,0,0,0,1,0,0v-1.87A0,0,0,0,1,74.36,275.37Z" style="fill:#fafafa"></path><path d="M74.36,228H102a.68.68,0,0,1,.68.68v2.86a.68.68,0,0,1-.68.68H74.36a0,0,0,0,1,0,0V228A0,0,0,0,1,74.36,228Z" style="fill:#fafafa"></path><path d="M74.36,260.39H102a.67.67,0,0,1,.67.67v2.86a.67.67,0,0,1-.67.67H74.36a0,0,0,0,1,0,0v-4.21A0,0,0,0,1,74.36,260.39Z" style="fill:#fafafa"></path><path d="M74.36,255.9h26.18a.67.67,0,0,1,.67.67v2.86a.67.67,0,0,1-.67.67H74.36a0,0,0,0,1,0,0V255.9A0,0,0,0,1,74.36,255.9Z" style="fill:#fafafa"></path><path d="M74.36,240h26.18a.67.67,0,0,1,.67.67v2.86a.68.68,0,0,1-.68.68H74.36a0,0,0,0,1,0,0V240A0,0,0,0,1,74.36,240Z" style="fill:#fafafa"></path><path d="M74.36,246.67h26.18a.67.67,0,0,1,.67.67v2.86a.67.67,0,0,1-.67.67H74.36a0,0,0,0,1,0,0v-4.21A0,0,0,0,1,74.36,246.67Z" style="fill:#fafafa"></path><path d="M74.36,251.4H98.31a.67.67,0,0,1,.67.67v2.86a.67.67,0,0,1-.67.67H74.36a0,0,0,0,1,0,0V251.4A0,0,0,0,1,74.36,251.4Z" style="fill:#fafafa"></path><path d="M74.36,243.16H98.31a.68.68,0,0,1,.68.68v2.86a.67.67,0,0,1-.67.67H74.36a0,0,0,0,1,0,0v-4.21A0,0,0,0,1,74.36,243.16Z" style="fill:#fafafa"></path><path d="M74.36,223.37h26a.68.68,0,0,1,.68.68v2.86a.68.68,0,0,1-.68.68h-26a0,0,0,0,1,0,0v-4.21A0,0,0,0,1,74.36,223.37Z" style="fill:#fafafa"></path><path d="M74.36,218.79h26.86a1.46,1.46,0,0,1,1.46,1.46v1.3a1.46,1.46,0,0,1-1.46,1.46H74.36a0,0,0,0,1,0,0v-4.21A0,0,0,0,1,74.36,218.79Z" style="fill:#fafafa"></path><path d="M74.36,214.16H98.62a1.46,1.46,0,0,1,1.46,1.46v1.3a1.46,1.46,0,0,1-1.46,1.46H74.36a0,0,0,0,1,0,0v-4.21A0,0,0,0,1,74.36,214.16Z" style="fill:#fafafa"></path><path d="M74.38,194.54H98.9a.68.68,0,0,1,.68.68v1.13a.68.68,0,0,1-.68.68H74.38a0,0,0,0,1,0,0v-2.48A0,0,0,0,1,74.38,194.54Z" style="fill:#fafafa"></path><path d="M74.38,191.73H97.29a.67.67,0,0,1,.67.67v1.13a.67.67,0,0,1-.67.67H74.38a0,0,0,0,1,0,0v-2.48A0,0,0,0,1,74.38,191.73Z" style="fill:#fafafa"></path><path d="M74.46,188.92H98.53a.68.68,0,0,1,.68.68v1.13a.67.67,0,0,1-.67.67H74.46a0,0,0,0,1,0,0v-2.48A0,0,0,0,1,74.46,188.92Z" style="fill:#fafafa"></path><path d="M74.46,186.11H97a.68.68,0,0,1,.68.68v1.13a.68.68,0,0,1-.68.68H74.46a0,0,0,0,1,0,0v-2.48A0,0,0,0,1,74.46,186.11Z" style="fill:#fafafa"></path><path d="M74.36,183.3H98.16a.67.67,0,0,1,.67.67v1.13a.67.67,0,0,1-.67.67H74.36a0,0,0,0,1,0,0V183.3A0,0,0,0,1,74.36,183.3Z" style="fill:#fafafa"></path><path d="M74.36,163.51H99.63a1.6,1.6,0,0,1,1.6,1.6v1.43a1.6,1.6,0,0,1-1.6,1.6H74.36a0,0,0,0,1,0,0v-4.64A0,0,0,0,1,74.36,163.51Z" style="fill:#fafafa"></path><path d="M74.36,153.25H99.63a1.6,1.6,0,0,1,1.6,1.6v1.43a1.6,1.6,0,0,1-1.6,1.6H74.36a0,0,0,0,1,0,0v-4.64A0,0,0,0,1,74.36,153.25Z" style="fill:#fafafa"></path><path d="M74.36,148.3H99.63a1.6,1.6,0,0,1,1.6,1.6v1.43a1.6,1.6,0,0,1-1.6,1.6H74.36a0,0,0,0,1,0,0V148.3A0,0,0,0,1,74.36,148.3Z" style="fill:#fafafa"></path><path d="M74.36,138.41H99.63a1.6,1.6,0,0,1,1.6,1.6v1.43a1.6,1.6,0,0,1-1.6,1.6H74.36a0,0,0,0,1,0,0v-4.64A0,0,0,0,1,74.36,138.41Z" style="fill:#fafafa"></path><path d="M74.36,158.38h26.21a1.6,1.6,0,0,1,1.6,1.6v1.43a1.6,1.6,0,0,1-1.6,1.6H74.36a0,0,0,0,1,0,0v-4.64A0,0,0,0,1,74.36,158.38Z" style="fill:#fafafa"></path><path d="M74.36,143.31h26.21a1.6,1.6,0,0,1,1.6,1.6v1.43a1.6,1.6,0,0,1-1.6,1.6H74.36a0,0,0,0,1,0,0v-4.64A0,0,0,0,1,74.36,143.31Z" style="fill:#fafafa"></path><path d="M74.36,133.77h26.21a1.6,1.6,0,0,1,1.6,1.6v1.43a1.6,1.6,0,0,1-1.6,1.6H74.36a0,0,0,0,1,0,0v-4.64A0,0,0,0,1,74.36,133.77Z" style="fill:#fafafa"></path><path d="M74.46,180.49H97.29a.68.68,0,0,1,.68.68v1.13a.67.67,0,0,1-.67.67H74.46a0,0,0,0,1,0,0v-2.48A0,0,0,0,1,74.46,180.49Z" style="fill:#fafafa"></path><rect x="118.54" y="197.35" width="26.77" height="9.67" rx="1.35" style="fill:#fafafa"></rect><path d="M226.88,149.47h21.77a1.43,1.43,0,0,1,1.43,1.43v17a0,0,0,0,1,0,0H225.45a0,0,0,0,1,0,0v-17A1.42,1.42,0,0,1,226.88,149.47Z" style="fill:#fafafa"></path><path d="M115.4,300.08c-3.83,1.27-5,14.08-6.45,25.29a42.1,42.1,0,0,0,17,0C126.67,318.79,122.34,303.57,115.4,300.08Z" style="fill:#fafafa"></path><polygon points="77.89 315.06 77.89 323.73 76.32 329.28 85.82 329.28 84.83 323.73 85.82 315.06 77.89 315.06" style="fill:#fafafa"></polygon><polygon points="90.28 315.06 90.28 321.41 87.14 329.28 97.88 329.28 96.07 322.62 96.56 315.06 90.28 315.06" style="fill:#fafafa"></polygon><path d="M177.34,185.62l-14.74,13L169,209l.81,38.41h33.08l1.52-38.17,7.75-6.26-13.66-17.6a4.83,4.83,0,0,0-4.16-1.86l-6.21-4.22-1,.07.16-4.46h.9l.08-9.27h-3.34v9.27h.9l-.16,4.56-1.06.07-4.31,4.93A4.85,4.85,0,0,0,177.34,185.62Z" style="fill:#fafafa"></path><path d="M221.83,198l-1.66,8.9a1.6,1.6,0,0,0,0,.23l-2.79,93.78c1-2,1.89-1.64,2.8,0,1.24,1.62,2.4,1.69,3.48,0,1.39-1.48,2.27-1.05,3,0l1-35.9,1.5-56.84a1.4,1.4,0,0,0,0-.41l-2.3-9.8a3.52,3.52,0,0,0-.68-1.4l-.62-.78-1-5v-6.17h-.58v6.13l-.61,5.16-.88,1A2.23,2.23,0,0,0,221.83,198Z" style="fill:#fafafa"></path><path d="M233.57,198l-1.66,8.9a1.64,1.64,0,0,0,0,.23c-2.48,29.13-3.21,60.66-2.79,93.78,1-2,1.88-1.64,2.79,0,1.24,1.62,2.4,1.69,3.49,0,1.38-1.48,2.26-1.05,3,0,1-13.14,2.35-26.92,1-35.9-1-10.23,4-33.33,1.5-56.84a1.84,1.84,0,0,0,0-.41l-2.31-9.8a3.52,3.52,0,0,0-.68-1.4l-.62-.78-1-5v-6.17h-.58v6.13L235,195.9l-.88,1A2.23,2.23,0,0,0,233.57,198Z" style="fill:#fafafa"></path><path d="M271.43,198l-1.66,8.9a1.64,1.64,0,0,0,0,.23c-2.48,29.13-3.21,60.66-2.79,93.78,1-2,1.88-1.64,2.79,0,1.24,1.62,2.4,1.69,3.49,0,1.38-1.48,2.26-1.05,3,0,1-13.14,2.35-26.92,1-35.9-1-10.23,4-33.33,1.5-56.84a1.84,1.84,0,0,0,0-.41l-2.31-9.8a3.63,3.63,0,0,0-.67-1.4l-.62-.78-1-5v-6.17h-.58v6.13l-.61,5.16-.88,1A2.42,2.42,0,0,0,271.43,198Z" style="fill:#fafafa"></path><path d="M247.7,198,246,206.9l0,.23c-4.39,14.89-1.84,30.09-1.22,45.12.65,16-2,31.74-1.56,48.66,1-.63,1.89-.94,2.79,0,1.32.92,2.46,1.22,3.48,0,1.34,0,2.25-.64,3,0,1-13.14,2.34-26.92,1-35.9-.19-1.83,5.32-1.34,5.44-3.92.58-11.86-1.89-33.62-3.94-52.92a1.4,1.4,0,0,0-.05-.41l-2.3-9.8a3.52,3.52,0,0,0-.68-1.4l-.62-.78-1-5v-6.17h-.58v6.13l-.61,5.16-.88,1A2.23,2.23,0,0,0,247.7,198Z" style="fill:#fafafa"></path><circle cx="408.63" cy="101.39" r="24.83" transform="translate(231.8 483.48) rotate(-79.1)" style="fill:#e0e0e0"></circle><circle cx="408.63" cy="101.39" r="21.11" transform="translate(243.1 488.51) rotate(-80.78)" style="fill:#f0f0f0"></circle><polyline points="407.64 86.91 407.64 96.13 397.86 101.67" style="fill:#f0f0f0"></polyline><path d="M397.86,102.67a1,1,0,0,1-.87-.51,1,1,0,0,1,.37-1.36l9.28-5.25V86.91a1,1,0,1,1,2,0v9.22a1,1,0,0,1-.51.87l-9.78,5.54A1.12,1.12,0,0,1,397.86,102.67Z" style="fill:#e0e0e0"></path><path d="M413.67,345.66s-20-13.13-16.55-18.2c1.85-2.72,12.28,4.73,12.28,4.73s-19.63-22.88-13.67-27.84c3.07-2.56,12.83,9.53,12.83,9.53s-13.31-33.08-4.69-35.37c7.75-2.05,12.09,29.7,12.09,29.7s7.3-17.63,11.6-15.44c7.44,3.79-9.81,31.94-9.81,31.94s9.39-10.8,12.28-8.45c6.14,5-12.11,29.15-12.11,29.15Z" style="fill:#ebebeb"></path><path d="M415,346.13s-14-9.89-11.08-13c1.89-2,9,6.52,9,6.52l-2.6-14.4s-14.47-11.77-11-14.77c3.14-2.7,11.68,11.77,11.68,11.77s1.29-7.37.79-9.78c-1.37-6.66-13-24.55-6.48-26.44s8.36,19.18,8.68,26c.06,1.3.1,5.19.1,5.19s6.7-19.94,11.18-17.36C431,303.12,413.44,323,413.44,323l1.8,11.08s8-13.66,11.07-11.18c3.67,3-10.38,15.77-10.38,15.77s.41,4.55,0,6A7.76,7.76,0,0,1,415,346.13Z" style="fill:#e0e0e0"></path><path d="M425.67,345.48s21.06-11.39,18-16.74c-1.62-2.86-12.63,3.68-12.63,3.68s21.48-21.15,16-26.59c-2.84-2.81-13.59,8.41-13.59,8.41s16.05-31.84,7.66-34.84c-7.55-2.7-14.55,28.57-14.55,28.57s-5.79-18.18-10.26-16.36c-7.74,3.15,7.09,32.65,7.09,32.65s-8.45-11.55-11.53-9.46c-6.53,4.44,9.61,30.07,9.61,30.07Z" style="fill:#f5f5f5"></path><path d="M424.27,345.84s14.76-8.68,12.13-12.06c-1.71-2.18-9.51,5.74-9.51,5.74l3.81-14.13s15.4-10.51,12.18-13.79c-2.9-3-12.62,10.75-12.62,10.75s-.67-7.46,0-9.81c1.93-6.53,15.05-23.38,8.69-25.81S429,305.15,428.13,312c-.17,1.29-.54,5.17-.54,5.17s-5-20.44-9.67-18.25c-5.89,2.77,9.88,24.07,9.88,24.07l-2.72,10.89s-6.84-14.28-10.1-12.07c-3.9,2.65,9,16.58,9,16.58s-.79,4.5-.51,6A8,8,0,0,0,424.27,345.84Z" style="fill:#e6e6e6"></path><path d="M426.11,382.39H415.62a7.82,7.82,0,0,1-7.8-7.33l-1.94-31.59h30l-1.94,31.59A7.82,7.82,0,0,1,426.11,382.39Z" style="fill:#ebebeb"></path></g><g id="freepik--Shadow--inject-3"><ellipse id="freepik--path--inject-3" cx="250" cy="416.24" rx="193.89" ry="11.32" style="fill:#f5f5f5"></ellipse></g><g id="freepik--Mirror--inject-3"><polygon points="393.89 414.92 350.86 414.92 350.86 410.92 389.28 410.92 356.28 180.07 360.24 179.5 393.89 414.92" style="fill:#46D4FF"></polygon><g style="opacity:0.2"><polygon points="393.89 414.92 350.86 414.92 350.86 410.92 389.28 410.92 356.28 180.07 360.24 179.5 393.89 414.92" style="fill:#f5f5f5"></polygon></g><rect x="269.11" y="109.73" width="96.91" height="305.54" style="fill:#46D4FF"></rect><rect x="269.13" y="109.73" width="96.91" height="305.54" style="fill:#fff;opacity:0.43"></rect><rect x="270.71" y="116.59" width="91.23" height="291.5" style="fill:#fff;opacity:0.30000000000000004"></rect><rect x="272.31" y="120.15" width="87.99" height="284.7" style="fill:#e6e6e6"></rect><polygon points="305.1 182.81 298.2 191.43 290.8 200.68 290.61 208.63 308.27 193.07 305.1 182.81" style="fill:#e3887b"></polygon><polygon points="303.48 190.04 302.46 196.06 296.37 204.4 290.74 208.63 291.24 200.24 293.66 197.16 303.48 190.04" style="opacity:0.2"></polygon><path d="M318.25,167.68s2.5-12.5,15.37-10,6.88,20.07,4.25,25.6-3,10,.13,12.53c0,0-4.25,1.21-6.5-1.71,0,0,.12,2.71,1.62,3.83,0,0-12.94-4.62-9.66-19.75S318.25,167.68,318.25,167.68Z" style="fill:#263238"></path><path d="M304.34,219.87l25.18,1.36s1.26-13,3.34-19.93c.2-.67.42-1.36.65-2.08.55-1.7,3.84-11.49,1.51-14.53a40,40,0,0,0-7.33-1.47,98.73,98.73,0,0,0-11.8-1.07c-5.11,0-11,.46-11,.46s-.83.18-1.36,4.81c-.24,2.22-2,6.27-1.86,12,0,.67,1.13,1.75,1.75,2.28C303.59,206.84,303.89,213,304.34,219.87Z" style="fill:#263238"></path><path d="M304.34,219.87l25.18,1.36s1.26-13,3.34-19.93c.2-.67.42-1.36.65-2.08.55-1.7,3.84-11.49,1.51-14.53a40,40,0,0,0-7.33-1.47,98.73,98.73,0,0,0-11.8-1.07c-5.11,0-11,.46-11,.46s-.83.18-1.36,4.81c-.24,2.22-2,6.27-1.86,12,0,.67,1.13,1.75,1.75,2.28C303.59,206.84,303.89,213,304.34,219.87Z" style="fill:#fff;opacity:0.1"></path><path d="M314.91,188.25c7.95-1,10.34-4.42,10.34-4.42-3.25-3.06-2.66-7.58-1.83-10.4a16.16,16.16,0,0,1,1-2.6l-9.57,1.79a27.54,27.54,0,0,1,.37,4,12.07,12.07,0,0,1-.27,3c-.65,2.86-2.28,2.9-2.28,2.9C311,185.65,314.91,188.25,314.91,188.25Z" style="fill:#e3887b"></path><path d="M314.8,179.85a3.31,3.31,0,0,1-1.85,2.59c3.8-.5,7.66-2.6,9.47-5.24.45-1.56.79-3,.79-3l-8.78,1.64A27.54,27.54,0,0,1,314.8,179.85Z" style="opacity:0.2;isolation:isolate"></path><path d="M307.88,148.26s-6.49.25-8.24,5.75-.36,11.65,9.33,18.21,17.8.11,21.55-4.36,1.87-19.63-8.88-21.43S307.88,148.26,307.88,148.26Z" style="fill:#263238"></path><path d="M314.09,150c-8.24,1.19-10.26,6-9.63,14.57.77,10.72,4.22,17.92,14.19,14.17C332.21,173.68,327.78,148.06,314.09,150Z" style="fill:#e4897b"></path><path d="M309.72,163.38a17.25,17.25,0,0,1-1.91,3.76,2.3,2.3,0,0,0,2.31.62Z" style="fill:#de5753"></path><path d="M314.66,162c.09.68.52,1.18,1,1.13s.76-.65.67-1.33-.51-1.19-1-1.13S314.58,161.3,314.66,162Z" style="fill:#263238"></path><path d="M315.53,160.66l-1.55-.4S314.87,161.41,315.53,160.66Z" style="fill:#263238"></path><path d="M306.2,162.85c.08.68.52,1.19,1,1.13s.75-.64.67-1.32-.51-1.19-1-1.14S306.12,162.17,306.2,162.85Z" style="fill:#263238"></path><path d="M307.07,161.53l-1.55-.4S306.4,162.29,307.07,161.53Z" style="fill:#263238"></path><path d="M317.68,157.36a.34.34,0,0,0,.26-.12.36.36,0,0,0,0-.5,4.65,4.65,0,0,0-4.09-.81.35.35,0,1,0,.19.68,4,4,0,0,1,3.42.65A.33.33,0,0,0,317.68,157.36Z" style="fill:#263238"></path><path d="M304.7,158.3a.33.33,0,0,0,.23-.09,3.51,3.51,0,0,1,2.88-1.07.36.36,0,0,0,.42-.28.35.35,0,0,0-.27-.42,4.27,4.27,0,0,0-3.5,1.24.35.35,0,0,0,.24.62Z" style="fill:#263238"></path><path d="M325.1,162.63s-4.83-6.21-5-11.53c0,0-17.3-4.31-15.71,12.39,0,0-3.72-14.49,10.4-16.87s17.06,18.36,10.63,25.6C325.42,172.22,328.1,166.52,325.1,162.63Z" style="fill:#263238"></path><path d="M324,164.57a3.65,3.65,0,0,1,3.41-3.87c2.6-.09,4.57,5-1.6,7.16C324.94,168.17,324.29,167.35,324,164.57Z" style="fill:#e4897b"></path><path d="M312.05,172.43a4.74,4.74,0,0,0,4.72-3.26.36.36,0,0,0-.24-.44.35.35,0,0,0-.44.24,4.06,4.06,0,0,1-4.19,2.75.34.34,0,0,0-.38.32.34.34,0,0,0,.32.38Z" style="fill:#263238"></path><path d="M309,145s-5.29-2.09-5.06,2.66,20.23,16.48,30.36,15.74c0,0-2.75-.72-3.63-1.92a11.83,11.83,0,0,0-3.69-15C316.43,138.14,309,145,309,145Z" style="fill:#263238"></path><path d="M319.89,157c-.12,2.25,1.2,4,2.7,5.75-7.62-2.31-13.83-6.34-17.77-13.11Z" style="fill:#263238"></path><path d="M340.87,392.88,336,395.72a92.41,92.41,0,0,0-7.34-8.7h0c-1.4-1.48-2.87-3.12-4.4-4.88-3.06-3.51-6.37-7.52-9.84-11.83l-3.11-3.89c-12.09-15.21-25.16-33.09-30.05-45.18-1.52-3.76-2.26-7-1.93-9.34,1-7.22,3.8-18.09,7-28.59,4.88-16.05,10.37-31.26,10.37-31.26l13.49,22.85s-4.14,9.87-7.91,20.38c-3.71,10.32-7.06,21.27-5.82,24.12.12.28.27.61.44,1,2.24,4.64,8.44,15.15,15.48,26.76l2.15,3.53c3.78,6.2,7.71,12.57,11.35,18.42,1.42,2.3,2.8,4.52,4.11,6.62C336.24,385.65,340.87,392.88,340.87,392.88Z" style="fill:#e4897b"></path><path d="M311.08,366.41c6.38,8,12.51,15.3,17.07,20.6.65-3.26,1.31-7.12,1.83-11.33-5.27-8.46-11.72-18.9-17.58-28.57A110.64,110.64,0,0,1,311.08,366.41Z" style="opacity:0.2;isolation:isolate"></path><path d="M314.46,370.3l.12-19.66.16-26.75.06-4.66.28-20.34.41-30,20-9c2.68,11.4,1.68,26.68-.34,40.4-1.67,11.39-4,21.71-5.6,27.86C328.62,331.84,328,334,328,334a308.47,308.47,0,0,1-2.06,35c-.51,4.58-1.06,9-1.63,13.07-1.14,8.24-2.31,15.21-3.15,19.85h-6.88Z" style="fill:#e4897b"></path><path d="M296.75,252l13.49,22.85s-4.14,9.87-7.91,20.38c-3.71,10.32-7.06,21.27-5.82,24.12.12.28.27.61.44,1-5,1.7-10.89,1.52-15.65.88-1.52-3.76-2.26-7-1.93-9.34,1-7.22,3.8-18.09,7-28.59C291.26,267.25,296.75,252,296.75,252Z" style="opacity:0.2;isolation:isolate"></path><path d="M335.15,300.29c-1.67,11.39-4,21.71-5.6,27.86-6.57-2.1-11-6-14.75-8.92l.28-20.34.41-30,20-9C338.17,271.29,337.17,286.57,335.15,300.29Z" style="opacity:0.2;isolation:isolate"></path><path d="M298.06,239.79l6.28-19.92,25.18,1.36C342.27,248.69,346,319,346,319s-13.25,6.84-20.27,0-15.23,0-23.39,0-11.84-10-20.09-8.56c-3,.52-4.82-.37-6-1.71V293.28A198.82,198.82,0,0,1,298.06,239.79Z" style="fill:#46D4FF"></path><path d="M334.86,396.76s5-7.46,5.57-7c6.11,4.44,10.59,4.53,8,7.91L345.12,402h-10A35.11,35.11,0,0,0,334.86,396.76Z" style="fill:#263238"></path><path d="M331.91,398.35a2.16,2.16,0,0,1,1.07-.23,6.61,6.61,0,0,1,1.38.18c-1.2.75-2.53,1.34-2.86,1.12-.11-.07-.07-.31-.05-.44A.9.9,0,0,1,331.91,398.35Z" style="fill:none"></path><path d="M334.56,398.82c-.36,1.38-1,3-1.5,3.11,0,0-.18.05-.41-.24a.5.5,0,0,1-.09-.39C332.66,400.56,333.77,399.48,334.56,398.82Z" style="fill:none"></path><path d="M331.23,399.81c.39.26,1.16,0,1.91-.3a3.64,3.64,0,0,0-1.05,1.73.94.94,0,0,0,.19.74h1.47a10.55,10.55,0,0,0,1.42-3.72.14.14,0,0,0,0-.09h0a.25.25,0,0,0,0-.07h0l0-.06h0l-.08,0c-.1,0-2.2-.69-3.34,0a1.4,1.4,0,0,0-.68.94Q330.85,399.55,331.23,399.81Zm3.33-1c-.36,1.38-1,3-1.5,3.11,0,0-.18.05-.41-.24a.5.5,0,0,1-.09-.39C332.66,400.56,333.77,399.48,334.56,398.82Zm-3.11.16a.9.9,0,0,1,.46-.63,2.16,2.16,0,0,1,1.07-.23,6.61,6.61,0,0,1,1.38.18c-1.2.75-2.53,1.34-2.86,1.12C331.39,399.35,331.43,399.11,331.45,399Z" style="fill:#46D4FF"></path><polygon points="352.43 201.61 351.98 202.88 354.86 217.96 355.84 217.62 353.06 202.13 352.43 201.61" style="fill:#263238"></polygon><polygon points="352.43 201.61 351.98 202.88 354.86 217.96 355.84 217.62 353.06 202.13 352.43 201.61" style="fill:#fff;opacity:0.30000000000000004"></polygon><path d="M308,189.11s-17.11,10.26-17.89,11-3.29,2.87-3.06,5.16,3,3.34,3.74,3.34c2.88,0,10-8.24,19.71-17.16Z" style="fill:#e3887b"></path><polygon points="325.72 227.23 324.58 227.06 330.95 212.04 331.44 212.43 325.72 227.23" style="fill:#46D4FF"></polygon><polygon points="325.72 227.23 324.58 227.06 330.95 212.04 331.44 212.43 325.72 227.23" style="opacity:0.2"></polygon><polygon points="302.37 228.19 301.02 227.74 296.82 211.2 297.99 210.75 302.37 228.19" style="fill:#46D4FF"></polygon><polygon points="302.37 228.19 301.02 227.74 296.82 211.2 297.99 210.75 302.37 228.19" style="opacity:0.2"></polygon><path d="M336.14,315.69c-4.17,2.18-4.24,2.36-7.8,2.1-.09.55-.21,1.28-.34,2a4.13,4.13,0,0,0-2.45.6c-5.95-2.46-5.42-2.12-10.16.11-1-.5-1.82.62-3.17.28a5.26,5.26,0,0,0-4-.65c-1.55,0-1.22-2.8-2.79-2.82-2.65,2.27-5.18,5.33-5.48,4.33l.81-2.88a5.9,5.9,0,0,0-3,.33,1.24,1.24,0,0,0-1.39-.71l-.16-1.63c-1.07-.83-2.38-.34-3.83-.52a2.35,2.35,0,0,0-2.38-.47l-.34-.38c-.07-5.32,2.66-33.91,5.85-46.09l33-4.65C331.27,276.67,333.73,295.75,336.14,315.69Z" style="fill:#46D4FF"></path><path d="M336.14,315.69c-4.17,2.18-4.24,2.36-7.8,2.1-.09.55-.21,1.28-.34,2a4.13,4.13,0,0,0-2.45.6c-5.95-2.46-5.42-2.12-10.16.11-1-.5-1.82.62-3.17.28a5.26,5.26,0,0,0-4-.65c-1.55,0-1.22-2.8-2.79-2.82-2.65,2.27-5.18,5.33-5.48,4.33l.81-2.88a5.9,5.9,0,0,0-3,.33,1.24,1.24,0,0,0-1.39-.71l-.16-1.63c-1.07-.83-2.38-.34-3.83-.52a2.35,2.35,0,0,0-2.38-.47l-.34-.38c-.07-5.32,2.66-33.91,5.85-46.09l33-4.65C331.27,276.67,333.73,295.75,336.14,315.69Z" style="opacity:0.4"></path><path d="M328.34,317.79a20.56,20.56,0,0,0,2.38.08l-4.93-28Z" style="opacity:0.2"></path><path d="M306.52,318.14l1.42-35.6-.59,37.21A9.87,9.87,0,0,1,306.52,318.14Z" style="opacity:0.2"></path><path d="M300.76,318.81l2-34.92-3.53,34.92A5,5,0,0,1,300.76,318.81Z" style="opacity:0.2"></path><path d="M295.06,316.34a1.94,1.94,0,0,1,1.13.46l2.73-34.26Z" style="opacity:0.2"></path><path d="M285.34,217.11c-.85.37-.71,1.12,0,1.12h54.12c.83,0,.59-.85,0-1.12l-24.69-15.84-.28-6.59c-.07-1.35.59-2.13,2.48-2,1.32,0,2,.54,1.95,1.69l-.15,2.63h1.12v-2.7c-.08-1.64-1-2.6-3-2.55-2.61-.19-3.46,1-3.45,2.7v6.73Zm4.15,0,24.58-13.33,21.1,13.33Z" style="fill:#263238"></path><path d="M285.34,217.11c-.85.37-.71,1.12,0,1.12h54.12c.83,0,.59-.85,0-1.12l-24.69-15.84-.28-6.59c-.07-1.35.59-2.13,2.48-2,1.32,0,2,.54,1.95,1.69l-.15,2.63h1.12v-2.7c-.08-1.64-1-2.6-3-2.55-2.61-.19-3.46,1-3.45,2.7v6.73Zm4.15,0,24.58-13.33,21.1,13.33Z" style="fill:#fff;opacity:0.4"></path><path d="M333.74,236.19c.55-1.19-3.62-5.81-7.05-9.9l-13.57,5c-1.59-1.16-8.48-2.85-13.43-4.35-3.51,3.19-6.39,6.15-7.2,8.4,3.08,7.58,4.47,16.38,7.95,21-3.62,5.64-6.59,11.32-5.89,12.84a48.49,48.49,0,0,0,15.34,4.61c9.51-2.89,16.56-5.89,19.66-9,0-2.9-3-6.24-5.56-11.25C326.77,252.47,330,243.83,333.74,236.19Z" style="fill:#46D4FF"></path><path d="M333.74,236.19c.55-1.19-3.62-5.81-7.05-9.9l-13.57,5c-1.59-1.16-8.48-2.85-13.43-4.35-3.51,3.19-6.39,6.15-7.2,8.4,3.08,7.58,4.47,16.38,7.95,21-3.62,5.64-6.59,11.32-5.89,12.84a48.49,48.49,0,0,0,15.34,4.61c9.51-2.89,16.56-5.89,19.66-9,0-2.9-3-6.24-5.56-11.25C326.77,252.47,330,243.83,333.74,236.19Z" style="opacity:0.2"></path><path d="M327.69,229l-.62-.84,4.26-16.51a.16.16,0,0,1,.23,0l.36.22a.14.14,0,0,1,.1.2Z" style="fill:#46D4FF"></path><path d="M300.42,227.13l-3.76-16.62c0-.1-.15-.11-.24,0l-.61.35c-.09,0-.15.09-.11.16l4.09,16.76Z" style="fill:#46D4FF"></path><path d="M316.34,189l4.3,2.48a.38.38,0,0,1-.08.69l-6,1.88a1.88,1.88,0,0,1-1.88-.43l-4.77-4.5,7.68-.3A1.47,1.47,0,0,1,316.34,189Z" style="fill:#e3887b"></path><path d="M344.18,221.33l7.55-4.1a7.82,7.82,0,0,1,4.13-.94v34.86l-3.66-1.54Z" style="fill:#46D4FF"></path><path d="M344.18,221.33l7.55-4.1a7.82,7.82,0,0,1,4.13-.94v34.86l-3.66-1.54Z" style="fill:#fff;opacity:0.2"></path><path d="M353.33,245.84l2.53-.08v96.95a14.29,14.29,0,0,1-8.83,2.37c-6,.07-10.4-7.07-14.85-13.8Z" style="fill:#46D4FF"></path><path d="M353.33,245.84l2.53-.08v96.95a14.29,14.29,0,0,1-8.83,2.37c-6,.07-10.4-7.07-14.85-13.8Z" style="fill:#fff;opacity:0.1"></path><path d="M372.42,330a1.67,1.67,0,0,0-1.09-.36A1.53,1.53,0,0,1,372.42,330Z" style="fill:#46D4FF"></path><path d="M364.24,329.56h0Z" style="fill:#46D4FF"></path><path d="M363.64,329.58h0Z" style="fill:#46D4FF"></path><path d="M371,329.66a1.59,1.59,0,0,1,.3-.06A1.07,1.07,0,0,0,371,329.66Z" style="fill:#46D4FF"></path><path d="M364.24,329.56a2.12,2.12,0,0,1,.41.08h0A3.28,3.28,0,0,0,364.24,329.56Z" style="fill:#46D4FF"></path><path d="M362.69,330a2.15,2.15,0,0,1,.95-.43A2.58,2.58,0,0,0,362.69,330Z" style="fill:#46D4FF"></path><path d="M364.09,329.55a2,2,0,0,0-.42,0A2,2,0,0,1,364.09,329.55Z" style="fill:#46D4FF"></path><path d="M335.59,185.68l12.89,14.49-2.68-3,1.8,4.22.88-1.2,7.38-7.46v9.42c-3,3.94-5.7,6.61-7.74,6.5L332.56,197C329,195.38,329.76,185.26,335.59,185.68Z" style="fill:#e3887b"></path><polygon points="345.8 197.15 348.48 200.17 347.6 201.37 345.8 197.15" style="fill:#e3887b"></polygon><polygon points="345.8 197.15 348.48 200.17 347.6 201.37 345.8 197.15" style="opacity:0.2"></polygon><path d="M341.64,210.38a.08.08,0,0,1,0-.15l14.26-8v8.15Z" style="fill:none"></path><path d="M339.32,210.38,355.86,201v1.21l-14.26,8a.08.08,0,0,0,0,.15h14.22v1.13H339.32C338.62,211.51,338.48,210.75,339.32,210.38Z" style="fill:#263238"></path><path d="M339.32,210.38,355.86,201v1.21l-14.26,8a.08.08,0,0,0,0,.15h14.22v1.13H339.32C338.62,211.51,338.48,210.75,339.32,210.38Z" style="fill:#fff;opacity:0.4"></path><polygon points="272.31 152.05 293.35 120.15 308.63 120.15 272.31 173.8 272.31 152.05" style="fill:#fff;opacity:0.2"></polygon><polygon points="272.31 331.8 360.3 193.54 360.3 221.15 272.35 356.32 272.31 354.2 272.31 331.8" style="fill:#fff;opacity:0.2"></polygon><polygon points="272.31 305.61 360.3 169.78 360.25 174.68 272.35 312.55 272.31 305.61" style="fill:#fff;opacity:0.2"></polygon><polygon points="324.79 404.84 360.3 351 360.3 376.19 339.6 404.84 324.79 404.84" style="fill:#fff;opacity:0.2"></polygon><path d="M126.41,330l-.31.25h0C126.21,330.11,126.31,330,126.41,330Z" style="fill:#46D4FF"></path></g><g id="freepik--Character--inject-3"><polygon points="205.14 184.17 212.03 192.78 219.44 202.03 219.63 209.99 201.97 194.43 205.14 184.17" style="fill:#e3887b"></polygon><polygon points="206.76 191.4 207.78 197.42 213.87 205.75 219.5 209.99 219 201.59 216.58 198.51 206.76 191.4" style="opacity:0.2"></polygon><path d="M192,169s-2.5-12.5-15.37-10-6.88,20.07-4.25,25.59,3,10-.13,12.53c0,0,4.25,1.22,6.5-1.7,0,0-.12,2.7-1.62,3.83,0,0,12.94-4.63,9.66-19.75S192,169,192,169Z" style="fill:#263238"></path><path d="M205.89,221.22l-25.17,1.37s-1.26-13-3.34-19.94c-.2-.66-.42-1.35-.65-2.07-.55-1.71-3.84-11.49-1.51-14.54a40.75,40.75,0,0,1,7.32-1.47,99.07,99.07,0,0,1,11.81-1.06c5.11,0,11,.46,11,.46s.84.17,1.37,4.81c.24,2.22,2,6.26,1.86,12,0,.67-1.13,1.75-1.75,2.28C206.65,208.2,206.35,214.37,205.89,221.22Z" style="fill:#263238"></path><path d="M205.89,221.22l-25.17,1.37s-1.26-13-3.34-19.94c-.2-.66-.42-1.35-.65-2.07-.55-1.71-3.84-11.49-1.51-14.54a40.75,40.75,0,0,1,7.32-1.47,99.07,99.07,0,0,1,11.81-1.06c5.11,0,11,.46,11,.46s.84.17,1.37,4.81c.24,2.22,2,6.26,1.86,12,0,.67-1.13,1.75-1.75,2.28C206.65,208.2,206.35,214.37,205.89,221.22Z" style="fill:#fff;opacity:0.1"></path><path d="M195.33,189.6c-8-1-10.34-4.42-10.34-4.42,3.25-3.06,2.66-7.58,1.83-10.4a16.16,16.16,0,0,0-1-2.6l9.57,1.79a27.54,27.54,0,0,0-.37,4,12.07,12.07,0,0,0,.27,3c.65,2.86,2.28,2.9,2.28,2.9C199.27,187,195.33,189.6,195.33,189.6Z" style="fill:#e3887b"></path><path d="M195.44,181.21a3.32,3.32,0,0,0,1.85,2.59c-3.8-.5-7.66-2.61-9.47-5.25-.45-1.56-.8-3-.8-3l8.79,1.64A27.54,27.54,0,0,0,195.44,181.21Z" style="opacity:0.2;isolation:isolate"></path><path d="M202.35,149.62s6.49.25,8.24,5.75.37,11.64-9.32,18.2-17.8.12-21.55-4.36-1.88-19.62,8.87-21.42S202.35,149.62,202.35,149.62Z" style="fill:#263238"></path><path d="M196.15,151.4c8.24,1.19,10.26,6,9.63,14.56-.78,10.73-4.22,17.93-14.2,14.17C178,175,182.46,149.42,196.15,151.4Z" style="fill:#e4897b"></path><path d="M200.52,164.73a17.46,17.46,0,0,0,1.91,3.77,2.3,2.3,0,0,1-2.31.62Z" style="fill:#de5753"></path><path d="M195.57,163.33c-.08.68-.51,1.19-1,1.13s-.76-.65-.68-1.33.52-1.18,1-1.13S195.66,162.65,195.57,163.33Z" style="fill:#263238"></path><path d="M194.71,162l1.55-.4S195.37,162.77,194.71,162Z" style="fill:#263238"></path><path d="M204,164.21c-.09.68-.52,1.18-1,1.13s-.76-.65-.67-1.33.51-1.19,1-1.13S204.12,163.53,204,164.21Z" style="fill:#263238"></path><path d="M203.17,162.89l1.55-.4S203.83,163.64,203.17,162.89Z" style="fill:#263238"></path><path d="M192.56,158.71a.36.36,0,0,1-.26-.11.35.35,0,0,1,0-.5,4.65,4.65,0,0,1,4.09-.81.34.34,0,0,1,.24.43.35.35,0,0,1-.43.25,4,4,0,0,0-3.42.65A.38.38,0,0,1,192.56,158.71Z" style="fill:#263238"></path><path d="M205.54,159.65a.38.38,0,0,1-.24-.09,3.57,3.57,0,0,0-2.87-1.07.35.35,0,0,1-.15-.69,4.24,4.24,0,0,1,3.5,1.23.35.35,0,0,1,0,.5A.32.32,0,0,1,205.54,159.65Z" style="fill:#263238"></path><path d="M185.13,164s4.84-6.22,5-11.53c0,0,17.29-4.31,15.71,12.38,0,0,3.72-14.49-10.4-16.86s-17.06,18.36-10.63,25.59C184.82,173.57,182.14,167.88,185.13,164Z" style="fill:#263238"></path><path d="M186.23,165.92a3.65,3.65,0,0,0-3.42-3.86c-2.59-.09-4.57,5,1.61,7.15C185.3,169.52,185.94,168.71,186.23,165.92Z" style="fill:#e4897b"></path><path d="M198.19,173.78a4.72,4.72,0,0,1-4.72-3.25.37.37,0,0,1,.24-.45.36.36,0,0,1,.44.24,4.06,4.06,0,0,0,4.19,2.75.34.34,0,0,1,.38.33.36.36,0,0,1-.32.38Z" style="fill:#263238"></path><path d="M201.27,146.33s5.29-2.09,5,2.66S186.09,165.48,176,164.73c0,0,2.75-.71,3.62-1.91a11.84,11.84,0,0,1,3.69-15C193.81,139.49,201.27,146.33,201.27,146.33Z" style="fill:#263238"></path><path d="M190.35,158.36c.12,2.24-1.2,4-2.7,5.75,7.62-2.32,13.83-6.34,17.77-13.12Z" style="fill:#263238"></path><path d="M169.37,394.24l4.83,2.84a92.41,92.41,0,0,1,7.34-8.7h0c1.4-1.48,2.87-3.12,4.4-4.88,3.06-3.51,6.37-7.52,9.84-11.83l3.11-3.89c12.09-15.21,25.16-33.09,30.05-45.18,1.52-3.76,2.26-6.95,1.93-9.34-1-7.22-3.8-18.09-7-28.59-4.88-16.05-10.37-31.26-10.37-31.26L200,276.25s4.14,9.87,7.91,20.38c3.71,10.32,7.06,21.27,5.82,24.12-.12.28-.27.61-.44,1-2.24,4.64-8.44,15.15-15.48,26.76L195.66,352c-3.78,6.2-7.71,12.57-11.35,18.42-1.42,2.3-2.8,4.52-4.11,6.62C174,387,169.37,394.24,169.37,394.24Z" style="fill:#e4897b"></path><path d="M199.16,367.77c-6.38,8-12.51,15.3-17.07,20.6-.65-3.26-1.31-7.12-1.83-11.33,5.27-8.46,11.72-18.9,17.58-28.57A110.64,110.64,0,0,0,199.16,367.77Z" style="opacity:0.2;isolation:isolate"></path><path d="M175.09,301.65c1.67,11.39,4,21.71,5.6,27.86.93,3.69,1.56,5.87,1.56,5.87a308.47,308.47,0,0,0,2.06,35c.51,4.58,1.06,9,1.63,13.07,2.1,15.14,4.31,26,4.31,26l5.75-.75-.22-37.09L195.66,352l-.16-26.75-.06-4.66-.28-20.34-.41-30-20-9C172.07,272.65,173.07,287.93,175.09,301.65Z" style="fill:#e4897b"></path><path d="M213.49,253.4,200,276.25s4.14,9.87,7.91,20.38c3.71,10.32,7.06,21.27,5.82,24.12-.12.28-.27.61-.44,1,5,1.7,10.89,1.52,15.65.88,1.52-3.76,2.26-6.95,1.93-9.34-1-7.22-3.8-18.09-7-28.59C219,268.61,213.49,253.4,213.49,253.4Z" style="opacity:0.2;isolation:isolate"></path><path d="M175.09,301.65c1.67,11.39,4,21.71,5.6,27.86,6.57-2.1,11-6,14.75-8.92l-.28-20.34-.41-30-20-9C172.07,272.65,173.07,287.93,175.09,301.65Z" style="opacity:0.2;isolation:isolate"></path><path d="M169.81,391.09c.59-.43,5.57,7,5.57,7s-1.11,7.77,1.14,12.79-2.12,4.59-5.75-.17l-9-11.75C159.21,395.62,163.7,395.53,169.81,391.09Z" style="fill:#263238"></path><path d="M177.07,403.75c-1.14-.27-1.87-3.49-2-4.14a.28.28,0,0,1,0-.09h0l0-.07h0a.1.1,0,0,1,0-.06h0a.25.25,0,0,1,.08-.05c.11,0,2.21-.7,3.35,0a1.38,1.38,0,0,1,.68.94c.09.44,0,.75-.24.92s-1.16,0-1.91-.3a3.77,3.77,0,0,1,1.05,1.73,1,1,0,0,1-.19.75,1,1,0,0,1-.73.43Zm.1-.46c.05,0,.19,0,.42-.24a.54.54,0,0,0,.09-.4c-.1-.73-1.21-1.82-2-2.48C176,401.56,176.64,403.16,177.17,403.29Zm-1.3-3.63c1.21.74,2.54,1.34,2.87,1.11.1-.07.07-.3,0-.43a.89.89,0,0,0-.45-.63,2.18,2.18,0,0,0-1.08-.23A6.08,6.08,0,0,0,175.87,399.66Z" style="fill:#46D4FF"></path><path d="M188.21,405.83c0-.73,9-.16,9-.16s5.5,5.6,10.85,6.86,2.36,4.47-3.61,4.47H189.63C185.38,417,188,413.38,188.21,405.83Z" style="fill:#263238"></path><path d="M198.18,406.83a.16.16,0,0,1-.08-.06h0l0-.06h0s0,0,0-.08h0a.29.29,0,0,1,0-.09c0-.11.79-2.18,2-2.69a1.36,1.36,0,0,1,1.15,0c.41.19.61.44.59.75,0,.47-.66.94-1.39,1.33a3.75,3.75,0,0,1,2,.22.93.93,0,0,1,.47.6.86.86,0,0,1-.21,1,1.27,1.27,0,0,1-.79.21A11.34,11.34,0,0,1,198.18,406.83Zm.82-.15c1.32.56,3,1.05,3.38.7,0,0,.15-.12.06-.47a.52.52,0,0,0-.26-.31,2.26,2.26,0,0,0-1.05-.2A10.42,10.42,0,0,0,199,406.68Zm1.24-2.39a3.92,3.92,0,0,0-1.54,1.92c1.33-.5,2.61-1.2,2.63-1.6,0-.12-.2-.24-.32-.3a1,1,0,0,0-.41-.1A.94.94,0,0,0,200.24,404.29Z" style="fill:#46D4FF"></path><path d="M205.89,221.22l6.29,19.93A198.69,198.69,0,0,1,236,303.83s.25,9.42-8,8-11.94,8.55-20.1,8.55-16.35-6.84-23.38,0-20.27,0-20.27,0S168,250,180.72,222.59Z" style="fill:#46D4FF"></path><path d="M133.62,186.66l8.8-3.44a.58.58,0,0,1,.58.09l4.46,3.76-9.67,3.09a.6.6,0,0,1-.49-.06l-3.78-2.42A.57.57,0,0,1,133.62,186.66Z" style="fill:#e3887b"></path><path d="M174.65,187c5.83-.42,6.62,9.71,3,11.33L162.12,210c-4.41.22-11.68-12.41-19.33-23l4.67,0,14.3,14.46Z" style="fill:#e3887b"></path><polygon points="162.64 202.72 164.44 198.5 161.76 201.52 162.64 202.72" style="opacity:0.2"></polygon><path d="M142.81,195.83v-6.74c0-1.74-.83-2.88-3.45-2.7-2,0-2.91.91-3,2.55v2.71h1.13l-.15-2.64c-.1-1.15.63-1.65,1.95-1.68,1.88-.14,2.55.64,2.47,2l-.28,6.6L116.8,211.74c-.59.27-.84,1.12,0,1.12h54.11c.71,0,.85-.75,0-1.12Zm-23,15.11,22.35-14.2,26.47,14.85a.08.08,0,0,1,0,.15H120.05A.43.43,0,0,1,119.82,210.94Z" style="fill:#263238"></path><path d="M142.81,195.83v-6.74c0-1.74-.83-2.88-3.45-2.7-2,0-2.91.91-3,2.55v2.71h1.13l-.15-2.64c-.1-1.15.63-1.65,1.95-1.68,1.88-.14,2.55.64,2.47,2l-.28,6.6L116.8,211.74c-.59.27-.84,1.12,0,1.12h54.11c.71,0,.85-.75,0-1.12Zm-23,15.11,22.35-14.2,26.47,14.85a.08.08,0,0,1,0,.15H120.05A.43.43,0,0,1,119.82,210.94Z" style="fill:#fff;opacity:0.4"></path><path d="M129.88,202.25c.18-.25.34-.54.62-.63s.62.07.95.16l.9,17.83-1.24.34Z" style="fill:#263238"></path><path d="M129.88,202.25c.18-.25.34-.54.62-.63s.62.07.95.16l.9,17.83-1.24.34Z" style="fill:#fff;opacity:0.30000000000000004"></path><polygon points="157.81 202.96 158.26 204.24 155.38 219.31 154.4 218.98 157.18 203.49 157.81 202.96" style="fill:#263238"></polygon><polygon points="157.81 202.96 158.26 204.24 155.38 219.31 154.4 218.98 157.18 203.49 157.81 202.96" style="fill:#fff;opacity:0.30000000000000004"></polygon><path d="M104,332.64c5.75,7.89,11.55,10.57,17,11.1,6.15-.2,10.92-4.56,15.75-11.1,1.18-2,3.1-2.48,3.6,0l1.06,3a1.1,1.1,0,0,0,2.09-.09l.75-2.88a2.14,2.14,0,0,1,4.2,0l.9,4.72c1.4,3.81,5.34,9.36,14,9.08,6,.07,10.4-7.08,14.85-13.8L156.91,247.2l-26.15-.85Z" style="fill:#46D4FF"></path><path d="M104,332.64c5.75,7.89,11.55,10.57,17,11.1,6.15-.2,10.92-4.56,15.75-11.1,1.18-2,3.1-2.48,3.6,0l1.06,3a1.1,1.1,0,0,0,2.09-.09l.75-2.88a2.14,2.14,0,0,1,4.2,0l.9,4.72c1.4,3.81,5.34,9.36,14,9.08,6,.07,10.4-7.08,14.85-13.8L156.91,247.2l-26.15-.85Z" style="fill:#fff;opacity:0.1"></path><path d="M140,281.34,139.21,331a1.58,1.58,0,0,0-1.7.54Z" style="opacity:0.2"></path><path d="M147.56,331.38a2.1,2.1,0,0,0-2-.38V282.39Z" style="opacity:0.2"></path><path d="M122.26,221.49l7.65-3.66a6.16,6.16,0,0,1,5.86.28l8.11,4.88,6.68-4.17a7.91,7.91,0,0,1,7.95-.23l7.55,4.1L158,251l-4.49,1.89a4,4,0,0,1-3.57-.25l-4.89-3.29a3,3,0,0,0-3.42.06l-3.21,2.33a5.35,5.35,0,0,1-4.44.84l-4.86-1.25Z" style="fill:#46D4FF"></path><path d="M122.26,221.49l7.65-3.66a6.16,6.16,0,0,1,5.86.28l8.11,4.88,6.68-4.17a7.91,7.91,0,0,1,7.95-.23l7.55,4.1L158,251l-4.49,1.89a4,4,0,0,1-3.57-.25l-4.89-3.29a3,3,0,0,0-3.42.06l-3.21,2.33a5.35,5.35,0,0,1-4.44.84l-4.86-1.25Z" style="fill:#fff;opacity:0.2"></path><path d="M202.29,190.47s17.1,10.26,17.89,11,3.29,2.87,3.06,5.15-3,3.35-3.74,3.35c-2.89,0-10-8.24-19.71-17.16Z" style="fill:#e3887b"></path><polygon points="184.52 228.59 185.66 228.42 179.29 213.4 178.8 213.79 184.52 228.59" style="fill:#46D4FF"></polygon><polygon points="184.52 228.59 185.66 228.42 179.29 213.4 178.8 213.79 184.52 228.59" style="opacity:0.2"></polygon><polygon points="207.87 229.54 209.22 229.09 213.42 212.55 212.25 212.11 207.87 229.54" style="fill:#46D4FF"></polygon><polygon points="207.87 229.54 209.22 229.09 213.42 212.55 212.25 212.11 207.87 229.54" style="opacity:0.2"></polygon><path d="M174.1,317.05c4.16,2.18,4.24,2.35,7.8,2.1.09.54.21,1.28.33,2a4.23,4.23,0,0,1,2.46.6c5.94-2.45,5.42-2.12,10.16.12,1-.5,1.82.61,3.17.28,1.14-.89,2.55-.83,4-.66s1.22-2.79,2.8-2.81c2.65,2.27,5.18,5.33,5.47,4.33l-.8-2.89a6,6,0,0,1,3,.34,1.22,1.22,0,0,1,1.38-.71l.17-1.63c1.07-.83,2.38-.35,3.83-.53a2.39,2.39,0,0,1,2.38-.47l.34-.37c.07-5.33-2.66-33.91-5.85-46.09l-33-4.65C179,278,176.51,297.1,174.1,317.05Z" style="fill:#46D4FF"></path><path d="M174.1,317.05c4.16,2.18,4.24,2.35,7.8,2.1.09.54.21,1.28.33,2a4.23,4.23,0,0,1,2.46.6c5.94-2.45,5.42-2.12,10.16.12,1-.5,1.82.61,3.17.28,1.14-.89,2.55-.83,4-.66s1.22-2.79,2.8-2.81c2.65,2.27,5.18,5.33,5.47,4.33l-.8-2.89a6,6,0,0,1,3,.34,1.22,1.22,0,0,1,1.38-.71l.17-1.63c1.07-.83,2.38-.35,3.83-.53a2.39,2.39,0,0,1,2.38-.47l.34-.37c.07-5.33-2.66-33.91-5.85-46.09l-33-4.65C179,278,176.51,297.1,174.1,317.05Z" style="opacity:0.4"></path><path d="M181.9,319.15a20.68,20.68,0,0,1-2.38.07l4.93-28Z" style="opacity:0.2"></path><path d="M203.72,319.49,202.3,283.9l.59,37.2A9.05,9.05,0,0,0,203.72,319.49Z" style="opacity:0.2"></path><path d="M209.48,320.16l-2-34.91L211,320.16A4.92,4.92,0,0,0,209.48,320.16Z" style="opacity:0.2"></path><path d="M215.18,317.7a1.89,1.89,0,0,0-1.13.46l-2.73-34.26Z" style="opacity:0.2"></path><path d="M196.79,202.55v-6.74c0-1.74-.83-2.88-3.45-2.7-2-.05-2.91.91-3,2.55v2.71h1.13l-.15-2.63c-.1-1.15.63-1.66,2-1.69,1.89-.14,2.55.64,2.47,2l-.28,6.59-24.68,15.83c-.59.27-.84,1.13,0,1.13H224.9c.7,0,.84-.76,0-1.13Zm-21.72,15.91,21.09-13.33,24.59,13.33Z" style="fill:#263238"></path><path d="M196.79,202.55v-6.74c0-1.74-.83-2.88-3.45-2.7-2-.05-2.91.91-3,2.55v2.71h1.13l-.15-2.63c-.1-1.15.63-1.66,2-1.69,1.89-.14,2.55.64,2.47,2l-.28,6.59-24.68,15.83c-.59.27-.84,1.13,0,1.13H224.9c.7,0,.84-.76,0-1.13Zm-21.72,15.91,21.09-13.33,24.59,13.33Z" style="fill:#fff;opacity:0.4"></path><path d="M176.5,237.55c-.55-1.2,3.62-5.82,7.05-9.9l13.57,4.95c1.59-1.16,8.47-2.85,13.43-4.35,3.51,3.18,6.39,6.14,7.2,8.4-3.08,7.58-4.47,16.37-7.95,21,3.62,5.64,6.59,11.32,5.88,12.84a48.43,48.43,0,0,1-15.33,4.61c-9.51-2.89-16.56-5.9-19.66-9,0-2.91,3-6.24,5.56-11.25C183.47,253.83,180.21,245.18,176.5,237.55Z" style="fill:#46D4FF"></path><path d="M176.5,237.55c-.55-1.2,3.62-5.82,7.05-9.9l13.57,4.95c1.59-1.16,8.47-2.85,13.43-4.35,3.51,3.18,6.39,6.14,7.2,8.4-3.08,7.58-4.47,16.37-7.95,21,3.62,5.64,6.59,11.32,5.88,12.84a48.43,48.43,0,0,1-15.33,4.61c-9.51-2.89-16.56-5.9-19.66-9,0-2.91,3-6.24,5.56-11.25C183.47,253.83,180.21,245.18,176.5,237.55Z" style="opacity:0.2"></path><path d="M182.55,230.39l.62-.85L178.91,213a.16.16,0,0,0-.23,0l-.36.22c-.09,0-.13.09-.1.2Z" style="fill:#46D4FF"></path><path d="M209.82,228.49l3.75-16.63c.05-.1.15-.11.25,0l.61.34c.09.05.15.1.11.17l-4.09,16.75Z" style="fill:#46D4FF"></path><path d="M193.9,190.34l-4.3,2.49a.37.37,0,0,0,.07.68l6,1.89a1.91,1.91,0,0,0,1.88-.43l4.77-4.5-7.69-.3A1.32,1.32,0,0,0,193.9,190.34Z" style="fill:#e3887b"></path></g></svg>