<svg xmlns="http://www.w3.org/2000/svg" viewBox="0 0 750 500"><g id="freepik--background-complete--inject-7"><rect x="575.1" y="161.11" width="105.66" height="105.66" style="fill:#ebebeb"></rect><path d="M629.68,178.07a3.56,3.56,0,0,1,3.59,3.59v1.84a30.36,30.36,0,0,1,13,4.59,4.46,4.46,0,0,1,2.51,4,4.6,4.6,0,0,1-4.68,4.59,4.86,4.86,0,0,1-2.51-.75,30.14,30.14,0,0,0-8.6-3.67v16c12.69,3.18,18.12,8.27,18.12,17.21,0,9.19-7.18,15.29-17.79,16.29v5a3.56,3.56,0,0,1-3.59,3.59,3.63,3.63,0,0,1-3.68-3.59v-5.18a36.08,36.08,0,0,1-17.12-6.51,4.6,4.6,0,0,1-2.26-4,4.54,4.54,0,0,1,4.6-4.6,4.62,4.62,0,0,1,2.76.92,29.58,29.58,0,0,0,12.36,5.6V216.57c-12.2-3.17-17.88-7.76-17.88-17.2,0-8.94,7.1-15.12,17.54-16v-1.75A3.63,3.63,0,0,1,629.68,178.07Zm-3.34,28.48V191.77c-5.35.5-8,3.34-8,7C618.32,202.29,619.91,204.46,626.34,206.55Zm6.6,11.61v15.2c5.34-.58,8.27-3.25,8.27-7.26C641.21,222.42,639.37,220.17,632.94,218.16Z" style="fill:#fff"></path><rect x="69.25" y="45.99" width="105.66" height="105.66" style="fill:#ebebeb"></rect><polygon points="154.02 96.5 90.13 96.5 90.13 87.44 154.02 87.44 154.02 87.44 154.02 96.5" style="fill:#fff"></polygon><path d="M93.69,94.58l.12,1.92,2,31.69h52.53l2-31.69.12-1.92Zm19.44,26.61a1.72,1.72,0,0,1-1.72,1.74h-.27a1.43,1.43,0,0,1-1.43-1.44V101.85a1.43,1.43,0,0,1,1.43-1.42h.55a1.42,1.42,0,0,1,1.44,1.42Zm10.64,0a1.72,1.72,0,0,1-1.72,1.74h-.27a1.43,1.43,0,0,1-1.43-1.44V101.85a1.43,1.43,0,0,1,1.43-1.42h.55a1.42,1.42,0,0,1,1.44,1.42Zm10.65,0a1.73,1.73,0,0,1-1.72,1.74h-.28a1.44,1.44,0,0,1-1.43-1.44V101.85a1.43,1.43,0,0,1,1.43-1.42H133a1.43,1.43,0,0,1,1.45,1.42Z" style="fill:#fff"></path><path d="M128.87,91a6.8,6.8,0,1,1-6.79-6.79A6.8,6.8,0,0,1,128.87,91Z" style="fill:#fff"></path><polygon points="140.7 90.4 137.7 90.4 137.7 72.44 106.45 72.44 106.45 90.4 103.45 90.4 103.45 69.44 140.7 69.44 140.7 90.4" style="fill:#fff"></polygon></g><g id="freepik--Floor--inject-7"><path d="M49.81,443.78c208.34-.62,442-.62,650.38,0-208.34.61-442,.61-650.38,0Z" style="fill:#263238"></path></g><g id="freepik--Bag--inject-7"><polygon points="49.81 443.77 221.48 443.77 196.44 268.91 74.84 268.91 49.81 443.77" style="fill:#A96FFF"></polygon><polygon points="74.84 268.91 93.92 443.77 49.81 443.77 74.84 268.91" style="fill:#A96FFF"></polygon><polygon points="74.84 268.91 93.92 443.77 49.81 443.77 74.84 268.91" style="opacity:0.2"></polygon><path d="M162.19,281l5.37-1.13c0-.15-3.14-14.84-6.47-29.67-3.59-16-19.35-23.4-32.53-21.28-9.86,1.6-20.79,9.29-19.14,25.73,1.76,17.59,3.1,25.88,3.15,26.23L118,280c0-.08-1.36-8.5-3.1-25.9-1.27-12.63,6.69-18.49,14.56-19.76,10.65-1.73,23.41,4.19,26.3,17.06C159.06,266.16,162.16,280.82,162.19,281Z" style="fill:#263238"></path><path d="M91.6,442.44c-3.54-2.52-7.19-4.82-10.84-7.12s-7.38-4.47-11.13-6.6l-.52-.3-.46.35c-2.91,2.18-5.81,4.36-8.62,6.65s-5.65,4.57-8.37,7c3.12-1.88,6.15-3.88,9.15-5.92s6-4.14,8.9-6.27l-1,.06q5.58,3.27,11.29,6.33C83.84,438.62,87.65,440.63,91.6,442.44Z" style="fill:#fff"></path><path d="M69.18,429.5c.76-11.15,1.31-22.31,1.84-33.47s.89-22.32,1.35-33.48c.31-11.16.7-22.33.93-33.5l.31-16.75c0-5.59.14-11.17.13-16.76-.4,5.58-.68,11.15-1,16.73L71.89,329c-.52,11.15-.89,22.32-1.34,33.48s-.7,22.33-.93,33.49S69.18,418.32,69.18,429.5Z" style="fill:#fff"></path><path d="M157.59,280.4a7.29,7.29,0,1,0,7.29-7.29A7.28,7.28,0,0,0,157.59,280.4Z" style="fill:#263238"></path><path d="M108.55,280.4a7.29,7.29,0,1,0,7.29-7.29A7.28,7.28,0,0,0,108.55,280.4Z" style="fill:#263238"></path></g><g id="freepik--Gifts--inject-7"><path d="M688.91,275.34c1.39-4.68-.73-11-12-14.11-17.11-4.72-29.41,13-30.88,15.22,1.58-2.57,16.49-25.92,33.77-21.24C693.48,258.9,692.71,269.45,688.91,275.34Z" style="fill:#455a64"></path><path d="M688.91,275.34a9.22,9.22,0,0,1-4.5,3.92c-6,1.86-19.66,3-37.34-2.23l-1.17-.35.14-.23.09-.13.14,0c18.58,2.7,31.53.72,36.84-1.2,2.08-.75,3.75-3.29,4-6.26a9.14,9.14,0,0,0-.11-2.08A8.89,8.89,0,0,1,688.91,275.34Z" style="fill:#37474f"></path><path d="M677.79,251c-2.3-5.42-8.53-10.5-19.53-7.18-16.72,5-13.47,29.58-13,32.62-.63-3.44-5.93-35,10.89-40.23C669.45,232.07,676.49,243,677.79,251Z" style="fill:#455a64"></path><path d="M677.79,251c.43,2.7.21,5.08-.66,6.44-3.33,5.25-13.12,14.14-30.65,19l-1.17.31s0-.1,0-.31a1.68,1.68,0,0,0,0-.18l.13,0c16.4-7.89,25-17.2,27.78-22.11,1.07-1.94.53-5.39-1.45-8.45a13.7,13.7,0,0,0-1.6-2A13.21,13.21,0,0,1,677.79,251Z" style="fill:#37474f"></path><path d="M601.56,275.34c-1.39-4.68.72-11,12-14.11,17.11-4.72,29.41,13,30.88,15.22-1.57-2.57-16.48-25.92-33.77-21.24C597,258.9,597.75,269.45,601.56,275.34Z" style="fill:#455a64"></path><path d="M601.56,275.34a9.2,9.2,0,0,0,4.49,3.92c6,1.86,19.67,3,37.34-2.23l1.18-.35-.15-.23-.08-.13-.15,0c-18.58,2.7-31.52.72-36.83-1.2-2.09-.75-3.76-3.29-4-6.26a8.59,8.59,0,0,1,.1-2.08A8.88,8.88,0,0,0,601.56,275.34Z" style="fill:#37474f"></path><path d="M611.54,251c2.3-5.42,8.53-10.5,19.53-7.18,16.72,5,13.47,29.58,13,32.62.63-3.44,5.93-35-10.89-40.23C619.88,232.07,612.84,243,611.54,251Z" style="fill:#455a64"></path><path d="M611.54,251c-.43,2.7-.21,5.08.65,6.44,3.34,5.25,13.13,14.14,30.65,19l1.18.31s0-.1.05-.31a1.68,1.68,0,0,1,0-.18l-.13,0c-16.4-7.89-25-17.2-27.78-22.11-1.08-1.94-.54-5.39,1.45-8.45a14.32,14.32,0,0,1,1.59-2A13.16,13.16,0,0,0,611.54,251Z" style="fill:#37474f"></path><polygon points="681.58 443.77 590.38 443.77 593.72 281.89 672.47 279.08 681.58 443.77" style="fill:#A96FFF"></polygon><polygon points="681.58 443.77 590.38 443.77 593.72 281.89 672.47 279.08 681.58 443.77" style="fill:#fff;opacity:0.6000000000000001"></polygon><polygon points="700.22 443.77 674.31 443.77 670.34 279.08 697.07 284.06 700.22 443.77" style="fill:#A96FFF"></polygon><polygon points="589.14 279.32 589.14 301.86 670.34 299.07 670.34 273.28 589.14 279.32" style="fill:#A96FFF"></polygon><polygon points="589.14 279.32 589.14 301.86 670.34 299.07 670.34 273.28 589.14 279.32" style="fill:#fff;opacity:0.4"></polygon><polygon points="700.88 301.86 670.34 299.07 670.34 273.28 702.62 279.32 700.88 301.86" style="fill:#A96FFF"></polygon><polygon points="700.88 301.86 670.34 299.07 670.34 273.28 702.62 279.32 700.88 301.86" style="opacity:0.1"></polygon><polygon points="619.77 277.04 620.82 443.77 642.35 443.77 640.47 275.69 619.77 277.04" style="fill:#455a64"></polygon><polygon points="683.21 275.69 691.3 277.2 691.3 443.77 684.53 443.77 683.21 275.69" style="fill:#455a64"></polygon><path d="M631.53,315.41a11.7,11.7,0,0,1-1.85,5.75c-.06-.39-.14-.79-.24-1.19s-.21-.82-.35-1.25a23.7,23.7,0,0,0-4.48-7.73l-.66-.77-.18-.19h0c-.11-.12-.23-.23-.32-.35-18.14-23-35.41,14.25-35.78,15.11v0s-1-37.15,18.8-38.18C622,285.81,632.44,303.93,631.53,315.41Z" style="fill:#A96FFF"></path><path d="M629.68,321.16a7.35,7.35,0,0,1-1.63,1.71c-9.45,7.24-38.49,2.26-40.3,1.94h-.08c27.3,2.62,34.79-7.31,36.1-14.77l.18.19.66.77a23.88,23.88,0,0,1,4.48,7.73c.14.43.25.84.35,1.25S629.62,320.77,629.68,321.16Z" style="fill:#A96FFF"></path><path d="M629.68,321.16a7.35,7.35,0,0,1-1.63,1.71c-9.45,7.24-38.49,2.26-40.3,1.94h-.08c27.3,2.62,34.79-7.31,36.1-14.77l.18.19.66.77a23.88,23.88,0,0,1,4.48,7.73c.14.43.25.84.35,1.25S629.62,320.77,629.68,321.16Z" style="opacity:0.2"></path><path d="M543.11,319.63a11.55,11.55,0,0,0,2.39,5.54q0-.59.12-1.2a11.72,11.72,0,0,1,.23-1.27,23.35,23.35,0,0,1,3.73-8.13l.58-.83.16-.21h0c.1-.13.2-.25.29-.38,15.86-24.61,36.6,10.82,37,11.64v0s-2.55-37.07-22.36-36.21C549.79,289.26,541.11,308.29,543.11,319.63Z" style="fill:#A96FFF"></path><path d="M545.5,325.17a7.33,7.33,0,0,0,1.78,1.55c10.1,6.31,38.53-1.42,40.3-1.9l.09,0c-26.93,5.21-35.33-4-37.35-11.27l-.16.21-.58.83a23.81,23.81,0,0,0-3.73,8.13c-.1.43-.17.85-.23,1.27S545.52,324.78,545.5,325.17Z" style="fill:#A96FFF"></path><path d="M545.5,325.17a7.33,7.33,0,0,0,1.78,1.55c10.1,6.31,38.53-1.42,40.3-1.9l.09,0c-26.93,5.21-35.33-4-37.35-11.27l-.16.21-.58.83a23.81,23.81,0,0,0-3.73,8.13c-.1.43-.17.85-.23,1.27S545.52,324.78,545.5,325.17Z" style="opacity:0.2"></path><polygon points="629.68 443.77 537.46 443.77 540.11 334.22 630.24 332.88 629.68 443.77" style="fill:#455a64"></polygon><polygon points="662.69 443.77 629.68 443.77 627.78 332.88 660.54 335.62 662.69 443.77" style="fill:#37474f"></polygon><polygon points="536.83 329.07 536.83 352.33 627.78 349.57 627.78 322.95 536.83 329.07" style="fill:#37474f"></polygon><polygon points="663.13 352.44 627.78 349.57 627.78 322.95 665.14 329.19 663.13 352.44" style="fill:#263238"></polygon><polygon points="595.74 443.77 573.65 443.77 571.42 326.69 597.51 324.96 595.74 443.77" style="fill:#A96FFF"></polygon><polygon points="645.9 443.77 653.42 443.77 652.75 327.12 642.25 325.37 645.9 443.77" style="fill:#A96FFF"></polygon></g><g id="freepik--Device--inject-7"><rect x="127.44" y="112.52" width="495.11" height="331.25" rx="12.89" style="fill:#263238"></rect><rect x="162.1" y="126.5" width="426.11" height="302.91" style="fill:#fff"></rect><rect x="144.98" y="242.11" width="5.15" height="72.09" rx="1.25" style="fill:#455a64"></rect><circle cx="604.94" cy="278.15" r="9.32" transform="translate(194.75 802.62) rotate(-76.66)" style="fill:#455a64"></circle><rect x="162.1" y="126.5" width="426.11" height="302.91" style="fill:#fff"></rect><rect x="162.1" y="126.5" width="426.11" height="10.41" style="fill:#455a64"></rect><path d="M170.31,131.7a2.13,2.13,0,1,1-2.13-2.13A2.13,2.13,0,0,1,170.31,131.7Z" style="fill:#c7c7c7"></path><circle cx="176.89" cy="131.7" r="2.13" style="fill:#fff"></circle><circle cx="185.6" cy="131.7" r="2.13" style="fill:#A96FFF"></circle><rect x="448.53" y="228.53" width="112.35" height="144.88" style="fill:#fff"></rect><path d="M560.88,373.41c-.09,0-112.37.09-112.46.11s-.12-144.94-.14-145v-.25h.25c.13,0,112.38.12,112.49.1s-.23,144.92-.14,145Zm0,0-.14-144.88c1,.28-112.46.2-112.21.24l.25-.24-.14,144.88c-.74-.15,112.43,0,112.24,0Z" style="fill:#c7c7c7"></path><rect x="451.94" y="231.47" width="105.54" height="105.54" style="fill:#ebebeb"></rect><polygon points="525.45 240.99 525.45 245.83 504.71 245.82 504.71 245.83 483.97 245.83 483.97 240.99 525.45 240.99" style="fill:#455a64"></polygon><path d="M519.42,248.77h6v6.82C519.52,255.27,519.42,248.77,519.42,248.77Z" style="fill:#455a64"></path><path d="M525.45,258.94V327.5h-16l-4.71-63.42L500,327.5H484V258.94c2.68-.46,9.07-2.38,9.07-10.17H503c0,5.34-.15,10,1.72,10.06h0c1.88,0,1.73-4.72,1.73-10.06h9.94C516.38,256.56,522.77,258.48,525.45,258.94Z" style="fill:#455a64"></path><path d="M484,255.59v-6.82h6S489.89,255.27,484,255.59Z" style="fill:#455a64"></path><path d="M548.3,245.27c-5.31-3.36-5.11-7.44-3.66-8.3,1.81-1.05,3.2.83,3.66,2.64.46-1.81,1.85-3.69,3.63-2.64C553.38,237.83,553.58,241.91,548.3,245.27Z" style="fill:#A96FFF"></path><rect x="518.46" y="357.25" width="39.02" height="10.39" style="fill:#fff"></rect><path d="M557.48,367.64c-9.73.08-29.29.19-39,.22h-.21v-.22l0-10.39V357h.25l39.12.15v.1l-.1,10.39Zm0,0-.1-10.39.1.1-39,.15.25-.25,0,10.39-.21-.21,19.45.07,19.57.14Z" style="fill:#c7c7c7"></path><path d="M451.94,343c16.56-.67,33.26-.67,49.83,0-16.57.67-33.26.67-49.83,0Z" style="fill:#c7c7c7"></path><path d="M451.94,348.77c23.08-.32,48.47-.33,71.56,0-23.09.33-48.48.33-71.56,0Z" style="fill:#c7c7c7"></path><rect x="189.12" y="228.53" width="112.35" height="144.88" style="fill:#fff"></rect><path d="M301.47,373.41c-.09,0-112.37.09-112.46.11s-.12-144.94-.14-145v-.25h.25c.12,0,112.37.12,112.49.1s-.24,144.92-.14,145Zm0,0-.14-144.88c1,.28-112.46.2-112.21.24l.25-.24-.14,144.88c-.74-.15,112.43,0,112.24,0Z" style="fill:#c7c7c7"></path><rect x="192.52" y="231.47" width="105.54" height="105.54" style="fill:#ebebeb"></rect><path d="M273.35,315.69H217.24l.16-2.32.13-1.71.15-2,.12-1.73.15-2,.13-1.73.15-2,.12-1.71,3.47-47.62H231a14.26,14.26,0,0,0,28.51,0h9.22l3.46,47.62.13,1.71.15,2,.12,1.73.15,2,.13,1.73.15,2,.12,1.71Z" style="fill:#455a64"></path><polygon points="221.82 252.8 204.64 274.11 219.37 286.4 221.82 252.8" style="fill:#263238"></polygon><polygon points="268.77 252.8 285.95 274.11 271.21 286.4 268.77 252.8" style="fill:#263238"></polygon><path d="M288.89,245.27c-5.32-3.36-5.12-7.44-3.67-8.3,1.82-1.05,3.21.83,3.67,2.64.46-1.81,1.85-3.69,3.63-2.64C294,237.83,294.17,241.91,288.89,245.27Z" style="fill:#A96FFF"></path><rect x="259.05" y="357.25" width="39.02" height="10.39" style="fill:#fff"></rect><path d="M298.06,367.64c-9.72.08-29.29.19-39,.22h-.22v-.22l0-10.39V357h.25l39.12.15v.1l-.11,10.39Zm0,0-.1-10.39.1.1-39,.15.25-.25,0,10.39-.21-.21,19.45.07,19.56.14Z" style="fill:#c7c7c7"></path><path d="M192.52,343c16.57-.67,33.26-.67,49.84,0-16.58.67-33.27.67-49.84,0Z" style="fill:#c7c7c7"></path><path d="M192.52,348.77c23.09-.32,48.48-.33,71.56,0-23.08.33-48.47.33-71.56,0Z" style="fill:#c7c7c7"></path><rect x="318.83" y="228.53" width="112.35" height="144.88" style="fill:#fff"></rect><path d="M431.18,373.41c-.1,0-112.38.09-112.46.11s-.12-144.94-.14-145v-.25h.25c.12,0,112.37.12,112.49.1s-.24,144.92-.14,145Zm0,0L431,228.53c1,.28-112.45.2-112.2.24l.24-.24-.14,144.88c-.73-.15,112.44,0,112.25,0Z" style="fill:#c7c7c7"></path><rect x="388.75" y="357.25" width="39.02" height="10.39" style="fill:#fff"></rect><path d="M427.77,367.64c-9.72.08-29.29.19-39,.22h-.21v-.22l0-10.39V357h.25l39.13.15v.1l-.1,10.39Zm0,0-.1-10.39.1.1-39,.15.25-.25,0,10.39-.22-.21,19.46.07,19.56.14Z" style="fill:#c7c7c7"></path><path d="M322.23,343c16.57-.67,33.26-.67,49.83,0-16.57.67-33.26.67-49.83,0Z" style="fill:#c7c7c7"></path><path d="M322.23,348.77c23.08-.32,48.47-.33,71.56,0-23.09.33-48.48.33-71.56,0Z" style="fill:#c7c7c7"></path><rect x="322.23" y="231.47" width="105.54" height="105.54" style="fill:#ebebeb"></rect><path d="M418.59,245.27c-5.31-3.36-5.11-7.44-3.66-8.3,1.82-1.05,3.2.83,3.66,2.64.47-1.81,1.85-3.69,3.63-2.64C423.68,237.83,423.87,241.91,418.59,245.27Z" style="fill:#A96FFF"></path><path d="M389.09,287.54c-7.47,1.16-11.24-3.5-11.24-3.5h-5.7s-3.78,4.66-11.24,3.49-10.08-9.59-7.46-15.6,3.74-6.69,4.55-9.11c.92-2.78,2.91-11.44,3.88-12.13s3.23,0,3.16,1.07-3.42,14.41-3,15.13,5,3.43,7,6.07,3.49,6.53,5.95,6.53,3.88-3.88,5.95-6.53,6.65-5.36,7-6.07-3-14-3-15.13,2.2-1.74,3.17-1.06,3,9.34,3.88,12.12c.8,2.42,1.94,3.1,4.55,9.11S396.55,286.38,389.09,287.54Z" style="fill:#A96FFF"></path><path d="M397.54,301.4c-.59.1-8.93,2-13.19,6.49s-5.92,9.21-6.4,9.69-2.95.49-2.95.49-2.46,0-2.94-.49-2.14-5.22-6.41-9.69-12.59-6.39-13.19-6.49-.28-5.92.79-5.53c6.08,2.21,20.94,2.43,21.75,2.43s15.67-.22,21.75-2.42C397.82,295.49,398.14,301.31,397.54,301.4Z" style="fill:#A96FFF"></path><path d="M359.33,300.51a1.39,1.39,0,1,1-1.39-1.39A1.39,1.39,0,0,1,359.33,300.51Z" style="fill:#A96FFF"></path><path d="M367.87,300.51a1.4,1.4,0,1,1-1.4-1.39A1.4,1.4,0,0,1,367.87,300.51Z" style="fill:#A96FFF"></path><path d="M372.12,306.83a1.39,1.39,0,1,1-1.39-1.39A1.4,1.4,0,0,1,372.12,306.83Z" style="fill:#A96FFF"></path><path d="M376.4,313.2a1.4,1.4,0,1,1-1.39-1.39A1.4,1.4,0,0,1,376.4,313.2Z" style="fill:#A96FFF"></path><path d="M376.4,300.51a1.4,1.4,0,1,1-1.39-1.39A1.39,1.39,0,0,1,376.4,300.51Z" style="fill:#A96FFF"></path><path d="M380.65,306.83a1.39,1.39,0,1,1-1.39-1.39A1.4,1.4,0,0,1,380.65,306.83Z" style="fill:#A96FFF"></path><path d="M384.93,300.51a1.4,1.4,0,1,1-1.39-1.39A1.39,1.39,0,0,1,384.93,300.51Z" style="fill:#A96FFF"></path><path d="M393.44,300.51a1.38,1.38,0,1,1-1.37-1.39A1.38,1.38,0,0,1,393.44,300.51Z" style="fill:#A96FFF"></path><path d="M359.33,300.51a1.39,1.39,0,1,1-1.39-1.39A1.39,1.39,0,0,1,359.33,300.51Zm7.14-1.39a1.39,1.39,0,1,0,1.4,1.39A1.39,1.39,0,0,0,366.47,299.12Zm8.54,0a1.39,1.39,0,1,0,1.39,1.39A1.4,1.4,0,0,0,375,299.12Zm8.53,0a1.39,1.39,0,1,0,1.39,1.39A1.4,1.4,0,0,0,383.54,299.12Zm8.53,0a1.39,1.39,0,1,0,1.37,1.39A1.39,1.39,0,0,0,392.07,299.12ZM375,311.81a1.4,1.4,0,1,0,1.39,1.39A1.4,1.4,0,0,0,375,311.81Zm-4.28-6.37a1.4,1.4,0,1,0,1.39,1.39A1.39,1.39,0,0,0,370.73,305.44Zm8.53,0a1.4,1.4,0,1,0,1.39,1.39A1.39,1.39,0,0,0,379.26,305.44Z" style="fill:#fff"></path><path d="M359.33,263.75a1.39,1.39,0,0,1-1.39,1.39,1.27,1.27,0,0,1-.85-.31,12.9,12.9,0,0,0,.92-2c.05-.13.08-.27.13-.44A1.39,1.39,0,0,1,359.33,263.75Zm32.67-.94c-.05-.13-.08-.26-.14-.42a1.34,1.34,0,0,0-1.18,1.36,1.39,1.39,0,0,0,1.39,1.39,1.26,1.26,0,0,0,.83-.31A12.86,12.86,0,0,1,392,262.81ZM362.2,256a1.39,1.39,0,1,0,1.39,1.39A1.39,1.39,0,0,0,362.2,256Zm25.6,0a1.39,1.39,0,1,0,1.39,1.39A1.39,1.39,0,0,0,387.8,256ZM357.94,275a1.39,1.39,0,1,0,1.39,1.39A1.39,1.39,0,0,0,357.94,275Zm8.53,0a1.39,1.39,0,1,0,1.39,1.39A1.39,1.39,0,0,0,366.47,275Zm17.06,0a1.39,1.39,0,1,0,1.39,1.39A1.39,1.39,0,0,0,383.53,275Zm8.53,0a1.39,1.39,0,1,0,1.39,1.39A1.39,1.39,0,0,0,392.06,275Zm-37.34-5.87c-.32.65-.68,1.41-1.05,2.27a1.37,1.37,0,0,0,1.05-2.27Zm7.48-.5a1.39,1.39,0,1,0,1.39,1.39A1.39,1.39,0,0,0,362.2,268.67Zm25.6,0a1.39,1.39,0,1,0,1.39,1.39A1.39,1.39,0,0,0,387.8,268.67Zm7.48.5a1.36,1.36,0,0,0,1.05,2.27C396,270.58,395.61,269.82,395.28,269.17Zm-41.61,12.18a1.14,1.14,0,0,0-.33,0,11.08,11.08,0,0,0,1.29,2.34,1.33,1.33,0,0,0,.43-1A1.39,1.39,0,0,0,353.67,281.35Zm8.53,0a1.39,1.39,0,1,0,1.39,1.39A1.39,1.39,0,0,0,362.2,281.36Zm8.53,0a1.39,1.39,0,1,0,1.4,1.39A1.39,1.39,0,0,0,370.73,281.36Zm8.54,0a1.39,1.39,0,1,0,1.39,1.39A1.4,1.4,0,0,0,379.27,281.36Zm8.53,0a1.39,1.39,0,1,0,1.39,1.39A1.39,1.39,0,0,0,387.8,281.36Zm8.53,0a1.4,1.4,0,0,0-1.4,1.39,1.36,1.36,0,0,0,.43,1,9.19,9.19,0,0,0,1.29-2.34A1.07,1.07,0,0,0,396.33,281.35Z" style="fill:#fff"></path><rect x="250.62" y="187.06" width="248.75" height="13.97" style="fill:#fff"></rect><path d="M499.52,201.17h-249V186.91h249Z" style="fill:#fff"></path><path d="M499.52,201.17c-.23-.23-249.52.68-249.27,0V186.91c-.24-.68,249.07.18,249.3,0l0,14.26Zm0,0,0-14.26c.16-.17-250.07.69-248.77,0l0,14.26c-1.58-.65,249.22.22,248.81,0Z" style="fill:#c7c7c7"></path><path d="M494.48,197.18l-1,.78-1.91-2.53-.71-.92a1.66,1.66,0,0,0,.41-.23,1.63,1.63,0,0,0,.53-.69l.74,1Z" style="fill:#c7c7c7"></path><path d="M492.45,191.23a2.84,2.84,0,1,0,.06,3.34A2.81,2.81,0,0,0,492.45,191.23Zm-1.21,3.05a1.66,1.66,0,0,1-.41.23,1.68,1.68,0,1,1,.94-.92A1.63,1.63,0,0,1,491.24,194.28Z" style="fill:#c7c7c7"></path><rect x="253.55" y="189.8" width="0.75" height="8.48" style="fill:#c7c7c7"></rect><rect x="192.52" y="188.26" width="11.47" height="1.74" style="fill:#c7c7c7"></rect><rect x="192.52" y="198.08" width="11.47" height="1.74" style="fill:#c7c7c7"></rect><rect x="192.52" y="193.22" width="11.47" height="1.74" style="fill:#c7c7c7"></rect><path d="M552.6,197.61H541.77a.49.49,0,0,1-.45-.33l-3.09-9.46h-2.52a.47.47,0,1,1,0-.94h2.86a.47.47,0,0,1,.45.32l3.09,9.46H552.6a.47.47,0,0,1,.47.47A.48.48,0,0,1,552.6,197.61Z" style="fill:#A96FFF"></path><path d="M551.55,201.21a1.52,1.52,0,1,1,1.52-1.52A1.53,1.53,0,0,1,551.55,201.21Zm0-2.1a.58.58,0,1,0,.57.58A.58.58,0,0,0,551.55,199.11Z" style="fill:#A96FFF"></path><path d="M542.61,201.21a1.52,1.52,0,1,1,1.52-1.52A1.53,1.53,0,0,1,542.61,201.21Zm0-2.1a.58.58,0,1,0,.57.58A.58.58,0,0,0,542.61,199.11Z" style="fill:#A96FFF"></path><polygon points="555.2 188.57 552.79 196.13 542.57 196.13 540.16 188.57 548.14 188.58 555.2 188.57" style="fill:#A96FFF"></polygon><circle cx="554.44" cy="188.3" r="3.04" style="fill:#455a64"></circle><path d="M555.07,188a1.05,1.05,0,0,1,.31.75,1.07,1.07,0,0,1-.31.76,1.07,1.07,0,0,1-1.51,0,.25.25,0,0,1,0-.34.24.24,0,0,1,.35,0,.55.55,0,0,0,.4.16.61.61,0,0,0,.42-.16.63.63,0,0,0,.17-.42.58.58,0,0,0-.58-.57.25.25,0,0,1-.18-.08h0a.24.24,0,0,1,0-.34l.44-.44h-.7a.25.25,0,0,1,0-.49h1.27a.24.24,0,0,1,.24.24.27.27,0,0,1,0,.12.21.21,0,0,1,0,.06l-.54.55A1.25,1.25,0,0,1,555.07,188Z" style="fill:#fff"></path><polygon points="661.58 145.56 88.42 145.56 132.66 111.89 615.55 111.89 661.58 145.56" style="fill:#A96FFF"></polygon><polygon points="213.26 111.89 176.6 145.56 132.51 145.56 172.54 111.89 213.26 111.89" style="fill:#ebebeb"></polygon><polygon points="291.29 111.89 264.78 145.56 220.69 145.56 252.2 111.89 291.29 111.89" style="fill:#ebebeb"></polygon><polygon points="357.53 111.89 352.95 145.56 308.87 145.56 322.93 111.89 357.53 111.89" style="fill:#ebebeb"></polygon><polygon points="573.4 145.56 535.35 111.89 576.07 111.89 617.49 145.56 573.4 145.56" style="fill:#ebebeb"></polygon><polygon points="485.22 145.56 461.7 111.89 497.58 111.89 529.31 145.56 485.22 145.56" style="fill:#ebebeb"></polygon><polygon points="397.05 145.56 390.58 111.89 425.2 111.89 441.13 145.56 397.05 145.56" style="fill:#ebebeb"></polygon><path d="M110.46,167.87h0a22,22,0,0,1-22-22v-.27h44.09v.27A22,22,0,0,1,110.46,167.87Z" style="fill:#A96FFF"></path><path d="M110.46,167.87h0a22,22,0,0,1-22-22v-.27h44.09v.27A22,22,0,0,1,110.46,167.87Z" style="opacity:0.1"></path><path d="M154.55,167.87h0a22,22,0,0,1-22-22v-.27H176.6v.27A22,22,0,0,1,154.55,167.87Z" style="fill:#dbdbdb"></path><path d="M198.64,167.87h0a22,22,0,0,1-22-22v-.27h44.09v.27A22,22,0,0,1,198.64,167.87Z" style="fill:#A96FFF"></path><path d="M198.64,167.87h0a22,22,0,0,1-22-22v-.27h44.09v.27A22,22,0,0,1,198.64,167.87Z" style="opacity:0.1"></path><path d="M242.73,167.87h0a22,22,0,0,1-22-22v-.27h44.09v.27A22,22,0,0,1,242.73,167.87Z" style="fill:#dbdbdb"></path><path d="M286.82,167.87h0a22,22,0,0,1-22-22v-.27h44.09v.27A22,22,0,0,1,286.82,167.87Z" style="fill:#A96FFF"></path><path d="M286.82,167.87h0a22,22,0,0,1-22-22v-.27h44.09v.27A22,22,0,0,1,286.82,167.87Z" style="opacity:0.1"></path><path d="M330.91,167.87h0a22,22,0,0,1-22-22v-.27H353v.27A22,22,0,0,1,330.91,167.87Z" style="fill:#dbdbdb"></path><path d="M375,167.87h0a22,22,0,0,1-22-22v-.27H397v.27A22,22,0,0,1,375,167.87Z" style="fill:#A96FFF"></path><path d="M375,167.87h0a22,22,0,0,1-22-22v-.27H397v.27A22,22,0,0,1,375,167.87Z" style="opacity:0.1"></path><path d="M419.09,167.87h0a22,22,0,0,1-22-22v-.27h44.09v.27A22,22,0,0,1,419.09,167.87Z" style="fill:#dbdbdb"></path><path d="M463.18,167.87h0a22,22,0,0,1-22.05-22v-.27h44.09v.27A22,22,0,0,1,463.18,167.87Z" style="fill:#A96FFF"></path><path d="M463.18,167.87h0a22,22,0,0,1-22.05-22v-.27h44.09v.27A22,22,0,0,1,463.18,167.87Z" style="opacity:0.1"></path><path d="M507.27,167.87h0a22,22,0,0,1-22-22v-.27h44.09v.27A22,22,0,0,1,507.27,167.87Z" style="fill:#dbdbdb"></path><path d="M551.36,167.87h0a22,22,0,0,1-22.05-22v-.27H573.4v.27A22,22,0,0,1,551.36,167.87Z" style="fill:#A96FFF"></path><path d="M551.36,167.87h0a22,22,0,0,1-22.05-22v-.27H573.4v.27A22,22,0,0,1,551.36,167.87Z" style="opacity:0.1"></path><path d="M595.45,167.87h0a22,22,0,0,1-22.05-22v-.27h44.09v.27A22,22,0,0,1,595.45,167.87Z" style="fill:#dbdbdb"></path><path d="M639.54,167.87h0a22,22,0,0,1-22-22v-.27h44.09v.27A22,22,0,0,1,639.54,167.87Z" style="fill:#A96FFF"></path><path d="M639.54,167.87h0a22,22,0,0,1-22-22v-.27h44.09v.27A22,22,0,0,1,639.54,167.87Z" style="opacity:0.1"></path><path d="M658.67,158.45l.08.15a.27.27,0,0,1-.08-.07l-.13-.08Z" style="fill:#A96FFF"></path></g><g id="freepik--Label--inject-7"><path d="M171,217.76a84.4,84.4,0,0,1,22-1.16c9.86,1,18.93,6.67,19.8,12.48.45,3-1.42,5.54-5.28,7.14-12.14,5.07-35.8-16.62-36.8-17.55L170,218Zm21.93-.1a82.22,82.22,0,0,0-20.67,1c4.27,3.76,24.56,20.95,34.89,16.64,3.41-1.42,5-3.5,4.64-6a8.5,8.5,0,0,0-2.35-4.27C206.3,221.52,200.21,218.36,193,217.66Z" style="fill:#263238"></path><path d="M78,116.25a3.4,3.4,0,0,1,4.7-1.07L178,175a3.47,3.47,0,0,1,1.58,2.56l3.35,33.33.06.48.07.87,0,.38,1.27,12.62a3.39,3.39,0,0,1-2.22,3.55l-12,4.38-1.08.39-31.9,11.61a3.42,3.42,0,0,1-3-.31L38.86,185a3.41,3.41,0,0,1-1.08-4.72Z" style="fill:#fff"></path><path d="M50.33,160.57l-6.92,11.08L40,177.19,38.22,180a4.53,4.53,0,0,0-.68,1.4,3.3,3.3,0,0,0,0,1.53,3.24,3.24,0,0,0,.7,1.35,5,5,0,0,0,1.25.94l2.77,1.73,5.54,3.46,11.08,6.92L103.2,225l22.16,13.83,5.54,3.46,2.77,1.73.69.44a3.34,3.34,0,0,0,.63.31,3.08,3.08,0,0,0,1.38.13,3.66,3.66,0,0,0,.68-.19l.77-.28,1.53-.56,3.07-1.13,6.13-2.24,24.58-8.87,6.14-2.22c1-.37,2.09-.74,3-1.11a3,3,0,0,0,1.64-2.2,2.41,2.41,0,0,0,0-.71l-.08-.8-.16-1.63-.32-3.25-.64-6.5-2.53-26-.64-6.5-.32-3.23a3.24,3.24,0,0,0-1.69-2.37l-11.05-7-44.18-27.89-22.09-13.94-11-7-5.53-3.49A15.09,15.09,0,0,0,82.3,115,3.41,3.41,0,0,0,78,116.25Zm30.38-45.92a3.51,3.51,0,0,1,1.6.3c.49.23.93.56,1.4.83l5.54,3.46,11.08,6.92L122.49,140l44.33,27.67,11.08,6.91a3.87,3.87,0,0,1,2,2.78l.34,3.26.67,6.5,2.67,26,.67,6.5.34,3.24.16,1.63.09.82a4.07,4.07,0,0,1,0,.92,3.82,3.82,0,0,1-2.11,2.84c-1.09.45-2.06.77-3.1,1.16l-6.13,2.25-24.52,9-6.15,2.22-3.07,1.11-1.53.55-.77.28a4.31,4.31,0,0,1-.89.23,4,4,0,0,1-1.84-.18,4.58,4.58,0,0,1-.83-.41l-.69-.44-2.76-1.74-5.53-3.49-22.09-14L58.6,197.74l-11.05-7L42,187.28l-2.76-1.75a5.6,5.6,0,0,1-1.34-1,3.84,3.84,0,0,1-.78-1.53,3.8,3.8,0,0,1,0-1.71,4.83,4.83,0,0,1,.74-1.51L39.64,177l3.49-5.52,7-11L78,116.25A3.4,3.4,0,0,1,80.71,114.65Z" style="fill:#ebebeb"></path><path d="M171.86,214.74a4.56,4.56,0,0,0-.9-.79s-.06,0-.09-.07h0a4.51,4.51,0,0,0-4.79,7.65l.08.05a5.12,5.12,0,0,0,.75.36,2.14,2.14,0,0,0,.47.15,4.52,4.52,0,0,0,4.5-7.35Z" style="fill:#fff"></path><path d="M172.34,220.38a4.86,4.86,0,0,1-2.41,2,4.66,4.66,0,0,1-3.23,0h0l-.47-.21-.44-.21h0l0,0a4.84,4.84,0,0,1-2.21-3.15,4.79,4.79,0,0,1,.77-3.69,4.74,4.74,0,0,1,3.07-2,4.89,4.89,0,0,1,3.45.7h0s.06,0,.09.07h0a4.51,4.51,0,0,1,.89.8A4.82,4.82,0,0,1,172.34,220.38ZM171,214h0s-.06,0-.09-.06h0a4.22,4.22,0,0,0-3.37-.45,4.3,4.3,0,0,0-2.57,2,4.36,4.36,0,0,0-.37,3.12,4.26,4.26,0,0,0,1.79,2.5l0,0,.4.2.36.19h0a4.19,4.19,0,0,0,4.91-1.33,4.19,4.19,0,0,0,.9-2.7,4.34,4.34,0,0,0-1-2.71A4.52,4.52,0,0,0,171,214Z" style="fill:#ebebeb"></path><path d="M80.14,123,44.8,179.3A3.39,3.39,0,0,0,46,183.94l87.66,55a3.47,3.47,0,0,0,3,.37l40.59-13.76a3.22,3.22,0,0,0,2.17-3.45l-1.19-9.62-.13-1L174.1,179.6a3.51,3.51,0,0,0-1.62-2.52l-87.66-55A3.39,3.39,0,0,0,80.14,123Zm4.36-.45,87.66,55a2.9,2.9,0,0,1,1.34,2.09l3.93,31.88.14,1.06,1.18,9.59A2.6,2.6,0,0,1,177,225L136.4,238.77a2.9,2.9,0,0,1-2.46-.31l-87.66-55a2.78,2.78,0,0,1-1-3.81l35.34-56.29A2.78,2.78,0,0,1,84.5,122.56Z" style="fill:#263238"></path><path d="M66.39,164.64a2.28,2.28,0,0,1,2.81,1.3A11.23,11.23,0,0,0,74,172.49a10.16,10.16,0,0,0,5.48,1.43A5,5,0,0,0,83,172.53a2.16,2.16,0,0,0,.56-1.22,3.11,3.11,0,0,0-.29-1.61,14,14,0,0,0-3.64-4.48l0,0,0,0a20.06,20.06,0,0,1-3.54-4,7,7,0,0,1-1.24-4.5,6,6,0,0,1,1.42-3.1,9.6,9.6,0,0,1,6.93-3,14.11,14.11,0,0,1,7.68,1.92c3.47,2,4.69,5.05,5.63,7.19a2,2,0,0,1-1.43,2.59,2.25,2.25,0,0,1-2.93-1c-.93-2.14-1.87-4.19-4.07-5.43a9,9,0,0,0-5-1.34,4.38,4.38,0,0,0-3.12,1.25,1.73,1.73,0,0,0-.47,1.07,2.7,2.7,0,0,0,.23,1.38A12.42,12.42,0,0,0,83,162.32l.07,0a20.07,20.07,0,0,1,3.85,4.3,7.58,7.58,0,0,1,1.29,4.74,6,6,0,0,1-1.53,3.28,10.18,10.18,0,0,1-7.31,3.21,15.19,15.19,0,0,1-8.22-2.09,14.75,14.75,0,0,1-6.49-8.68A2.12,2.12,0,0,1,66.39,164.64Z" style="fill:#A96FFF"></path><path d="M88.6,184.24a2.9,2.9,0,0,1-2.93.07,2.86,2.86,0,0,1-.64-.52,2.12,2.12,0,0,1,.86-3.08L110.7,166a2.9,2.9,0,0,1,3-.05,1.94,1.94,0,0,1,1,2.35l-8.46,24.33a2.84,2.84,0,0,1-3.23,1.68,3.11,3.11,0,0,1-.8-.32,1.9,1.9,0,0,1-.89-2.31l1.84-5.34-9-5.29Zm16.06-2.45,3.08-8.89-9,5.39Z" style="fill:#A96FFF"></path><path d="M109.88,195.65l16.64-19.53a2.88,2.88,0,0,1,3.6-.62,1.91,1.91,0,0,1,.47,3l-15.08,17.71,10,5.88a2,2,0,0,1,.51,3,3,3,0,0,1-3.65.63l-12-7s0,0,0-.06a0,0,0,0,1-.06,0A1.93,1.93,0,0,1,109.88,195.65Z" style="fill:#A96FFF"></path><path d="M129.52,207.42l16.65-19.56a2.94,2.94,0,0,1,3.6-.62l0,0,0,0,12,7a1.94,1.94,0,0,1,.51,3,3,3,0,0,1-3.62.66l-10-5.88-5.21,6.09,8.65,5.08a1.9,1.9,0,0,1,.47,3,2.89,2.89,0,0,1-3.6.62l-8.61-5.06L135.17,208l10,5.88a2,2,0,0,1,.49,3.07,3,3,0,0,1-3.6.63l-12-7.06,0,0A2,2,0,0,1,129.52,207.42Z" style="fill:#A96FFF"></path><path d="M170,218l.75.7c.12.12.6.56,1.38,1.24a5.68,5.68,0,0,0,.29.26,122.08,122.08,0,0,0,10.14,7.9l.39.27.36.26a3.48,3.48,0,0,0,.78-.8l-.35-.24-.37-.26a125.83,125.83,0,0,1-10.54-8.18.28.28,0,0,0-.1-.09s-.08-.07-.11-.11l-.36-.31.48-.09a3.78,3.78,0,0,0,.12-1.07v0c-1.16.19-1.83.32-1.85.33Z" style="fill:#263238"></path></g><g id="freepik--credit-card--inject-7"><path d="M701.2,78,685.54,185.2a11,11,0,0,1-12.43,9.27l-170-24.83a11,11,0,0,1-9.26-12.44L509.5,50a10.2,10.2,0,0,1,11.57-8.62l171.51,25A10.22,10.22,0,0,1,701.2,78Z" style="fill:#A96FFF"></path><path d="M701.2,78,685.54,185.2a11,11,0,0,1-12.43,9.27l-170-24.83a11,11,0,0,1-9.26-12.44L509.5,50a10.2,10.2,0,0,1,11.57-8.62l171.51,25A10.22,10.22,0,0,1,701.2,78Z" style="opacity:0.2"></path><rect x="522.39" y="63.17" width="36.36" height="25.13" rx="4.2" transform="translate(16.63 -77.35) rotate(8.31)" style="fill:#A96FFF"></rect><path d="M516.13,108l-1.6.65a.4.4,0,0,1-.19,0,.39.39,0,0,1-.29-.22.35.35,0,0,1,.21-.47l2.19-.93a.37.37,0,0,1,.47.2.45.45,0,0,1,0,.28l-1.4,9.59a.36.36,0,0,1-.41.3.36.36,0,0,1-.31-.41Z" style="fill:#f8f8f8"></path><path d="M518.13,117.24l5.52-3.69a2.7,2.7,0,0,0-1.11-4.93,2.82,2.82,0,0,0-1.92.42l-.57.39a.36.36,0,1,1-.42-.59l.58-.41a3.56,3.56,0,0,1,2.44-.54,3.47,3.47,0,0,1,2.9,3.9,3.45,3.45,0,0,1-1.49,2.37l-4.72,3.16,4.93.72a.38.38,0,0,1,.31.43.37.37,0,0,1-.41.3l-5.82-.85h-.06a.35.35,0,0,1-.25-.15A.39.39,0,0,1,518.13,117.24Z" style="fill:#f8f8f8"></path><path d="M534.58,110.31l-3.1,2.37a3.54,3.54,0,0,1,2.31,3.88,3.52,3.52,0,0,1-1.41,2.35,3.64,3.64,0,0,1-2.66.68,3.55,3.55,0,0,1-2.34-1.41.37.37,0,0,1,.08-.52.36.36,0,0,1,.52.07,2.84,2.84,0,0,0,3.95.58,2.77,2.77,0,0,0,1.11-1.86,2.71,2.71,0,0,0-.53-2.09,2.76,2.76,0,0,0-1.85-1.11.38.38,0,0,1-.27-.19h0a.38.38,0,0,1,.08-.54l3-2.29-4-.59a.37.37,0,0,1-.32-.42.38.38,0,0,1,.43-.32l4.87.71a.38.38,0,0,1,.32.43.29.29,0,0,1-.07.16A.31.31,0,0,1,534.58,110.31Z" style="fill:#f8f8f8"></path><path d="M542.23,119.22l-5.65-.83h-.05a.31.31,0,0,1-.21-.11.34.34,0,0,1,0-.51l7.14-6.64h0a.36.36,0,0,1,.52,0,.46.46,0,0,1,.09.2s0,0,0,.06v0l-1.05,7.16.7.1a.37.37,0,0,1,.32.42.36.36,0,0,1-.42.3l-.7-.1-.26,1.79a.38.38,0,0,1-.43.3.37.37,0,0,1-.3-.41Zm.1-.72.9-6.11-5.83,5.39Z" style="fill:#f8f8f8"></path><path d="M555.15,122.25a.36.36,0,0,1,.07-.52.38.38,0,0,1,.54.08,2.86,2.86,0,0,0,1.85,1.09,2.83,2.83,0,0,0,2.09-.53,2.85,2.85,0,0,0,.59-4,2.84,2.84,0,0,0-4-.57.36.36,0,0,1-.52-.07.28.28,0,0,1-.07-.13v0a.09.09,0,0,1,0,0,.26.26,0,0,1,0-.12.31.31,0,0,0,0-.07l1.12-4.13a.35.35,0,0,1,.19-.25.32.32,0,0,1,.25-.05l4.87.71a.38.38,0,0,1,.31.43.35.35,0,0,1-.42.31l-4.55-.66-.83,3a3.53,3.53,0,0,1,1.85-.22,3.48,3.48,0,0,1,2.34,1.39,3.61,3.61,0,0,1-.73,5,3.69,3.69,0,0,1-2.66.66A3.51,3.51,0,0,1,555.15,122.25Z" style="fill:#f8f8f8"></path><path d="M566.13,116.57a4.28,4.28,0,0,1,4-1.73.36.36,0,0,1,.32.4.38.38,0,0,1-.41.33A3.6,3.6,0,0,0,566.7,117a6.94,6.94,0,0,0-1.05,2,3.47,3.47,0,1,1-1.21,2.26,4.14,4.14,0,0,1,.07-.69A8.65,8.65,0,0,1,566.13,116.57Zm-1,4.74a.45.45,0,0,0,0,.2.29.29,0,0,1,0,.1,2.76,2.76,0,1,0,0-.36Z" style="fill:#f8f8f8"></path><path d="M574.73,125.64l5.2-8.59-5-.74a.35.35,0,0,1-.3-.4.37.37,0,0,1,.41-.31l5.52.81a.35.35,0,0,1,.22,0,.45.45,0,0,1,.16.25.29.29,0,0,1,0,.13.26.26,0,0,1-.09.18l-5.44,9a.38.38,0,0,1-.36.17.24.24,0,0,1-.14,0A.4.4,0,0,1,574.73,125.64Z" style="fill:#f8f8f8"></path><path d="M586.49,117.22a2.2,2.2,0,0,1,1.86,2.48,2.22,2.22,0,0,1-1.15,1.63,3.42,3.42,0,1,1-5.13,2.45,3.46,3.46,0,0,1,2.55-2.83,2.26,2.26,0,0,1-.61-1.89A2.18,2.18,0,0,1,586.49,117.22Zm-1.42,9.72a2.7,2.7,0,1,0-2.28-3.06A2.69,2.69,0,0,0,585.07,126.94Zm.89-6.08a1.51,1.51,0,0,0,1.68-1.27,1.48,1.48,0,0,0-1.25-1.66,1.45,1.45,0,0,0-1.66,1.24A1.5,1.5,0,0,0,586,120.86Z" style="fill:#f8f8f8"></path><path d="M605,119.93a3.47,3.47,0,0,1,3,3.54s0,0,0,.08c0,.29-.06.59-.1.9a8.8,8.8,0,0,1-1.61,4,4.36,4.36,0,0,1-4,1.74h0a.36.36,0,0,1-.32-.4.39.39,0,0,1,.41-.34,3.56,3.56,0,0,0,3.32-1.45,6.48,6.48,0,0,0,1-2,3.4,3.4,0,0,1-2.76.77,3.47,3.47,0,1,1,1-6.87Zm2.23,3.83a2.75,2.75,0,1,0-3.12,2.31A2.73,2.73,0,0,0,607.27,123.76Z" style="fill:#f8f8f8"></path><path d="M610.39,126a6.73,6.73,0,0,1,1.53-3.51,3,3,0,0,1,5.22.77,6.85,6.85,0,0,1,.48,3.8,6.69,6.69,0,0,1-1.55,3.49,3,3,0,0,1-5.21-.76A6.54,6.54,0,0,1,610.39,126Zm.73.11a5.93,5.93,0,0,0,.41,3.36,2.24,2.24,0,0,0,4,.59,6.38,6.38,0,0,0,1-6.48,2.25,2.25,0,0,0-4-.58A6,6,0,0,0,611.12,126.15Z" style="fill:#f8f8f8"></path><path d="M623.05,123.64l-1.6.65a.4.4,0,0,1-.19,0,.36.36,0,0,1-.28-.22.34.34,0,0,1,.2-.47l2.19-.93a.39.39,0,0,1,.48.2.45.45,0,0,1,0,.28l-1.4,9.59a.36.36,0,0,1-.41.3.37.37,0,0,1-.31-.41Z" style="fill:#f8f8f8"></path><path d="M625.05,132.86l5.52-3.69a2.68,2.68,0,0,0,.75-3.76,2.69,2.69,0,0,0-1.85-1.17,2.79,2.79,0,0,0-1.92.42l-.58.39a.34.34,0,0,1-.5-.09.34.34,0,0,1,.08-.5l.58-.41a3.56,3.56,0,0,1,2.44-.54,3.37,3.37,0,0,1,2.34,1.49,3.31,3.31,0,0,1,.56,2.41,3.47,3.47,0,0,1-1.48,2.37l-4.73,3.16,4.94.72a.38.38,0,0,1,.3.43.38.38,0,0,1-.41.31l-5.82-.85h-.06a.35.35,0,0,1-.25-.15A.39.39,0,0,1,625.05,132.86Z" style="fill:#f8f8f8"></path><path d="M650.45,127.23l-3.11,2.38a3.58,3.58,0,0,1-1.75,6.9,3.49,3.49,0,0,1-2.34-1.4.38.38,0,1,1,.6-.45,2.78,2.78,0,0,0,1.85,1.09,2.79,2.79,0,0,0,3.21-2.38,2.83,2.83,0,0,0-2.38-3.19.4.4,0,0,1-.28-.19h0a.37.37,0,0,1,.07-.53l3-2.29-4-.59a.37.37,0,1,1,.11-.74l4.88.71a.38.38,0,0,1,.32.43.35.35,0,0,1-.07.15A.25.25,0,0,1,650.45,127.23Z" style="fill:#f8f8f8"></path><path d="M658.09,136.15l-5.65-.83h0a.3.3,0,0,1-.22-.1.37.37,0,0,1,0-.52l7.14-6.63h0a.34.34,0,0,1,.51,0,.48.48,0,0,1,.09.19s0,0,0,.07v0l-1,7.16.7.1a.37.37,0,0,1,.32.41.38.38,0,0,1-.43.31l-.7-.11-.26,1.79a.37.37,0,0,1-.42.31.37.37,0,0,1-.31-.41Zm.11-.72.89-6.11-5.83,5.39Z" style="fill:#f8f8f8"></path><path d="M662.07,137.87a.36.36,0,0,1,.07-.52.38.38,0,0,1,.54.08,2.88,2.88,0,0,0,1.85,1.09,2.83,2.83,0,0,0,3.2-2.38,2.82,2.82,0,0,0-4.47-2.67.36.36,0,0,1-.52-.07.31.31,0,0,1-.08-.13v0s0,0,0-.05a.24.24,0,0,1,0-.12s0,0,0-.07l1.12-4.13a.31.31,0,0,1,.19-.25.3.3,0,0,1,.25,0l4.86.71a.38.38,0,0,1,.32.43.37.37,0,0,1-.43.31l-4.55-.66-.82,3a3.49,3.49,0,0,1,1.84-.22,3.54,3.54,0,0,1,3,4.05,3.52,3.52,0,0,1-1.39,2.35,3.69,3.69,0,0,1-2.66.67A3.57,3.57,0,0,1,662.07,137.87Z" style="fill:#f8f8f8"></path><path d="M673.05,132.19a4.29,4.29,0,0,1,4-1.73.38.38,0,0,1,.33.4.39.39,0,0,1-.42.33,3.6,3.6,0,0,0-3.32,1.45,7.2,7.2,0,0,0-1,2,3.47,3.47,0,1,1-1.21,2.26,4.14,4.14,0,0,1,.07-.69A8.75,8.75,0,0,1,673.05,132.19Zm-.95,4.74a.67.67,0,0,0,0,.2.29.29,0,0,1,0,.1,2.83,2.83,0,1,0,0-.36Z" style="fill:#f8f8f8"></path><rect x="512.66" y="142.12" width="92" height="4.52" transform="translate(26.74 -79.24) rotate(8.31)" style="fill:#37474f"></rect><rect x="511.35" y="150.12" width="65.13" height="4.52" transform="translate(27.74 -77.03) rotate(8.31)" style="fill:#37474f"></rect><rect x="602.49" y="75.46" width="45.88" height="4.52" transform="translate(17.8 -89.59) rotate(8.31)" style="fill:#37474f"></rect><g id="freepik--u5Zjqx--inject-7"><path d="M678.8,102.85l-.72-1-.41-.55a11.76,11.76,0,0,0,2.44-16.46c.18-.13.37-.25.55-.39l1-.71,0,0h0a.43.43,0,0,1,0,.07c.27.4.54.8.8,1.22a13.05,13.05,0,0,1,1.21,2.73,12.48,12.48,0,0,1,.62,3.47c0,.56,0,1.13,0,1.69,0,.19-.18,1.41-.19,1.45-.09.37-.16.74-.26,1.11a12.81,12.81,0,0,1-1.17,2.93,13.48,13.48,0,0,1-1.27,1.91,13.08,13.08,0,0,1-1.66,1.75c-.31.27-.63.53-.94.78Z" style="fill:#fff"></path><path d="M677,87.17,678.57,86a9.6,9.6,0,0,1,1.94,5.9,9.71,9.71,0,0,1-4,7.84l-1.15-1.55a7.89,7.89,0,0,0,1.63-11Z" style="fill:#fff"></path><path d="M674.25,96.66l-1.15-1.54a4,4,0,0,0,.84-5.65l1.54-1.15A5.93,5.93,0,0,1,674.25,96.66Z" style="fill:#fff"></path></g></g><g id="freepik--Character--inject-7"><path d="M516.42,344.46a3.15,3.15,0,0,0,1.64,2.84,24.63,24.63,0,0,0,2.7,1.41,91.12,91.12,0,0,1,0-9.64c.12-3.7.5-7.32,1-11,0-.06.1,0,.09,0-.19,3.7-.25,7.43-.34,11.14-.09,3.25.09,6.53,0,9.78,1,.4,1.94.74,2.92,1.06,0-1.14-.09-2.27-.12-3.41-.09-3.41.12-6.78.21-10.19a.06.06,0,1,1,.12,0c0,3.32.2,6.68.33,10q.07,1.92.18,3.84c.67.19,1.35.38,2,.55l1.33.32c0-2.24.06-4.5.08-6.69,0-3.55.3-7.09.4-10.63a.09.09,0,1,1,.18,0c-.07,3.53.09,7.08.1,10.62,0,2.27.11,4.59.1,6.9a53.35,53.35,0,0,0,18.09.37,79.24,79.24,0,0,0,10.3-2.17c.82-.23,2.91-.87,5-1.53,0-1.07,0-2.14,0-3.18,0-2.36,0-4.74-.07-7.1,0-.06.08-.07.09,0,.19,2.37.53,4.71.64,7.08,0,.95.12,1.94.16,2.94.74-.24,1.44-.48,2.06-.7-.36-4.46-.2-9-.31-13.44,0-.11.14-.11.15,0,.31,4.35.88,8.77,1,13.16a7.14,7.14,0,0,0,1.36-.58c1-.84-.2-18.45-.38-22.56-.34-7.67-2.19-38.85-4.69-46.14a22.61,22.61,0,0,0-13.41-14.39c-3.09-1.22-6.64-.8-9.89-.72-15.8.38-20.57,11.66-21.47,31.28-.35,7.58-.8,37.12-1.17,44.71C516.6,340.4,516.39,342.45,516.42,344.46Z" style="fill:#263238"></path><path d="M666.58,453.49c-.69-2.62-42.26-65.57-45.29-66.93-.35-.17-21.59,13-21.59,13-.91,1.06-39-9.58-39-9.58l-3.37,46.55,70.42,3s9.14,6.2,17.53,11.31c0,0,0,0,0,0,5.17,3.16,9.75,5.84,11.08,6.28C659.86,458.25,667.28,456.1,666.58,453.49Z" style="fill:#eb9481"></path><path d="M656.4,457.12c-1.34-.43-5.91-3.11-11.07-6.28,0,0,0,0,0,0-8.39-5.11-17.53-11.31-17.53-11.31l-15.67-.67-22-41.11c5.31,1.3,9.29,2.12,9.58,1.78,0,0,21.23-13.15,21.58-13,3,1.36,44.6,64.31,45.29,66.93S659.86,458.25,656.4,457.12Z" style="fill:#fff"></path><path d="M667,453.6c-.73-2.69-42.51-65.62-45.62-67-1.18-.54-11.51,5-21.67,13l27,40.54s26.27,16.15,29.84,17.31S667.71,456.28,667,453.6Z" style="fill:#A96FFF"></path><path d="M663.87,454.37c-7.26-10.38-35.58-52.92-42-63.73,0-.09,0-.13.07,0,7.42,10.12,35.39,52.89,42.07,63.65C664.18,454.48,664,454.59,663.87,454.37Z" style="fill:#263238"></path><path d="M651.58,454.84a10.15,10.15,0,0,1-1.61-8,9.83,9.83,0,0,1,4.06-6.09c.07,0,.14.07.09.12a11.77,11.77,0,0,0-2.41,13.91A.08.08,0,1,1,651.58,454.84Z" style="fill:#263238"></path><path d="M630,442.68c-2.87-4.18-4.63-10.07-2.91-15,.06-.19.33-.1.35.07a70.46,70.46,0,0,0,3.12,14.64A.31.31,0,0,1,630,442.68Z" style="fill:#263238"></path><path d="M633.38,445.1c-2.86-4.18-4.62-10.07-2.91-15,.07-.19.34-.09.36.08A69.46,69.46,0,0,0,634,444.83.32.32,0,0,1,633.38,445.1Z" style="fill:#263238"></path><path d="M636.82,447.51c-2.87-4.18-4.63-10.06-2.91-15,.06-.19.33-.09.35.07a70.46,70.46,0,0,0,3.12,14.64A.31.31,0,0,1,636.82,447.51Z" style="fill:#263238"></path><path d="M640.25,449.93c-2.86-4.18-4.62-10.07-2.91-15,.07-.19.34-.1.36.07a69.33,69.33,0,0,0,3.12,14.64A.32.32,0,0,1,640.25,449.93Z" style="fill:#263238"></path><path d="M613.66,400c-3.13-4.75,4.24-9.62,7.38-4.87S616.8,404.73,613.66,400Z" style="fill:#263238"></path><path d="M627.67,450.28c1.43-4.23,1-8.93,1.06-13.32a.62.62,0,0,0-.84-.53c0-.07-.13-.12-.21-.05a26.5,26.5,0,0,0-8.25,11c-1,2.54-.91,6.39,2.28,7.35C624.73,455.64,626.84,452.75,627.67,450.28Zm-3.36,2.52c-4.88,2.63-4.1-3.86-3.31-5.7a28.26,28.26,0,0,1,1.82-3.44,79.14,79.14,0,0,1,4.68-6.53c-.18,2.15-.16,4.3-.26,6.46C627.13,446.16,627,451.35,624.31,452.8Z" style="fill:#263238"></path><path d="M615,423.17c-2.54,2.16-1,5.71.86,7.64a26.58,26.58,0,0,0,12,6.77c.11,0,.16-.05.17-.13a.62.62,0,0,0,.56-.83c-1.84-4-3.31-8.47-6.31-11.77C620.52,422.92,617.43,421.13,615,423.17Zm9.54,8c.95,1.94,1.8,3.91,2.83,5.81a77.5,77.5,0,0,1-6.91-4.1,29.63,29.63,0,0,1-3-2.41c-1.46-1.38-4.78-7,.74-6.55C621.22,424.14,623.44,428.84,624.57,431.15Z" style="fill:#263238"></path><path d="M572.45,380.06S513.23,353,486.82,353.32c-31.42.4-55.81,37.71-17.27,64.57C503.62,441.64,611,439.82,611,439.82l-25.12-45s-29.65-11.48-68.49-12.66l54.19,11Z" style="fill:#455a64"></path><path d="M571.37,389c-4.65-1.18-9.38-2-14.09-2.82s-9.52-1.6-14.3-2.31A285.39,285.39,0,0,0,514.24,381c-.91,0-1.81-.07-2.71-.09-.19-.08-.39-.13-.58-.19-.46-.14-.91-.28-1.37-.4-.85-.22-1.72-.41-2.58-.6-1.8-.39-3.62-.7-5.4-1.16-.11,0-.16.14-.06.17,1.8.52,3.55,1.16,5.35,1.68l1.55.43c-3.54,0-7.07,0-10.61.1-.11,0-.12.17,0,.17,4.8,0,9.63.31,14.41.69s9.51.8,14.25,1.38c9.57,1.17,19.12,2.65,28.64,4.26,5.33.91,10.68,1.92,16.06,2.5C571.7,390,571.89,389.17,571.37,389Z" style="fill:#263238"></path><path d="M600,437.79c-1.54-2.86-2.82-5.89-4.21-8.83s-2.79-5.9-4.19-8.84c-2.8-5.87-12.92-25.68-13.95-27.08-.07-.09-.22,0-.19.1.44,1.51,6.71,14.59,8.16,17.51,2.89,5.84,6,11.58,9,17.36.87,1.65,1.76,3.28,2.64,4.92s1.81,3.26,2.61,4.94C599.94,438,600.1,437.89,600,437.79Z" style="fill:#263238"></path><path d="M460.27,453.51c.77-2.6,44.42-64.13,47.49-65.38.36-.17,21.14,13.68,21.14,13.68.88,1.1,39.29-8.26,39.29-8.26L570,440.18l-70.48.67s-9.34,5.89-17.9,10.71h0c-5.27,3-9.94,5.51-11.28,5.9C466.82,458.49,459.48,456.09,460.27,453.51Z" style="fill:#eb9481"></path><path d="M470.32,457.47c1.35-.39,6-2.91,11.27-5.9h0c8.55-4.83,17.9-10.72,17.9-10.72l15.68-.15,23.33-40.35c-5.36,1.12-9.36,1.81-9.64,1.46,0,0-20.78-13.85-21.13-13.68-3.08,1.25-46.73,62.78-47.5,65.37S466.82,458.49,470.32,457.47Z" style="fill:#fff"></path><path d="M459.85,453.6c.82-2.66,44.68-64.16,47.83-65.45,1.2-.5,11.34,5.34,21.22,13.66l-28.32,39.62s-26.79,15.27-30.4,16.31S459,456.26,459.85,453.6Z" style="fill:#A96FFF"></path><path d="M462.94,454.47c7.61-10.13,37.33-51.7,44.08-62.29.05-.09,0-.13-.07-.05-7.76,9.88-37.14,51.69-44.18,62.22C462.62,454.57,462.78,454.68,462.94,454.47Z" style="fill:#263238"></path><path d="M475.21,455.36a10.17,10.17,0,0,0,1.88-8,9.82,9.82,0,0,0-3.86-6.23c-.06-.05-.14.07-.09.12a11.75,11.75,0,0,1,1.94,14A.08.08,0,0,0,475.21,455.36Z" style="fill:#263238"></path><path d="M497.24,443.93c3-4.09,4.95-9.91,3.41-14.88-.06-.19-.34-.11-.36.06a70.21,70.21,0,0,1-3.61,14.53A.32.32,0,0,0,497.24,443.93Z" style="fill:#263238"></path><path d="M493.72,446.23c3-4.09,5-9.91,3.41-14.88-.06-.19-.33-.11-.35.06a70.24,70.24,0,0,1-3.62,14.53A.32.32,0,0,0,493.72,446.23Z" style="fill:#263238"></path><path d="M490.21,448.53c3-4.09,5-9.91,3.41-14.88-.06-.2-.33-.11-.36.06a69.58,69.58,0,0,1-3.61,14.53A.32.32,0,0,0,490.21,448.53Z" style="fill:#263238"></path><path d="M486.7,450.83c3-4.09,4.95-9.91,3.41-14.88-.06-.2-.34-.11-.36.06a70.21,70.21,0,0,1-3.61,14.53A.32.32,0,0,0,486.7,450.83Z" style="fill:#263238"></path><path d="M514.94,401.79c3.28-4.64-3.92-9.76-7.21-5.11S511.64,406.44,514.94,401.79Z" style="fill:#263238"></path><path d="M505.07,456.24c3.22-.85,3.4-4.69,2.52-7.26a26.55,26.55,0,0,0-7.87-11.28.13.13,0,0,0-.21.05.62.62,0,0,0-.87.5c-.06,4.39-.67,9.07.61,13.35C500,454.09,502,457.05,505.07,456.24Zm-5.16-11.32c0-2.16.06-4.3,0-6.46a79.33,79.33,0,0,1,4.46,6.69,28.12,28.12,0,0,1,1.7,3.49c.73,1.87,1.29,8.38-3.49,5.59C499.9,452.69,499.93,447.49,499.91,444.92Z" style="fill:#263238"></path><path d="M505.5,426.36c-3.12,3.2-4.74,7.63-6.71,11.55a.63.63,0,0,0,.54.85.13.13,0,0,0,.16.14,26.51,26.51,0,0,0,12.19-6.37c2-1.87,3.58-5.36,1.12-7.6S507.32,424.49,505.5,426.36Zm4.12-.82c5.53-.26,2,5.25.53,6.57a29.36,29.36,0,0,1-3.13,2.31c-2.25,1.49-4.67,2.63-7,3.88,1.08-1.87,2-3.81,3-5.72C504.21,430.31,506.57,425.69,509.62,425.54Z" style="fill:#263238"></path><path d="M569.88,379.18s59.57-18.4,91.45-14.83c31.22,3.5,44.31,42.53,14,63.95-33.05,23.39-158.19,16.19-158.19,16.19l26.37-48s42.52-10.33,81.37-10.22l-54.53,9.15Z" style="fill:#455a64"></path><path d="M541.78,399.57a.85.85,0,0,0,.05-.24c0-.06,0-.13,0-.2s.07-.3.11-.46c.08-.32.18-.62.29-.93s.24-.61.37-.91a7.2,7.2,0,0,1,.49-.85s0,0,.08-.05l0,0,.07,0,.07,0c4.68-1,36.52-6.58,41.26-7.27s9.57-1.29,14.37-1.84a286.15,286.15,0,0,1,28.82-1.93c.91,0,1.81,0,2.71,0a5.69,5.69,0,0,1,.59-.16c.46-.13.91-.26,1.38-.36.86-.19,1.73-.35,2.6-.51,1.81-.33,3.63-.58,5.44-1a.09.09,0,0,1,0,.17c-1.81.46-3.58,1-5.39,1.5l-1.57.38c3.54.08,7.07.24,10.6.45.11,0,.12.18,0,.18-4.8-.14-9.64,0-14.43.21s-9.53.47-14.28.89c-9.61.85-19.21,2-28.77,3.31-5.36.73-37.82,6.49-43.22,6.89h-.07a2.79,2.79,0,0,1-.14.37c-.13.3-.27.59-.43.89s-.29.55-.45.82l-.26.4-.13.2a2.39,2.39,0,0,0-.13.21C541.91,399.76,541.72,399.69,541.78,399.57Z" style="fill:#263238"></path><path d="M527.12,441.31c1.63-2.81,3-5.79,4.5-8.68s3-5.8,4.49-8.7c3-5.77,13.76-25.23,14.84-26.6.07-.08.22,0,.19.11-.49,1.49-7.19,14.36-8.74,17.23-3.09,5.74-6.35,11.37-9.56,17.05-.92,1.62-1.87,3.22-2.8,4.83s-1.92,3.2-2.77,4.85C527.22,441.5,527.06,441.41,527.12,441.31Z" style="fill:#263238"></path><path d="M547.66,320.53C539,335,525.4,361.29,522,363.55c-12.42,8.18-32.53,24.28-36.26,28.28-4.81,5.14,20.67,28,24.22,24.73,2.54-2.35,30.65-24.44,38.38-38.29,5-9,8.83-36.63,10.49-53.2C560.28,310.36,553.47,310.83,547.66,320.53Z" style="fill:#eb9481"></path><path d="M513.94,413c-.45.44-6.85,6.68-11.12,9.53-3.19,2.13-12.53,8-15.23,4.74-1.84-2.23,3.25-6.34,6.78-9.33,1.86-1.57,3.79-4.65,2.72-5.83-1.86-2.06-6.62,2.11-9.58,5.37-5.72,6.3-12.75,16.6-18.16,14.4-2.05-.83-.94-3.88,1-7.15-3.58,4.21-7.61,8-9.92,7.18-1.33-.47-1.73-1.57-1.54-3a3.27,3.27,0,0,1-3.62.56c-1.93-1.06-1.93-3.53-1.07-6.33a1.83,1.83,0,0,1-1.6-.45c-4.56-3.71,6.57-22,11.49-25,14.48-8.69,31.2-13.22,31.2-13.22C503.05,387.41,514,413,513.94,413Z" style="fill:#eb9481"></path><path d="M486.35,405.87a27.65,27.65,0,0,0-9.17,7.33c-3.14,3.87-4.8,7.78-7.16,11.92-.06.11.11.21.17.1,1.12-2,5.95-9.57,7.25-11.37a26.56,26.56,0,0,1,8.94-7.92A0,0,0,0,0,486.35,405.87Z" style="fill:#263238"></path><path d="M481.32,400.15a66.48,66.48,0,0,0-10.81,8.06c-3.51,3.45-5.68,8-7.84,12.32q-1.94,3.93-3.71,7.94c0,.11.11.22.17.1q3.25-6.72,6.91-13.26a35.38,35.38,0,0,1,8.87-10.49c2.07-1.64,4.26-3.13,6.45-4.6C481.4,400.19,481.37,400.12,481.32,400.15Z" style="fill:#263238"></path><path d="M475.09,395.73c-3.74,2.09-7,3.9-9.87,7.16-3.79,4.32-6.8,10.53-7.85,12.73-1.16,2.43-2.24,4.89-3.28,7.37,0,.1.14.18.18.08a138.15,138.15,0,0,1,8.37-15.94,27.33,27.33,0,0,1,5.42-6.6,49.47,49.47,0,0,1,7-4.77S475.1,395.72,475.09,395.73Z" style="fill:#263238"></path><path d="M490.22,384.45l26.84,30.68s25-25.36,32.46-36.38c3.13-4.6,9.44-39.71,10.35-51.25,1.1-14.08-4.43-20.64-12.26-8.42-6.77,10.58-24.78,41.77-25.86,42.54Z" style="fill:#A96FFF"></path><path d="M499,382.82c10.79,10.06,20.62,22.29,22.48,24.29.09.1-.07.23-.16.13-1.72-2.07-14.46-14.81-22.49-24.28C498.73,382.85,498.89,382.72,499,382.82Z" style="fill:#263238"></path><path d="M559.86,327.5c-.9,11.54-7.21,46.65-10.34,51.25-7.49,11-32.46,36.37-32.46,36.37l-14.62-16.7L553.64,313C558.05,311.2,560.65,317.43,559.86,327.5Z" style="opacity:0.1"></path><path d="M613.79,379.53l-75.71,9.7,1.08-24.68s-6.75-4.65-4.29-15.19c1.62-6.9,10.53-23.64,15.19-30.71,11.36-17.22,21.42-9.42,25.51-5.77C591.17,326.82,613.79,379.53,613.79,379.53Z" style="fill:#A96FFF"></path><path d="M557.47,310.51l12.39-1.5c.5.22,1,.46,1.43.71l-15.17,1.83C556.57,311.17,557,310.82,557.47,310.51ZM549.82,319l28.44-3.44-.74-.8-27,3.26c-.14.19-.28.4-.42.61Zm-4.3,7.2,37.6-4.54c-.19-.28-.39-.55-.59-.81l-36.48,4.4Zm-3.85,7.16,45.63-5.51c-.18-.27-.35-.56-.53-.83l-44.6,5.39Zm-3.45,7.11,52.89-6.39-.49-.83-52,6.27C538.51,339.86,538.36,340.19,538.22,340.49Zm-2.82,7,59.28-7.16c-.15-.28-.32-.56-.47-.84l-58.49,7.06C535.6,346.92,535.49,347.23,535.4,347.53Zm-1,6.82,63.71-7.7c-.14-.28-.3-.56-.45-.84l-63.28,7.64C534.33,353.75,534.33,354.06,534.35,354.35Zm1.28,5.63a8.43,8.43,0,0,0,.43.85L601.3,353l-.43-.84Zm3.42,7.18,65.38-7.9-.41-.84-64.92,7.85Zm-.29,6.73,68.7-8.3c-.12-.28-.26-.56-.41-.85L538.79,373Zm-.3,6.73,71.94-8.7-.39-.84-71.51,8.65Zm-.29,6.73,75.07-9.08c-.11-.25-.24-.53-.37-.85l-74.67,9Z" style="opacity:0.1"></path><path d="M560.8,362.5a67.69,67.69,0,0,0-9.95.94c-1.63.3-3.23.67-4.84,1.08-.8.21-1.6.38-2.41.55a10.57,10.57,0,0,1-2.57.31c-.07,0-.08.11,0,.11a18.05,18.05,0,0,0,2.44.13,17.07,17.07,0,0,0,2.36-.28c1.65-.29,3.3-.65,4.95-1,3.33-.61,6.67-1.23,10-1.6C561,362.76,561,362.5,560.8,362.5Z" style="fill:#263238"></path><path d="M568.78,366a75.25,75.25,0,0,0-8.19-1c-1.37-.08-2.74-.08-4.12,0l-2,.09c-.72,0-1.43.18-2.16.21-.07,0-.08.12,0,.12.68,0,1.36.09,2,.12l2.05.09c1.37.06,2.74.14,4.11.19,2.75.09,5.48.22,8.22.41C568.92,366.24,568.92,366,568.78,366Z" style="fill:#263238"></path><path d="M563.33,310.57c.29,1.42-2,12.51-8,14.9-2,.77-6.66-9.67-6.66-9.67l-.52-.69-7.32-9.68,9-13.9,1.34-1.91s1.83,2.79,4.07,6.27c.11.16.21.32.32.5s.26.37.37.56c.35.52.69,1.05,1,1.58l.76,1.23c.26.43.51.86.78,1.29A78.79,78.79,0,0,1,563.33,310.57Z" style="fill:#eb9481"></path><path d="M555.19,295.89a24.35,24.35,0,0,1-7.05,19.22l-7.32-9.68,9-13.9,1.34-1.91S553,292.41,555.19,295.89Z" style="fill:#263238"></path><path d="M521.43,290.1c.73,21.29,13.56,23.26,18.15,23.09,4.17-.14,18.34-1.18,19.82-22.43s-8.66-27.64-18.21-27.81S520.69,268.81,521.43,290.1Z" style="fill:#eb9481"></path><path d="M525.41,289.87c.47-.17.88-.4,1.33-.61a2.47,2.47,0,0,0,1.25-.89.76.76,0,0,0-.21-.9,1.85,1.85,0,0,0-1.9,0,2.81,2.81,0,0,0-1.48,1.34A.81.81,0,0,0,525.41,289.87Z" style="fill:#263238"></path><path d="M539.25,287.9a14.44,14.44,0,0,1-1.47,0,2.41,2.41,0,0,1-1.49-.32.76.76,0,0,1-.16-.91,1.86,1.86,0,0,1,1.74-.77,2.78,2.78,0,0,1,1.88.65A.81.81,0,0,1,539.25,287.9Z" style="fill:#263238"></path><path d="M529,294.73c0-.05-.1.09-.09.15.3,1.42.41,3.09-.79,3.8,0,0,0,.1,0,.08C529.63,298.25,529.46,296,529,294.73Z" style="fill:#263238"></path><path d="M527.4,293.47c-2.33.25-1.67,4.88.49,4.66S529.35,293.27,527.4,293.47Z" style="fill:#263238"></path><path d="M526.48,293.92c-.34.29-.63.79-1.07.88s-.95-.34-1.34-.78c0,0-.07,0-.06.06.1.89.52,1.78,1.4,1.83s1.26-.8,1.34-1.71C526.77,294,526.61,293.8,526.48,293.92Z" style="fill:#263238"></path><path d="M537.07,293.44c0-.05.13.05.13.11.2,1.44.67,3.05,2,3.3,0,0,0,.08,0,.09C537.63,297,537,294.84,537.07,293.44Z" style="fill:#263238"></path><path d="M538.09,291.73c2.27-.57,3.24,4,1.14,4.54S536.19,292.21,538.09,291.73Z" style="fill:#263238"></path><path d="M539.11,291.83c.42.17.87.53,1.31.47s.77-.65,1-1.19c0-.06.07,0,.08,0,.21.87.11,1.85-.69,2.19s-1.46-.31-1.85-1.14C538.87,292,539,291.76,539.11,291.83Z" style="fill:#263238"></path><path d="M539.42,304.33c-.24.43-.44,1-.93,1.16a3.74,3.74,0,0,1-1.6.09s-.08.06,0,.09a2,2,0,0,0,2,.24,1.53,1.53,0,0,0,.73-1.55C539.57,304.27,539.46,304.27,539.42,304.33Z" style="fill:#263238"></path><path d="M532.33,300.6s.2,2.17.43,3.17c0,.09.27.08.61,0,0,0,0,0,0,0A4.87,4.87,0,0,0,537.6,301c0-.11-.1-.19-.18-.1a7.32,7.32,0,0,1-4,2.24c-.13-.26-.21-3.74-.37-3.72a8.74,8.74,0,0,0-2.14,1c-.55-4.53-.36-9.1-1-13.6,0-.16-.26-.16-.27,0-.54,4.79,0,10,.41,14.69C530.09,302.08,532,300.86,532.33,300.6Z" style="fill:#263238"></path><path d="M533.41,303.28a5.88,5.88,0,0,0,2.62,1.45,2.71,2.71,0,0,0,1.61-.15c1.11-.49,1-1.55.62-2.43a6.12,6.12,0,0,0-.74-1.3A7.61,7.61,0,0,1,533.41,303.28Z" style="fill:#263238"></path><path d="M536,304.73a2.71,2.71,0,0,0,1.61-.15c1.11-.49,1-1.55.62-2.43A2.77,2.77,0,0,0,536,304.73Z" style="fill:#ff9bbc"></path><path d="M558.86,292.56c-3.94,1.13-6.39-7.92-6.39-7.92s-17.56-.27-21.16-14a23.82,23.82,0,0,1-9.91,14.73s-1.75-15.37,9.91-20.2c0,0,14.19-7.78,24.47,2.85S561.5,291.81,558.86,292.56Z" style="fill:#263238"></path><path d="M531.1,269.64a15.17,15.17,0,0,0,1.74,6.24,16,16,0,0,0,4.09,5.13,12.77,12.77,0,0,0,1.34,1l.68.47c.23.14.48.27.73.39.49.25,1,.52,1.47.74s1,.38,1.55.55c.26.09.51.19.77.26l.8.18,1.6.34c1.08.13,2.16.21,3.23.26-1.05-.27-2.11-.44-3.13-.72l-1.53-.48-.75-.23-.73-.32-1.45-.62c-.47-.24-.92-.51-1.38-.77l-.68-.38-.64-.46a11.34,11.34,0,0,1-1.25-.94,18.34,18.34,0,0,1-4.07-4.74,19.64,19.64,0,0,1-1.41-2.83A17.78,17.78,0,0,1,531.1,269.64Z" style="fill:#263238"></path><path d="M559.52,298a4.55,4.55,0,0,1-.93.44,3.32,3.32,0,0,1-1,.21,2.91,2.91,0,0,1-1.28-.17,3.53,3.53,0,0,1-.91-.46,4.08,4.08,0,0,1-1-1l.12-5.81s3.35-7.39,6.62-6.31S562.76,296.06,559.52,298Z" style="fill:#eb9481"></path><path d="M560.6,287.75a.05.05,0,0,1,0,.09c-2.26,1.45-3.12,4-3.59,6.47a2,2,0,0,1,2.83-1.09.08.08,0,0,1,0,.15,2.22,2.22,0,0,0-2.26,1.21,10.61,10.61,0,0,0-.78,2.15c-.08.24-.49.2-.46-.07a.13.13,0,0,0,0-.06C555.71,293.5,557.32,288.69,560.6,287.75Z" style="fill:#263238"></path><path d="M567.41,323.38c-1.39,16.8-3.11,44.71-5.66,47.92-9.26,11.64-23.37,33.19-25.68,38.15-3,6.38,28.36,20.2,30.71,16,1.69-3,21.54-32.76,24.58-48.33,2-10.09-5.78-37.12-10.65-53C576,308.65,568.31,312.57,567.41,323.38Z" style="fill:#eb9481"></path><path d="M533.18,408.2c-8.48,6.5-9.66,9.47-19.73,11.16-6.61,1.1-8.74,5.8-2.12,8,10.83,3.57,23.53-2.52,27.32-5.9Z" style="fill:#eb9481"></path><path d="M560.17,395.33s-13,3.83-22.78,9.87c-6.72,4.17-20.33,14.88-19.8,38.49.12,5.61,4.27,13.5,7.39,4.27,2.22-6.55,1.64-11.37,3.62-14.95,0,0,6.47,9.42,12.08,9.07a103.12,103.12,0,0,0,14.59-1.95,22.62,22.62,0,0,0-.12-2.76,25.84,25.84,0,0,0,11.63-11.94Z" style="fill:#eb9481"></path><path d="M531.61,410.2c-1.21,4-3.65,12.42-3.24,20,.46,8.45,3.61,24.59,9.84,24.19,4.57-.29,3.91-6.56,3.91-6.56s2.71,6.4,6.78,5.23c3.7-1.07,2.9-5.89,2.9-5.89s2.31,3.6,5.69,1.89c4.06-2.06-1.45-9.26.85-14.9C558.86,432.91,531.61,410.2,531.61,410.2Z" style="fill:#eb9481"></path><path d="M537.21,428.25c-.53,3.92.54,13.12,4.75,19.52.09.15.25.15.2,0a83.17,83.17,0,0,1-4.87-19.52C537.29,428.2,537.22,428.21,537.21,428.25Z" style="fill:#263238"></path><path d="M545.75,428c-.11,3.43,1.42,12.86,5.9,19.2.1.14.26.14.2,0a89.09,89.09,0,0,1-6-19.2A0,0,0,0,0,545.75,428Z" style="fill:#263238"></path><path d="M528.55,433c-1.7,3.17-2.07,5.95-2.67,9.44a47,47,0,0,1-1.12,5.14c-.44,1.54-1.08,3.82-3,4.05a2.84,2.84,0,0,1-2.45-1.53,13.67,13.67,0,0,1-1.47-4.1c0-.06-.1,0-.09,0a19.6,19.6,0,0,0,1,3.93,4.67,4.67,0,0,0,1.7,2.12c1.71,1,3.46-.45,4.21-1.95a15.79,15.79,0,0,0,1-2.86c.24-.93.44-1.87.62-2.82.36-1.95.61-3.91,1-5.86a44.42,44.42,0,0,1,1.42-5.53A.06.06,0,0,0,528.55,433Z" style="fill:#263238"></path><path d="M532.12,446.63A108.66,108.66,0,0,1,528.66,433a.05.05,0,0,0-.1,0c-.07,3.7,1.71,11.53,2.55,13.77s2,4.95,3.68,6.63c2.56,2.53,4.73,1.31,5.47.8a4.7,4.7,0,0,0,1.8-2.54,9.4,9.4,0,0,0,.09-3.81c0-.06-.1-.06-.1,0,.14,1.89-.32,4.35-1.88,5.56a3.3,3.3,0,0,1-2.42.75,4.24,4.24,0,0,1-2.47-1.63A19.78,19.78,0,0,1,532.12,446.63Z" style="fill:#263238"></path><path d="M538.07,401l35,20.81S589,390,592.65,377.19c1.54-5.35-6.88-40.06-10.18-51.15-3.63-12.26-11.42-21.5-15.54-4.13-2.9,12.23-5.21,46.56-6,47.63S538.07,401,538.07,401Z" style="fill:#A96FFF"></path><path d="M584.54,397.53c2.48-6.41,5.86-13.85,7.68-20.41.6-4.24-.4-8.64-1-12.86-1.48-8.61-3.48-17.14-5.47-25.65l-2-8.53c1.74,5.58,3.28,11.22,4.72,16.88s2.69,11.37,3.74,17.13c.64,4.37,1.58,8.78.9,13.23-2.1,7-5.4,13.61-8.53,20.21Z" style="fill:#263238"></path><path d="M585.38,337c-.28-2-.07-4-.32-5.94a9.08,9.08,0,0,1,.32,5.94Z" style="fill:#263238"></path><path d="M546.11,396.4c13.22,6.55,26.14,15.44,28.5,16.83.11.07,0,.24-.12.17-2.24-1.48-18.09-10-28.5-16.82C545.86,396.5,546,396.33,546.11,396.4Z" style="fill:#263238"></path><path d="M547,388.38c4.26-6.46,8.65-12.82,13.12-19.14a4,4,0,0,0,.51-1.64c.35-1.89.59-3.8.83-5.71,1-7.38,1.88-15.59,2.81-23l1-7.67c-.13,2.57-.33,5.14-.51,7.72-.6,7.49-1.38,15.68-2.31,23.1-.44,2.46-.51,5.23-1.45,7.55-4.58,6.34-9.22,12.63-14,18.81Z" style="fill:#263238"></path><path d="M564,332.3c.37,2.11.31,4.3.72,6.4a10.18,10.18,0,0,1-.72-6.4Z" style="fill:#263238"></path><rect x="466.41" y="453.93" width="90.68" height="4.06" transform="translate(-3.25 3.68) rotate(-0.41)" style="fill:#c7c7c7"></rect><polygon points="466.4 454.26 466.43 458.32 528.07 457.88 524.93 453.84 466.4 454.26" style="fill:#a6a6a6"></polygon><polygon points="515.6 457.97 436.23 458.54 424.35 402.62 503.71 402.06 515.6 457.97" style="fill:#a6a6a6"></polygon><polygon points="511.89 458 432.52 458.56 420.64 402.65 500 402.08 511.89 458" style="fill:#c7c7c7"></polygon><path d="M459.09,428.29c-.06,2.64,1.73,5.16,4,5.62s4.16-1.32,4.22-4-1.72-5.16-4-5.62S459.16,425.64,459.09,428.29Z" style="fill:#fff"></path></g></svg>